<?xml version="1.0" encoding="utf-8"?>
<!-- Generator: Adobe Illustrator 27.5.0, SVG Export Plug-In . SVG Version: 6.00 Build 0)  -->
<svg version="1.1" xmlns="http://www.w3.org/2000/svg" xmlns:xlink="http://www.w3.org/1999/xlink" x="0px" y="0px"
	 viewBox="0 0 500 500" style="enable-background:new 0 0 500 500;" xml:space="preserve">
<g id="Background_Simple">
	<g>
		<path style="fill:#92E3A9;" d="M475.084,285.757c-15.056,40.327-45.82,83.974-89.111,96.896
			c-65.411,19.531-73.225,72.257-190.384,67.367c-18.267-0.761-35.15-3.329-50.661-7.429c-8.338-2.203-16.281-4.861-23.819-7.923
			C52.665,406.946,16.962,345.932,13.998,282.091c-3.912-83.964,54.672-123.985,92.747-147.419
			c38.075-23.434,83.964-114.234,199.176-110.332c17.565,0.603,35.091,3.003,52.074,7.607
			c38.766,10.492,78.175,33.698,101.075,67.624c1.719,2.549,3.359,5.157,4.93,7.814
			C494.645,159.381,495.613,230.778,475.084,285.757z"/>
		<path style="opacity:0.7;fill:#FFFFFF;" d="M475.084,285.757c-15.056,40.327-45.82,83.974-89.111,96.896
			c-65.411,19.531-73.225,72.257-190.384,67.367c-18.267-0.761-35.15-3.329-50.661-7.429c-8.338-2.203-16.281-4.861-23.819-7.923
			C52.665,406.946,16.962,345.932,13.998,282.091c-3.912-83.964,54.672-123.985,92.747-147.419
			c38.075-23.434,83.964-114.234,199.176-110.332c17.565,0.603,35.091,3.003,52.074,7.607
			c38.766,10.492,78.175,33.698,101.075,67.624c1.719,2.549,3.359,5.157,4.93,7.814
			C494.645,159.381,495.613,230.778,475.084,285.757z"/>
	</g>
</g>
<g id="Plant">
	<g>
		<path style="fill:#92E3A9;" d="M451.587,422.372c-1.54,0.565-5.203,0.261-5.206,0.261c-0.038-0.003,0.933-2.354,1.012-2.495
			c0.906-1.635,3.62-4.262,5.674-3.858c1.48,0.292,2.22,1.835,1.798,3.22C454.434,420.914,452.898,421.891,451.587,422.372z"/>
		<path style="fill:#92E3A9;" d="M404.281,406.987c2.091-0.099,4.389,2.898,5.046,4.649c0.056,0.151,0.672,2.62,0.634,2.617
			c0,0-0.036-0.003-0.044-0.003c0.367,0.47,0.754,0.979,1.166,1.543c0.753,1.048,1.594,2.238,2.421,3.595
			c0.831,1.355,1.695,2.85,2.464,4.506c0.772,1.66,1.5,3.445,2.012,5.382c0.006,0.022,0.009,0.045,0.015,0.067
			c0.026-0.613,0.156-2.324,0.181-2.454c0.352-1.836,2.11-5.178,4.189-5.435c1.497-0.184,2.681,1.051,2.712,2.498
			c0.032,1.478-1.123,2.885-2.219,3.751c-1.236,0.977-4.551,1.795-4.815,1.859c0.471,1.848,0.803,3.784,1.033,5.76
			c0.132,1.13,0.23,2.273,0.314,3.42c0.04-0.529,0.079-1.002,0.092-1.068c0.352-1.837,2.11-5.178,4.188-5.434
			c1.497-0.185,2.681,1.051,2.712,2.498c0.032,1.478-1.123,2.885-2.219,3.751c-1.112,0.879-3.925,1.633-4.672,1.823
			c0.027,0.44,0.06,0.88,0.086,1.32c0.124,2.113,0.239,4.221,0.415,6.286c0.061,0.728,0.149,1.442,0.234,2.157
			c0.036-0.47,0.07-0.865,0.081-0.925c0.352-1.837,2.11-5.178,4.188-5.435c1.498-0.184,2.682,1.051,2.713,2.499
			c0.032,1.477-1.124,2.885-2.219,3.751c-1.061,0.839-3.651,1.558-4.538,1.788c0.109,0.73,0.217,1.461,0.356,2.163
			c0.106,0.477,0.174,0.944,0.307,1.418c0.121,0.471,0.242,0.938,0.361,1.401c0.262,0.882,0.527,1.794,0.804,2.647
			c0.188,0.596,0.379,1.16,0.569,1.728c-0.07-0.724-0.177-2.143-0.172-2.263c0.046-1.242,0.608-3.23,1.57-4.595
			c0.006-0.183,0.027-0.365,0.067-0.545c0.315-1.413,1.719-2.391,3.151-1.916c1.987,0.659,3.054,4.282,3.038,6.151
			c-0.001,0.11-0.145,1.306-0.249,2.059c0.129-0.433,0.248-0.855,0.385-1.3c0.266-0.88,0.557-1.751,0.866-2.69
			c0.165-0.448,0.333-0.9,0.502-1.357c0.158-0.456,0.382-0.918,0.573-1.383c0.465-1.068,0.989-2.128,1.54-3.184
			c-0.771-0.234-3.495-1.107-4.554-2.026c-1.055-0.915-2.144-2.375-2.045-3.849c0.098-1.444,1.337-2.625,2.824-2.372
			c2.064,0.351,3.668,3.77,3.935,5.621c0.017,0.116,0.059,1.465,0.068,2.207c0.336-0.632,0.668-1.265,1.029-1.893
			c1.041-1.815,2.152-3.619,3.252-5.423c0.337-0.553,0.667-1.107,0.998-1.661c-0.275-0.081-3.535-1.047-4.722-2.077
			c-1.055-0.915-2.144-2.374-2.044-3.849c0.098-1.444,1.337-2.624,2.824-2.371c2.065,0.351,3.668,3.77,3.935,5.62
			c0.02,0.139,0.078,2.081,0.068,2.576c0.73-1.22,1.447-2.443,2.105-3.678c0.909-1.702,1.707-3.422,2.358-5.145
			c-0.128-0.037-3.535-1.031-4.751-2.086c-1.055-0.915-2.144-2.374-2.044-3.849c0.097-1.444,1.337-2.624,2.824-2.371
			c2.064,0.351,3.668,3.77,3.935,5.62c0.021,0.145,0.082,2.234,0.066,2.614c0.038-0.102,0.09-0.204,0.127-0.307
			c0.67-1.849,1.088-3.724,1.393-5.499c0.179-1.031,0.293-2.026,0.381-2.997c-0.654-0.12-3.634-0.701-4.833-1.53
			c-1.149-0.794-2.392-2.125-2.455-3.601c-0.062-1.446,1.041-2.755,2.546-2.667c2.09,0.122,4.06,3.344,4.528,5.154
			c0.026,0.099,0.174,1.128,0.271,1.879c0.033-0.439,0.076-0.891,0.1-1.312c0.092-1.581,0.08-3.034,0.058-4.321
			c-0.018-0.732-0.049-1.393-0.085-2.011c-0.58-0.453-2.894-2.305-3.564-3.569c-0.654-1.234-1.144-2.988-0.52-4.327
			c0.612-1.312,2.194-1.966,3.489-1.194c1.799,1.072,2.062,4.839,1.644,6.661c-0.036,0.157-0.885,2.555-0.915,2.532
			c0,0-0.028-0.022-0.035-0.027c0.046,0.594,0.089,1.232,0.121,1.93c0.05,1.289,0.095,2.746,0.036,4.335
			c-0.055,1.588-0.158,3.312-0.431,5.118c-0.272,1.81-0.649,3.701-1.29,5.598c-0.007,0.022-0.018,0.043-0.025,0.064
			c0.36-0.497,1.413-1.852,1.506-1.947c1.306-1.338,4.616-3.155,6.491-2.222c1.35,0.672,1.657,2.356,0.884,3.58
			c-0.789,1.25-2.529,1.787-3.92,1.905c-1.569,0.133-4.786-1.014-5.042-1.106c-0.628,1.802-1.417,3.6-2.317,5.375
			c-0.513,1.016-1.062,2.022-1.624,3.025c0.325-0.419,0.619-0.792,0.665-0.84c1.307-1.338,4.617-3.155,6.491-2.222
			c1.351,0.672,1.657,2.356,0.885,3.58c-0.788,1.25-2.529,1.787-3.92,1.905c-1.412,0.12-4.174-0.803-4.902-1.057
			c-0.22,0.383-0.435,0.767-0.657,1.148c-1.062,1.831-2.129,3.653-3.122,5.472c-0.35,0.641-0.671,1.285-0.995,1.928
			c0.289-0.372,0.536-0.683,0.578-0.727c1.306-1.338,4.617-3.155,6.491-2.222c1.351,0.672,1.656,2.356,0.884,3.58
			c-0.789,1.25-2.529,1.787-3.92,1.905c-1.348,0.114-3.905-0.714-4.771-1.012c-0.312,0.669-0.625,1.338-0.897,2
			c-0.176,0.456-0.376,0.883-0.526,1.352c-0.159,0.46-0.316,0.916-0.472,1.367c-0.268,0.88-0.55,1.786-0.79,2.651
			c-0.172,0.6-0.324,1.176-0.479,1.755c0.341-0.642,1.035-1.885,1.105-1.982c1.088-1.52,4.085-3.818,6.08-3.18
			c1.437,0.46,1.994,2.078,1.416,3.405c-0.59,1.355-2.228,2.149-3.586,2.477c-1.495,0.36-4.72-0.246-5.122-0.324
			c-0.253,0.959-0.491,1.895-0.7,2.781c-0.045,0.19-0.083,0.362-0.126,0.547h-1.296c0.071-0.279,0.142-0.559,0.218-0.848
			c0.253-0.975,0.543-2.012,0.851-3.074c-0.238-0.112-1.591-0.756-2.777-1.516c-1.14,1.094-3.963,2.284-4.328,2.436
			c0.318,0.94,0.636,1.851,0.95,2.706c0.038,0.103,0.074,0.196,0.111,0.297h-1.32c-0.314-0.921-0.631-1.903-0.947-2.917
			c-0.398,0.059-3.654,0.518-5.133,0.089c-1.341-0.389-2.942-1.258-3.47-2.639c-0.517-1.352,0.115-2.943,1.572-3.336
			c2.021-0.546,4.91,1.886,5.927,3.455c0.06,0.092,0.599,1.169,0.928,1.854c-0.132-0.432-0.265-0.85-0.396-1.296
			c-0.265-0.881-0.502-1.768-0.761-2.721c-0.109-0.465-0.219-0.934-0.331-1.408c-0.12-0.468-0.188-0.977-0.285-1.47
			c-0.201-1.148-0.349-2.32-0.472-3.505c-0.772,0.229-3.525,1.005-4.916,0.822c-1.385-0.182-3.098-0.797-3.829-2.083
			c-0.716-1.258-0.333-2.926,1.047-3.536c1.915-0.846,5.139,1.121,6.383,2.517c0.078,0.087,0.857,1.189,1.274,1.803
			c-0.068-0.713-0.14-1.424-0.186-2.147c-0.132-2.088-0.201-4.205-0.279-6.317c-0.023-0.647-0.055-1.291-0.084-1.937
			c-0.274,0.085-3.526,1.077-5.084,0.873c-1.385-0.181-3.098-0.798-3.829-2.083c-0.716-1.258-0.333-2.926,1.047-3.535
			c1.915-0.846,5.139,1.121,6.382,2.517c0.094,0.105,1.213,1.693,1.478,2.111c-0.064-1.421-0.141-2.836-0.274-4.229
			c-0.18-1.921-0.464-3.796-0.872-5.592c-0.127,0.04-3.517,1.091-5.113,0.882c-1.385-0.181-3.099-0.798-3.829-2.083
			c-0.715-1.258-0.333-2.926,1.047-3.536c1.916-0.846,5.139,1.121,6.383,2.517c0.097,0.11,1.301,1.818,1.497,2.144
			c-0.025-0.107-0.038-0.22-0.064-0.326c-0.461-1.912-1.147-3.707-1.872-5.355c-0.419-0.959-0.874-1.852-1.335-2.711
			c-0.611,0.261-3.418,1.42-4.875,1.391c-1.396-0.028-3.167-0.452-4.034-1.649c-0.849-1.172-0.652-2.872,0.652-3.63
			c1.811-1.051,5.231,0.55,6.621,1.801c0.076,0.068,0.767,0.845,1.262,1.418c-0.214-0.385-0.428-0.785-0.641-1.149
			c-0.795-1.37-1.607-2.575-2.335-3.636c-0.419-0.6-0.809-1.135-1.18-1.631c-0.733-0.057-3.685-0.325-4.942-1.01
			c-1.226-0.669-2.602-1.861-2.82-3.323C401.816,408.476,402.775,407.058,404.281,406.987z"/>
		<path style="fill:#92E3A9;" d="M414.43,420.942c-0.034,0.018-0.52-2.479-0.533-2.639c-0.146-1.864,0.668-5.552,2.605-6.347
			c1.395-0.573,2.863,0.306,3.275,1.694c0.421,1.417-0.321,3.079-1.149,4.204C417.656,419.173,414.432,420.94,414.43,420.942z"/>
	</g>
</g>
<g id="Money_Icons">
	<g>
		<path style="fill:none;stroke:#263238;stroke-miterlimit:10;" d="M72.198,185.729v-13.294h23.008v13.294
			c19.939,4.09,30.166,19.429,30.166,43.715v5.624H98.785v-7.413c0-12.783-5.113-17.64-14.06-17.64
			c-8.948,0-14.06,4.856-14.06,17.64c0,36.813,54.963,38.602,54.963,89.732c0,24.285-10.482,39.88-30.421,43.97v13.037H72.198
			v-13.037c-20.196-4.09-30.423-19.686-30.423-43.97v-12.271h26.588v14.06c0,12.782,5.624,17.384,14.572,17.384
			c8.947,0,14.571-4.603,14.571-17.384c0-36.813-54.963-38.602-54.963-89.732C42.543,205.413,52.513,190.075,72.198,185.729z"/>
	</g>
	<g>
		<path style="fill:none;stroke:#263238;stroke-miterlimit:10;" d="M421.193,137.482v-5.426h9.391v5.426
			c8.138,1.67,12.312,7.93,12.312,17.843v2.295h-10.852v-3.026c0-5.217-2.087-7.2-5.738-7.2c-3.652,0-5.739,1.982-5.739,7.2
			c0,15.025,22.433,15.756,22.433,36.624c0,9.912-4.278,16.277-12.417,17.947v5.321h-9.391v-5.321
			c-8.243-1.67-12.417-8.035-12.417-17.947v-5.008h10.852v5.739c0,5.217,2.295,7.096,5.948,7.096c3.652,0,5.947-1.879,5.947-7.096
			c0-15.025-22.433-15.755-22.433-36.624C409.089,145.516,413.158,139.256,421.193,137.482z"/>
	</g>
	<g>
		<path style="fill:none;stroke:#263238;stroke-miterlimit:10;" d="M358.037,363.094v-3.482h6.026v3.482
			c5.222,1.071,7.9,5.088,7.9,11.449v1.473H365v-1.941c0-3.348-1.339-4.62-3.682-4.62c-2.343,0-3.682,1.272-3.682,4.62
			c0,9.641,14.395,10.11,14.395,23.5c0,6.36-2.745,10.444-7.967,11.516v3.414h-6.026v-3.414c-5.289-1.071-7.968-5.155-7.968-11.516
			v-3.214h6.963v3.682c0,3.348,1.473,4.553,3.816,4.553c2.343,0,3.816-1.205,3.816-4.553c0-9.641-14.395-10.109-14.395-23.5
			C350.271,368.249,352.882,364.232,358.037,363.094z"/>
	</g>
	<g>
		<path style="fill:none;stroke:#263238;stroke-miterlimit:10;" d="M242.193,352.482v-5.426h9.391v5.426
			c8.138,1.669,12.312,7.93,12.312,17.842v2.295h-10.852v-3.026c0-5.217-2.087-7.2-5.738-7.2c-3.652,0-5.739,1.982-5.739,7.2
			c0,15.025,22.433,15.755,22.433,36.624c0,9.912-4.278,16.277-12.417,17.947v5.321h-9.391v-5.321
			c-8.243-1.669-12.417-8.035-12.417-17.947v-5.009h10.852v5.739c0,5.217,2.295,7.095,5.948,7.095c3.652,0,5.947-1.879,5.947-7.095
			c0-15.025-22.433-15.755-22.433-36.624C230.089,360.516,234.158,354.256,242.193,352.482z"/>
	</g>
</g>
<g id="Clouds">
	<path style="fill:#FFFFFF;stroke:#263238;stroke-miterlimit:10;" d="M467.782,108.399c0.883-5.012,2.159-17.449-5.407-23.55
		c-9.606-7.747-16.423,6.197-24.789-4.648c-8.366-10.845-10.845-34.395-35.635-34.085c-24.789,0.31-26.649,14.254-26.649,18.902
		c0,4.648-7.437,8.057-8.986,8.057c-1.549,0-10.226-4.028-13.324,4.958c-3.099,8.986-0.998,14.184-5.922,14.374
		c-4.924,0.19-11.04-6.527-17.743-3.168c-6.703,3.358-6.703,10.485-9.492,12.964c-2.789,2.479-7.437-1.859-13.634,0.62
		c-3.755,1.502-4.888,3.91-5.202,5.578H467.782z"/>
	<path style="fill:#FFFFFF;stroke:#263238;stroke-miterlimit:10;" d="M458.659,116.327c0.445-2.528,1.089-8.8-2.727-11.877
		c-4.844-3.907-8.282,3.125-12.502-2.344c-4.219-5.469-5.469-17.346-17.971-17.19c-12.502,0.156-13.439,7.189-13.439,9.533
		c0,2.344-3.751,4.063-4.532,4.063c-0.781,0-5.157-2.032-6.72,2.5c-1.563,4.532-0.503,7.153-2.986,7.249
		c-2.483,0.096-5.568-3.291-8.948-1.598c-3.38,1.694-3.38,5.288-4.787,6.538c-1.406,1.25-3.751-0.938-6.876,0.312
		c-1.894,0.758-2.465,1.972-2.624,2.813H458.659z"/>
	<path style="fill:#FFFFFF;stroke:#263238;stroke-miterlimit:10;" d="M175.675,64.979c0.425-2.413,1.039-8.401-2.603-11.338
		c-4.625-3.73-7.907,2.984-11.935-2.238c-4.028-5.221-5.221-16.559-17.156-16.41c-11.935,0.149-12.83,6.862-12.83,9.1
		s-3.58,3.879-4.326,3.879c-0.746,0-4.923-1.939-6.415,2.387c-1.492,4.326-0.48,6.829-2.851,6.92
		c-2.37,0.091-5.315-3.142-8.542-1.525c-3.227,1.617-3.227,5.048-4.57,6.241c-1.343,1.194-3.58-0.895-6.564,0.298
		c-1.808,0.723-2.353,1.882-2.505,2.685H175.675z"/>
	<path style="fill:#FFFFFF;stroke:#263238;stroke-miterlimit:10;" d="M92.808,121.705c0.251-1.425,0.614-4.962-1.537-6.697
		c-2.732-2.203-4.67,1.762-7.049-1.322c-2.379-3.084-3.084-9.781-10.133-9.693c-7.049,0.088-7.578,4.053-7.578,5.375
		c0,1.322-2.115,2.291-2.555,2.291c-0.441,0-2.908-1.146-3.789,1.41c-0.881,2.556-0.284,4.034-1.684,4.088s-3.139-1.856-5.045-0.901
		c-1.906,0.955-1.906,2.982-2.699,3.687c-0.793,0.705-2.115-0.529-3.877,0.176c-1.068,0.427-1.39,1.112-1.479,1.586H92.808z"/>
</g>
<g id="Character">
	<g>
		<path style="fill:#263238;stroke:#263238;stroke-miterlimit:10;" d="M380.724,309.862c0,0,6.358-2.244,9.724-2.244
			c3.366,0,6.732,1.87,6.732,1.87l0.374,8.602l-4.114,1.496c0,0-0.374,3.74,1.122,4.862c1.496,1.122,2.244,3.366,2.246,3.371
			c2.002,6.03-2.868,14.329-5.768,19.298c-4.711,8.072-7.892,9.047-9.372-1.292c-0.585-4.085-1.203-8.659-0.57-12.776
			c0.748-4.862-1.122-8.228-1.122-8.228l-1.87-13.091L380.724,309.862z"/>
		<path style="fill:#263238;stroke:#263238;stroke-miterlimit:10;" d="M282.731,269.469c0,0,17.579,58.347,19.449,63.957
			c1.87,5.61,4.862,10.473,4.862,10.473l74.803-15.709l-1.122-18.327l-52.736,1.122l2.992-45.256l-48.996,1.122L282.731,269.469z"/>
		<g>
			<path style="fill:#92E3A9;stroke:#263238;stroke-miterlimit:10;" d="M245.891,218.041c0,0,5.049,7.293,8.976,10.098
				c3.927,2.805,11.782-3.366,11.782-3.366l-14.026-39.272C252.623,185.502,246.452,209.626,245.891,218.041z"/>
			<path style="fill:#FFFFFF;stroke:#263238;stroke-miterlimit:10;" d="M249.07,185.315l12.342,41.89c0,0,0.374,4.862,8.228,7.48
				s47.5,4.488,53.11,3.366c5.61-1.122,10.473-7.48,8.602-10.473c-1.87-2.992-13.091-29.547-13.091-29.547l-2.244-44.134
				c0,0-14.213-9.724-20.945-10.098c-6.732-0.374-19.075,1.496-20.197,1.496c-1.122,0-23.563,4.114-24.311,11.594
				C249.818,164.37,249.07,185.315,249.07,185.315z"/>
			<path style="fill:#FFFFFF;stroke:#263238;stroke-miterlimit:10;" d="M267.15,168.809l-6.585,12.411l-3.546-16.21l2.533-10.385
				l18.49-13.424l4.873-0.312c0,0,2.219,1.832,3.485,5.378c1.266,3.546,1.013,6.585,1.266,7.599
				c0.253,1.013-5.319,27.861-5.319,27.861L267.15,168.809z"/>
		</g>
		<g>
			<path style="fill:#92E3A9;stroke:#263238;stroke-miterlimit:10;" d="M262.16,152.401c0,0-9.351,34.41-10.473,45.256
				c-1.122,10.847-0.748,29.547-0.748,29.547s-8.976-7.854-10.098-13.465c-1.122-5.61-0.374-23.937-1.122-25.807
				c-0.748-1.87-7.48-7.106-7.48-7.106s-23.189,9.35-25.807,11.22s-10.473,7.854-16.083,5.984c-5.61-1.87-11.674-9.724-8.488-18.327
				c2.269-6.125,23.075-10.846,23.075-10.846l19.823-10.472c0,0,11.22-15.335,15.709-17.579S262.16,152.401,262.16,152.401z"/>
			<path style="fill:none;stroke:#263238;stroke-miterlimit:10;" d="M208.026,179.066c0.767,0.808,1.492,1.761,2.146,2.883"/>
			<path style="fill:none;stroke:#263238;stroke-miterlimit:10;" d="M195.211,174.842c0,0,6.247-1.201,11.424,2.944"/>
			<path style="fill:#92E3A9;stroke:#263238;stroke-miterlimit:10;" d="M262.16,152.401c0,0-2.52-2.025-5.879-4.4l-9.082,15.621
				l2.618,5.984l-4.488,7.854l5.236,43.386l0.317,0.594c-0.021-6.396,0.077-16.742,0.805-23.783
				C252.81,186.811,262.16,152.401,262.16,152.401z"/>
			<line style="fill:none;stroke:#263238;stroke-miterlimit:10;" x1="225.339" y1="173.639" x2="223.263" y2="171.476"/>
			<line style="fill:none;stroke:#263238;stroke-miterlimit:10;" x1="232.239" y1="180.827" x2="227.596" y2="175.99"/>
		</g>
		<g>
			<path style="fill:#FFFFFF;stroke:#263238;stroke-miterlimit:10;" d="M248.11,103.636c0,0-5.463,13.007-4.942,14.567
				c0.52,1.561-2.341,5.983-2.081,9.365c0.26,3.382-1.301,19.77-0.26,21.071c1.041,1.301,0.78,1.561,4.162,1.821
				c3.382,0.26,10.405,0.26,10.405,0.26l13.267,21.591l13.007-25.493l0.78-5.203c0,0,7.284-11.186,8.064-14.827
				s2.081-16.128-0.78-20.55c-2.861-4.422-9.625-10.405-19.51-12.746c-9.885-2.341-17.949,0.78-17.949,0.78s2.081-5.463-1.301-3.382
				C247.589,92.971,245.768,101.555,248.11,103.636z"/>
			<path style="fill:none;stroke:#263238;stroke-miterlimit:10;" d="M243.98,115.381c0,0,2.048,0.221,4.389,2.823"/>
			<polyline style="fill:none;stroke:#263238;stroke-miterlimit:10;" points="249.41,120.285 244.468,133.811 249.41,134.332 			"/>
			<path style="fill:#263238;" d="M258.763,123.834c-0.186,1.28-0.855,2.242-1.495,2.149c-0.64-0.093-1.008-1.205-0.822-2.485
				c0.186-1.28,0.855-2.242,1.495-2.149C258.58,121.442,258.948,122.555,258.763,123.834z"/>
			<path style="fill:#263238;" d="M246.28,121.727c-0.157,1.284-0.804,2.26-1.446,2.182c-0.642-0.078-1.035-1.182-0.878-2.466
				c0.157-1.283,0.804-2.26,1.446-2.182C246.043,119.34,246.437,120.444,246.28,121.727z"/>
			<polygon style="fill:#263238;stroke:#263238;stroke-miterlimit:10;" points="255.393,150.72 268.4,148.379 273.342,142.916 
				263.457,163.206 			"/>
			<path style="fill:none;stroke:#263238;stroke-miterlimit:10;" d="M252.91,119.058c0,0,5.605-2.415,11.068-0.334"/>
			<line style="fill:none;stroke:#263238;stroke-miterlimit:10;" x1="244.988" y1="137.193" x2="250.191" y2="137.713"/>
			<line style="fill:none;stroke:#263238;stroke-miterlimit:10;" x1="255.393" y1="127.568" x2="260.076" y2="127.828"/>
			<line style="fill:none;stroke:#263238;stroke-miterlimit:10;" x1="244.988" y1="125.227" x2="242.907" y2="124.447"/>
		</g>
		<path style="fill:#263238;stroke:#263238;stroke-miterlimit:10;" d="M290.511,126.788c0.78-3.642,2.081-16.128-0.78-20.55
			c-2.861-4.422-9.625-10.405-19.51-12.747c-9.885-2.341-17.949,0.781-17.949,0.781s2.081-5.463-1.301-3.382
			c-3.382,2.081-5.203,10.665-2.862,12.746c0,0,4.422,4.682,6.763,4.682s9.365-1.041,13.007-1.041c3.642,0,5.203,2.341,5.463,3.642
			c0.26,1.301-4.682,5.983-3.902,8.584c0.78,2.601,4.943,2.861,4.943,2.861s-2.601,8.324-0.78,8.324c1.821,0,2.341,0.78,3.122-1.301
			c0.78-2.081,4.162-6.243,5.723-4.422c1.561,1.821,1.301,6.763,0.52,8.845c-0.78,2.081-5.723,2.601-5.723,3.382
			c0,0.78,4.162,4.162,4.162,4.162s0.611-0.181,1.508-0.466C284.534,138.353,289.851,129.87,290.511,126.788z"/>
		<g>
			<path style="fill:#FFFFFF;stroke:#263238;stroke-miterlimit:10;" d="M211.334,188.626c0,0,3.664,4.939,4.461,6.213
				c0.797,1.274,0.478,2.868,0.319,3.505c-0.159,0.637-5.895,3.505-7.488,4.142c-1.593,0.637-1.434-3.505-0.319-4.62
				c1.115-1.115,2.071-4.301,2.071-4.301s-0.797-4.301-0.797-5.257S211.334,188.626,211.334,188.626z"/>
			<path style="fill:#FFFFFF;stroke:#263238;stroke-miterlimit:10;" d="M207.928,182.697c0,0-16.083,7.48-16.083,9.724
				c0,2.244,0.748,7.106,2.992,8.602c2.244,1.496,17.205-2.992,17.953-5.236S210.172,182.323,207.928,182.697z"/>
			<path style="fill:none;stroke:#263238;stroke-miterlimit:10;" d="M204.006,184.962c0,0,4.142,7.329,5.098,12.745"/>
			<path style="fill:none;stroke:#263238;stroke-miterlimit:10;" d="M198.908,187.511c0,0,4.142,7.488,5.257,11.949"/>
			<path style="fill:none;stroke:#263238;stroke-miterlimit:10;" d="M194.288,190.06c0,0,3.505,7.966,4.62,10.515"/>
		</g>
		<g>
			
				<rect x="372.121" y="238.799" transform="matrix(0.9705 -0.241 0.241 0.9705 -48.2101 100.325)" style="fill:none;stroke:#263238;stroke-width:3;stroke-miterlimit:10;" width="27.677" height="16.831"/>
			<path style="fill:#A6A6A6;stroke:#263238;stroke-miterlimit:10;" d="M438.516,298.371l-78.342,18.295
				c-3.223,0.753-6.446-1.25-7.199-4.473l-10.953-46.901c-0.753-3.223,1.25-6.446,4.473-7.199l78.342-18.295
				c3.223-0.753,6.446,1.25,7.199,4.473l10.953,46.901C443.741,294.395,441.739,297.618,438.516,298.371z"/>
		</g>
		<polygon style="fill:#FFFFFF;stroke:#263238;stroke-miterlimit:10;" points="379.602,227.579 375.487,239.173 379.602,249.646 
			386.334,249.272 387.082,246.654 394.936,240.669 391.57,225.335 		"/>
		<polygon style="fill:#FFFFFF;stroke:#263238;stroke-miterlimit:10;" points="375.113,222.717 378.106,230.197 391.57,225.335 
			388.952,218.602 		"/>
		<g>
			<rect x="196.54" y="457.044" style="fill:#FFFFFF;stroke:#263238;stroke-miterlimit:10;" width="210.649" height="7.056"/>
			<rect x="325.463" y="305.424" style="fill:#FFFFFF;stroke:#263238;stroke-miterlimit:10;" width="5.7" height="156.469"/>
			<rect x="108.45" y="284.803" style="fill:#FFFFFF;stroke:#263238;stroke-miterlimit:10;" width="238.049" height="21.024"/>
			<rect x="104.115" y="284.803" style="fill:#FFFFFF;stroke:#263238;stroke-miterlimit:10;" width="238.049" height="21.024"/>
			<g>
				<rect x="190.349" y="284.803" style="fill:#92E3A9;stroke:#263238;stroke-miterlimit:10;" width="13.465" height="21.024"/>
				<rect x="134.246" y="284.803" style="fill:#92E3A9;stroke:#263238;stroke-miterlimit:10;" width="13.465" height="21.024"/>
				<rect x="246.452" y="284.803" style="fill:#92E3A9;stroke:#263238;stroke-miterlimit:10;" width="13.465" height="21.024"/>
				<rect x="302.554" y="284.803" style="fill:#92E3A9;stroke:#263238;stroke-miterlimit:10;" width="13.465" height="21.024"/>
			</g>
			<polygon style="fill:#263238;stroke:#263238;stroke-miterlimit:10;" points="334.209,308.249 322.417,308.249 323.596,292.907 
				333.03,292.907 			"/>
			<rect x="121.363" y="305.424" style="fill:#FFFFFF;stroke:#263238;stroke-miterlimit:10;" width="5.7" height="156.469"/>
			<rect x="120.918" y="457.044" style="fill:#FFFFFF;stroke:#263238;stroke-miterlimit:10;" width="210.649" height="7.056"/>
			<polygon style="fill:#263238;stroke:#263238;stroke-miterlimit:10;" points="130.109,308.249 118.317,308.249 119.496,292.907 
				128.929,292.907 			"/>
		</g>
		<g>
			<path style="fill:#263238;stroke:#263238;stroke-miterlimit:10;" d="M189.04,305.187l-2.992,4.862c0,0-36.28-7.48-35.906-3.74
				c0.374,3.74,16.457,14.961,22.441,19.075c5.984,4.114,11.221,6.358,11.221,6.358l-1.122,1.87l8.976,5.984
				c0,0,5.984-5.61,7.854-10.098c1.87-4.488,1.496-13.839,1.496-13.839L189.04,305.187z"/>
			<path style="fill:#263238;stroke:#263238;stroke-miterlimit:10;" d="M332.102,235.807l-20.197-0.374
				c0,0-35.532-7.48-51.988-10.846c-16.457-3.366-29.547-4.114-31.417-2.244c-1.87,1.87-42.077,84.341-42.077,84.341l16.831,12.717
				l43.76-64.331c0,0,40.955,23.75,60.03,23.75s25.807-4.862,30.669-16.457c4.862-11.594,1.496-23.563,1.496-23.563L332.102,235.807
				z"/>
		</g>
		<g>
			<path style="fill:#92E3A9;stroke:#263238;stroke-miterlimit:10;" d="M285.723,142.303c0,0,5.984,51.988,8.228,61.713
				c2.244,9.725,5.984,15.709,7.48,16.831c1.496,1.122,34.784,17.205,34.784,17.205s-11.969-28.799-11.221-30.669
				c0.748-1.87,0.374-29.547,0.374-29.547l30.669,4.114l17.579,43.386l16.831-5.984l-17.27-53.501
				c-1.139-3.53-3.842-6.337-7.326-7.609l-37.491-13.693l-8.189-4.914c-1.961-1.177-4.267-1.642-6.53-1.319L285.723,142.303z"/>
			<polyline style="fill:none;stroke:#263238;stroke-miterlimit:10;" points="313.851,175.674 325.369,177.835 315.271,179.935 			
				"/>
			<path style="fill:none;stroke:#263238;stroke-miterlimit:10;" d="M319.532,141.588c0,0-3.551,4.616-2.13,10.297
				c1.42,5.681,1.42-3.196,5.326-7.101"/>
			<path style="fill:#92E3A9;stroke:#263238;stroke-miterlimit:10;" d="M292.082,169.232l9.35-5.984l-6.835-22.213l-8.874,1.268
				c0,0,5.984,51.988,8.228,61.713c2.244,9.724,5.984,15.709,7.48,16.831l0.748-47.5L292.082,169.232z"/>
			<path style="fill:#92E3A9;stroke:#263238;stroke-miterlimit:10;" d="M304.05,223.091c0,0,56.103,3.366,59.469,3.366
				c3.366,0,1.87,3.74,0,10.473c-1.87,6.732-8.228,14.587-8.228,14.587L304.05,223.091z"/>
		</g>
		<path style="fill:#263238;stroke:#263238;stroke-miterlimit:10;" d="M341.187,196.559c0,0-26.152,3.404-35.361,4.924
			c-9.21,1.52-23.792-6.079-26.094-8.865c-2.302-2.786-5.372-8.358-5.372-8.358l2.12-7.521l-9.329-7.93l-3.222,6.072l7.105,9.379
			c0,0,2.302,14.69,13.559,22.542c11.256,7.852,13.815,9.372,27.885,6.079c14.07-3.293,32.803-2.391,32.803-2.391l5.372-9.118
			L341.187,196.559z"/>
	</g>
</g>
<g id="Speech_Bubble">
	<g>
		
			<ellipse transform="matrix(0.9186 -0.3952 0.3952 0.9186 -28.8434 79.2701)" style="fill:#FFFFFF;stroke:#263238;stroke-miterlimit:10;" cx="178" cy="109.65" rx="36.658" ry="36.658"/>
		<g>
			<path style="fill:#263238;" d="M175.863,86.59v-3.534h6.117v3.534c5.301,1.087,8.02,5.165,8.02,11.622v1.495h-7.068v-1.971
				c0-3.398-1.359-4.689-3.738-4.689c-2.379,0-3.738,1.291-3.738,4.689c0,9.787,14.612,10.262,14.612,23.855
				c0,6.456-2.787,10.602-8.087,11.689v3.466h-6.117v-3.466c-5.369-1.087-8.088-5.233-8.088-11.689v-3.262h7.068v3.738
				c0,3.398,1.495,4.622,3.874,4.622c2.378,0,3.874-1.224,3.874-4.622c0-9.787-14.612-10.262-14.612-23.855
				C167.979,91.823,170.63,87.746,175.863,86.59z"/>
		</g>
		<path style="fill:#FFFFFF;stroke:#263238;stroke-miterlimit:10;" d="M224.615,111.687c0,2.125-1.52,3.847-3.394,3.847
			c-1.875,0-3.394-1.722-3.394-3.847c0-2.124,1.52-3.847,3.394-3.847C223.095,107.84,224.615,109.562,224.615,111.687z"/>
		<path style="fill:#FFFFFF;stroke:#263238;stroke-miterlimit:10;" d="M232.308,113.497c0,1.625-1.216,2.942-2.715,2.942
			c-1.5,0-2.715-1.317-2.715-2.942c0-1.625,1.216-2.942,2.715-2.942C231.093,110.555,232.308,111.872,232.308,113.497z"/>
	</g>
</g>
<g id="Floor">
	<g>
		<line style="fill:none;stroke:#263238;stroke-miterlimit:10;" x1="454" y1="464.504" x2="485" y2="464.504"/>
		<line style="fill:none;stroke:#263238;stroke-miterlimit:10;" x1="21" y1="464.504" x2="445" y2="464.504"/>
	</g>
</g>
</svg>
