<?xml version="1.0" encoding="utf-8"?>
<!-- Generator: Adobe Illustrator 27.5.0, SVG Export Plug-In . SVG Version: 6.00 Build 0)  -->
<svg version="1.1" xmlns="http://www.w3.org/2000/svg" xmlns:xlink="http://www.w3.org/1999/xlink" x="0px" y="0px"
	 viewBox="0 0 500 500" style="enable-background:new 0 0 500 500;" xml:space="preserve">
<g id="Background_Simple">
	<g>
		<path style="fill:#C6FF00;" d="M170.612,90.696c0,0-67.641,33.353-101.235,85.038c-33.594,51.685-30.642,118.295,10.646,167.96
			c41.288,49.664,119.78,43.459,185.648,75.063c65.869,31.605,138.387,25.45,169.194-40.831s-16.163-91.275-24.539-168.15
			C401.951,132.901,330.344,20.09,170.612,90.696z"/>
		<path style="opacity:0.7;fill:#FFFFFF;" d="M170.612,90.696c0,0-67.641,33.353-101.235,85.038
			c-33.594,51.685-30.642,118.295,10.646,167.96c41.288,49.664,119.78,43.459,185.648,75.063
			c65.869,31.605,138.387,25.45,169.194-40.831s-16.163-91.275-24.539-168.15C401.951,132.901,330.344,20.09,170.612,90.696z"/>
	</g>
</g>
<g id="Money_Symbol">
	<g>
		<g>
			<path style="fill:#FFFFFF;stroke:#263238;stroke-linecap:round;stroke-linejoin:round;stroke-miterlimit:10;" d="
				M161.934,397.725l-28.129,16.138l-14.409-25.113l27.375-15.706c-12.757-25.728-18.66-54.053-15.787-74.061l38.565-3.767
				c-2.088,17.889,1.506,39.861,10.123,58.952l41.941-24.063c-9.213-31.767-17.788-68.241,18.126-88.846
				c26.621-15.273,60.57-9.046,87.858,28.041l27.877-15.994l14.408,25.114l-27.374,15.706c9.299,19.701,14.795,40.916,13.93,59.772
				l-38.095,5.166c-0.065-16.987-3.288-32.496-8.986-45.918l-42.694,24.495c9.464,31.625,17.751,67.594-17.661,87.911
				C222.881,440.536,189.328,434.417,161.934,397.725z M222.789,386.846c8.79-5.043,9.383-15.064,6.954-28.024l-34.658,19.885
				C205.052,389.679,214.752,391.457,222.789,386.846z M258.531,308.924l35.663-20.46c-10.651-11.582-20.96-12.678-29.248-7.923
				C256.156,285.584,255.708,295.856,258.531,308.924z"/>
		</g>
		<polygon style="fill:#FFFFFF;stroke:#263238;stroke-linecap:round;stroke-linejoin:round;stroke-miterlimit:10;" points="
			118.864,411.711 133.806,413.863 164.495,397.099 146.992,395.573 		"/>
		<polygon style="fill:#FFFFFF;stroke:#263238;stroke-linecap:round;stroke-linejoin:round;stroke-miterlimit:10;" points="
			195.085,378.706 180.143,376.554 214.801,356.669 227.54,361.251 		"/>
		<polygon style="fill:#FFFFFF;stroke:#263238;stroke-linecap:round;stroke-linejoin:round;stroke-miterlimit:10;" points="
			251.72,335.488 266.662,337.641 305.78,315.448 299.274,307.225 294.414,310.993 		"/>
		<g>
			<path style="fill:#263238;stroke:#263238;stroke-linecap:round;stroke-linejoin:round;stroke-miterlimit:10;" d="
				M146.992,395.573l-28.129,16.138l-14.409-25.113l27.375-15.706c-12.757-25.728-18.66-54.053-15.787-74.061l38.565-3.767
				c-2.088,17.889,1.506,39.862,10.123,58.952l41.941-24.063c-9.213-31.767-17.788-68.241,18.126-88.846
				c26.621-15.273,60.57-9.046,87.858,28.041l27.877-15.994l14.408,25.114l-27.374,15.705c9.299,19.701,14.795,40.916,13.929,59.772
				l-38.095,5.165c-0.065-16.987-3.288-32.496-8.986-45.918l-42.694,24.495c9.464,31.625,17.751,67.594-17.661,87.911
				C207.939,438.384,174.386,432.265,146.992,395.573z M207.847,384.694c8.79-5.043,9.383-15.064,6.954-28.024l-34.658,19.885
				C190.11,387.527,199.81,389.305,207.847,384.694z M243.59,306.772l35.663-20.46c-10.651-11.582-20.96-12.677-29.248-7.922
				C241.215,283.432,240.766,293.704,243.59,306.772z"/>
		</g>
		<polygon style="fill:#FFFFFF;stroke:#263238;stroke-linecap:round;stroke-linejoin:round;stroke-miterlimit:10;" points="
			340.532,251.154 355.474,253.306 369.882,278.42 354.94,276.268 		"/>
		<polygon style="fill:#FFFFFF;stroke:#263238;stroke-linecap:round;stroke-linejoin:round;stroke-miterlimit:10;" points="
			342.508,294.126 327.566,291.974 354.94,276.268 369.882,278.42 		"/>
		<polygon style="fill:#FFFFFF;stroke:#263238;stroke-linecap:round;stroke-linejoin:round;stroke-miterlimit:10;" points="
			303.4,356.911 318.342,359.063 356.437,353.898 341.495,351.746 		"/>
		<path style="fill:#FFFFFF;stroke:#263238;stroke-linecap:round;stroke-linejoin:round;stroke-miterlimit:10;" d="M154.608,293.063
			l14.942,2.152c0,0-2.927,25.285,6.904,49.773l-11.723,7.028C164.731,352.016,152.263,330.566,154.608,293.063z"/>
	</g>
</g>
<g id="Clouds">
	<g>
		<path style="fill:none;stroke:#263238;stroke-miterlimit:10;" d="M158.923,225.296c-2.875-1.568-4.182-0.261-5.227-1.568
			c-1.045-1.307,2.875-4.704-4.966-8.102c0,0-0.523-7.317-11.238-7.579c-10.715-0.261-7.84,7.318-10.715,9.147
			c-2.875,1.829-3.659-1.045-6.534,0.784c-2.875,1.829-1.568,5.489-3.92,6.011c-2.352,0.523-5.488-2.352-8.363-0.523
			c-2.875,1.829-2.875,3.397-4.181,3.397c-1.307,0-3.92-1.045-5.488,0c-1.568,1.045-3.397,2.352-3.397,2.352h66.121
			C161.013,229.216,161.797,226.864,158.923,225.296z"/>
	</g>
	<g>
		<path style="fill:none;stroke:#263238;stroke-miterlimit:10;" d="M395.923,231.296c-2.875-1.568-4.181-0.261-5.227-1.568
			c-1.045-1.307,2.875-4.704-4.966-8.102c0,0-0.523-7.317-11.238-7.579c-10.715-0.261-7.84,7.318-10.715,9.147
			c-2.875,1.829-3.659-1.045-6.534,0.784c-2.875,1.829-1.568,5.489-3.92,6.011c-2.352,0.523-5.488-2.352-8.363-0.523
			c-2.875,1.829-2.875,3.397-4.181,3.397c-1.307,0-3.92-1.045-5.488,0c-1.568,1.045-3.397,2.352-3.397,2.352h66.121
			C398.013,235.216,398.797,232.864,395.923,231.296z"/>
	</g>
	<g>
		<path style="fill:none;stroke:#263238;stroke-miterlimit:10;" d="M238.117,125.417c-6.561-3.578-9.542-0.596-11.928-3.578
			c-2.385-2.982,6.56-10.735-11.331-18.489c0,0-1.193-16.699-25.645-17.295c-24.452-0.596-17.892,16.699-24.452,20.874
			c-6.561,4.175-8.349-2.385-14.91,1.789c-6.561,4.175-3.579,12.525-8.946,13.717c-5.367,1.193-12.524-5.367-19.085-1.193
			c-6.56,4.174-6.56,7.753-9.542,7.753c-2.982,0-8.946-2.385-12.524,0c-3.578,2.386-7.753,5.368-7.753,5.368h150.888
			C242.888,134.364,244.677,128.996,238.117,125.417z"/>
	</g>
</g>
<g id="Sea">
	<g>
		<g style="opacity:0.43;">
			<path style="fill:#C6FF00;" d="M460,445V330.597c-6.666-1.415-8.776-4.77-18.765-4.77c-12.657,0-12.657,5.39-25.313,5.39
				c-12.656,0-12.656-5.39-25.312-5.39c-12.655,0-12.655,5.39-25.31,5.39c-12.657,0-12.657-5.39-25.314-5.39
				c-12.655,0-12.655,5.39-25.31,5.39c-12.656,0-12.656-5.39-25.313-5.39c-12.656,0-12.656,5.39-25.312,5.39
				c-12.657,0-12.657-5.39-25.313-5.39c-12.656,0-12.656,5.39-25.312,5.39c-12.657,0-12.657-5.39-25.314-5.39
				c-12.656,0-12.656,5.39-25.312,5.39c-12.655,0-12.655-5.39-25.311-5.39c-12.655,0-12.655,5.39-25.31,5.39
				c-12.655,0-12.655-5.39-25.31-5.39c-12.655,0-12.655,5.39-25.31,5.39c-7.201,0-10.305-1.744-13.974-3.248V445H460z"/>
			<path style="fill:#C6FF00;" d="M460,445V330.597c-6.666-1.415-8.776-4.77-18.765-4.77c-12.657,0-12.657,5.39-25.313,5.39
				c-12.656,0-12.656-5.39-25.312-5.39c-12.655,0-12.655,5.39-25.31,5.39c-12.657,0-12.657-5.39-25.314-5.39
				c-12.655,0-12.655,5.39-25.31,5.39c-12.656,0-12.656-5.39-25.313-5.39c-12.656,0-12.656,5.39-25.312,5.39
				c-12.657,0-12.657-5.39-25.313-5.39c-12.656,0-12.656,5.39-25.312,5.39c-12.657,0-12.657-5.39-25.314-5.39
				c-12.656,0-12.656,5.39-25.312,5.39c-12.655,0-12.655-5.39-25.311-5.39c-12.655,0-12.655,5.39-25.31,5.39
				c-12.655,0-12.655-5.39-25.31-5.39c-12.655,0-12.655,5.39-25.31,5.39c-7.201,0-10.305-1.744-13.974-3.248V445H460z"/>
		</g>
		<g>
			<path style="fill:none;stroke:#263238;stroke-width:2;stroke-miterlimit:10;" d="M460,330.597
				c-6.666-1.415-8.776-4.77-18.765-4.77c-12.657,0-12.657,5.39-25.313,5.39c-12.656,0-12.656-5.39-25.312-5.39
				c-12.655,0-12.655,5.39-25.31,5.39c-12.657,0-12.657-5.39-25.314-5.39c-12.655,0-12.655,5.39-25.31,5.39
				c-12.656,0-12.656-5.39-25.313-5.39c-12.656,0-12.656,5.39-25.312,5.39c-12.657,0-12.657-5.39-25.313-5.39
				c-12.656,0-12.656,5.39-25.312,5.39c-12.657,0-12.657-5.39-25.314-5.39c-12.656,0-12.656,5.39-25.312,5.39
				c-12.655,0-12.655-5.39-25.311-5.39c-12.655,0-12.655,5.39-25.31,5.39c-12.655,0-12.655-5.39-25.31-5.39
				c-12.655,0-12.655,5.39-25.31,5.39c-7.201,0-10.305-1.744-13.974-3.248"/>
		</g>
	</g>
</g>
<g id="Character">
	<g>
		<path style="fill:#263238;stroke:#263238;stroke-linecap:round;stroke-linejoin:round;stroke-miterlimit:10;" d="M279.663,145.617
			c0,0,22.145,29.254,23.624,32.712c1.479,3.458-1.958,6.652-3.751,7.833c-1.793,1.181-5.827,1.045-9.477-1.738
			c-3.65-2.782-18.382-21.049-18.382-21.049s-1.585-12.032,0.593-15.86C274.448,143.688,277.223,143.19,279.663,145.617z"/>
		<path style="fill:#263238;stroke:#263238;stroke-linecap:round;stroke-linejoin:round;stroke-miterlimit:10;" d="M307.566,235.655
			c0,0-0.212,12.851,0.589,14.767c0.801,1.916,3.984,1.802,5.536,1.524c1.552-0.278,6.048-2,7.679-1.835
			c1.631,0.165,13.11-0.221,15.795-1.844c2.357-1.425,3.175-2.604-0.09-3.718c-3.23-1.102-9.054-1.171-12.322-2.367
			c-2.938-1.075-7.234-7.169-7.234-7.169L307.566,235.655z"/>
		<path style="fill:#C6FF00;stroke:#263238;stroke-linecap:round;stroke-linejoin:round;stroke-miterlimit:10;" d="M281.49,189.764
			c0,0,29.2-13.245,33.503-9.669c4.302,3.576,8.608,55.658,8.608,55.658l-17.069,3.061l-6.848-42.016
			c0,0-19.09,22.414-29.538,27.949c-10.448,5.534-14.478,6.028-23.628-0.339s-3.686-16.728-3.686-16.728L281.49,189.764z"/>
		<path style="fill:#263238;stroke:#263238;stroke-linecap:round;stroke-linejoin:round;stroke-miterlimit:10;" d="M275.878,146.869
			c0,0,4.267,32.841,5.88,40.56c1.613,7.719,4.062,11.169,4.062,11.169s-8.344,1.954-11.772,3.255c-3.428,1.301-6.048,2-6.048,2
			s1.547-6.684,1.571-16.756C269.596,177.025,275.878,146.869,275.878,146.869z"/>
		<path style="fill:#263238;stroke:#263238;stroke-linecap:round;stroke-linejoin:round;stroke-miterlimit:10;" d="M295.75,157.005
			l0.069-3.444c0,0,9.271-1.891,9.743-5.637c0.472-3.746,0.223-8.964,0.223-8.964s-4.349,7.644-6.811,9.23
			c-2.461,1.585-4.593-0.092-6.656,3.71c-2.064,3.802-1.064,6.826-1.064,6.826l-2.643,1.847c0,0,6.801,20.059,7.42,22.237
			c0.619,2.177,0.534,4.252,5.814,3.076c5.281-1.176,6.759-4.415,5.236-7.803c-1.523-3.388-9.375-21.657-9.375-21.657
			L295.75,157.005z"/>
		<polygon style="fill:#FFFFFF;stroke:#263238;stroke-linecap:round;stroke-linejoin:round;stroke-miterlimit:10;" points="
			280.524,144.031 283.988,150.57 283.269,156.141 277.543,146.57 		"/>
		<path style="fill:#FFFFFF;stroke:#263238;stroke-linecap:round;stroke-linejoin:round;stroke-miterlimit:10;" d="M281.508,149.033
			c0,0,0.701,7.584-0.532,16.684c-1.232,9.1-2.75,21.402-2.331,25.336c0.419,3.935,0.929,7.812-2.5,9.736
			c-3.429,1.924-27.864,12.607-35.812,14.605c-7.948,1.998-7.556-3.801-7.904-5.743c-0.348-1.943,1.762-30.104,8.986-45.72
			c0,0,6.926-17.282,15.187-23.919c8.262-6.637,15.142-5.007,19.852-2.701C281.165,139.619,281.508,149.033,281.508,149.033z"/>
		<path style="fill:#FFFFFF;stroke:#263238;stroke-linecap:round;stroke-linejoin:round;stroke-miterlimit:10;" d="M280.904,123.973
			l-8.84,6.848l5.698,17.74c0,0,3.149-2.853,4.258-3.052c1.108-0.199,4.354-1.238,4.354-1.238s4.533-16.829,3.738-21.263
			C289.317,118.575,280.904,123.973,280.904,123.973z"/>
		<polygon style="fill:#FFFFFF;stroke:#263238;stroke-linecap:round;stroke-linejoin:round;stroke-miterlimit:10;" points="
			273.235,129.695 281.508,149.033 279.239,154.245 269.546,130.815 		"/>
		<path style="fill:#FFFFFF;stroke:#263238;stroke-linecap:round;stroke-linejoin:round;stroke-miterlimit:10;" d="M311.647,239.27
			c0,0,0.379,9.771-0.633,11.783c-1.012,2.012,1.523,3.388,5.229,3.639c3.706,0.251,9.225,0.405,13.272,1.281
			c4.047,0.876,12.01-1.925,12.619-3.636c0.608-1.711-1.728-1.978-8.104-5.64c-6.377-3.661-9.872-7.84-11.639-10.04
			c-1.767-2.2-2.409-3.229-2.409-3.229L311.647,239.27z"/>
		<g>
			<path style="fill:#263238;stroke:#263238;stroke-linecap:round;stroke-linejoin:round;stroke-miterlimit:10;" d="
				M334.029,246.697c-5.225-3-8.513-6.346-10.504-8.667c-0.543,0.244-1.026,0.708-1.062,1.589c-0.086,2.075,0.09,4.331,0.09,4.331
				l-10.844,0.476c-0.032,2.689-0.191,5.623-0.696,6.627c-1.012,2.012,1.523,3.388,5.229,3.639
				c3.706,0.251,9.225,0.405,13.272,1.281c4.047,0.876,12.01-1.925,12.619-3.636C342.742,250.626,340.406,250.358,334.029,246.697z"
				/>
			<g>
				<path style="fill:#C6FF00;stroke:#263238;stroke-linecap:round;stroke-linejoin:round;stroke-miterlimit:10;" d="
					M233.406,215.09c0,0,1.289,8.464,4.761,13.79c3.472,5.326,10.236,7.317,24.207,2.294c13.972-5.022,24.733-15.189,27.479-17.741
					c2.746-2.552,7.612-7.314,7.612-7.314s0.46,1.29,1.125,1.171c0.665-0.119,1.955-0.579,1.955-0.579l9.964,36.424l18.213-9.444
					c0,0-17.87-40.955-19.313-43.9c-1.443-2.945-1.358-5.019-6.132-4.849c-4.774,0.17-46.646,21.864-49.408,23.046
					c-2.763,1.182-7.247-2.133-11.68-1.338C237.755,207.446,233.452,212.794,233.406,215.09z"/>
				
					<line style="fill:#FFFFFF;stroke:#263238;stroke-linecap:round;stroke-linejoin:round;stroke-miterlimit:10;" x1="297.465" y1="206.119" x2="303.36" y2="200.715"/>
			</g>
		</g>
		<path style="fill:#263238;stroke:#263238;stroke-linecap:round;stroke-linejoin:round;stroke-miterlimit:10;" d="M271.24,130.053
			c0,0,6.267,15.808,6.311,22.435c0.044,6.628-2.745,35.729-2.695,39.838c0.051,4.109-0.439,5.5-0.439,5.5
			s-8.568,8.124-22.672,22.11c-3.891,3.858-7.194,3.008-7.194,3.008l-2.028-13.152l0.295,13.691c0,0-3.089,1.354-7.801,0.597
			c-4.712-0.757-10.637-1.816-10.637-1.816s6.612-21.031,7.639-30.871c2.53-24.227,4.83-31.26,12.437-44.048
			C250.179,137.729,261.708,131.763,271.24,130.053z"/>
		<g>
			<path style="fill:#FFFFFF;stroke:#263238;stroke-linecap:round;stroke-linejoin:round;stroke-miterlimit:10;" d="
				M310.759,125.959c0,0-1.357,8.636-3.121,9.598c-1.764,0.962-3.729,2.605-3.729,2.605l-1.236,5.709l-4.691,0.841
				c0,0-1.797,2.582-3.93,3.287c-2.133,0.705-3.93,3.287-6.512,1.49c-2.582-1.797-7.023-10.361-7.159-12.919
				s2.439-9.799,2.439-9.799s1.885-3.889,7.178-6.775c5.293-2.886,7.09-5.468,14.306-4.825
				C311.522,115.815,310.759,125.959,310.759,125.959z"/>
			<path style="fill:none;stroke:#263238;stroke-linecap:round;stroke-linejoin:round;stroke-miterlimit:10;" d="M304.74,132.73
				c0,0-2.853-0.665-5.108,0.508"/>
			<path style="fill:none;stroke:#263238;stroke-linecap:round;stroke-linejoin:round;stroke-miterlimit:10;" d="M298.41,136.353
				c0,0,3.115-1.198,3.594,1.198"/>
		</g>
		<path style="fill:#263238;stroke:#263238;stroke-linecap:round;stroke-linejoin:round;stroke-miterlimit:10;" d="M287.031,125.049
			c0,0-2.679,3.063-0.634,3.664s3.464,1.316,4.491-0.16c1.027-1.475,2.823-4.057,2.823-4.057s6.447,1.749,7.417-0.039
			c0.971-1.788-3.255-5.549-0.44-6.054c2.815-0.505,8.395,7.21,11.714,9.52c3.319,2.31,7.53,0.587,7.538-2.966
			c0.009-3.552-2.629-5.662-2.629-5.662s4.538,3.705,4.435-0.472c-0.104-4.178-4.81-8.821-10.407-9.432
			c-5.597-0.61-5.458-1.796-5.458-1.796s-3.062-4.432-11.674-3.855c-8.612,0.576-14.389,13.892-14.906,16.401
			c-0.734,3.564,0.136,7.56,0.136,7.56S283.175,121.544,287.031,125.049z"/>
		<path style="fill:#FFFFFF;stroke:#263238;stroke-linecap:round;stroke-linejoin:round;stroke-miterlimit:10;" d="M285.796,130.758
			c0,0,2.664-8.548,0.194-9.719c-2.47-1.171-7.338,2.284-7.09,5.468c0.248,3.184,3.824,5.125,3.824,5.125"/>
		<path style="fill:#FFFFFF;stroke:#263238;stroke-linecap:round;stroke-linejoin:round;stroke-miterlimit:10;" d="M289.299,159.305
			c0,0-0.26-9.106-0.015-10.294c0.245-1.188,4.32-3.978,5.128-4.58c0.807-0.602,3.235-4.928,4.502-4.24
			c1.267,0.688,0.397,2.217,0.397,2.217l-1.614,1.205l3.428-1.301c0,0,3.559-5.672,4.406-6.053c0.847-0.381,0.278,1.552,0.255,2.7
			c-0.023,1.148-0.842,6.786-1.53,8.054c-0.688,1.267-1.091,1.569-2.484,2.734c-1.393,1.165-7.219,3.125-7.844,3.466
			c-0.625,0.341,0.59,5.843,0.59,5.843L289.299,159.305z"/>
		<g>
			<path style="fill:#263238;stroke:#263238;stroke-linecap:round;stroke-linejoin:round;stroke-miterlimit:10;" d="M254.813,167.32
				c0,0,4.547,2.388,6.377,3.661c1.83,1.273,24.943,22.984,29.598,22.149c4.655-0.835,8.612-4.29,8.806-9.587
				c0.194-5.297-1.803-29.193-1.803-29.193l-10.664,3.056l-1.026,15.972c0,0-11.615-20.111-13.723-22.937
				c-2.108-2.825-4.694-8.311-11.486-6.635c-6.792,1.676-6.344,8.002-6.344,8.002"/>
			
				<line style="fill:none;stroke:#FFFFFF;stroke-linecap:round;stroke-linejoin:round;stroke-miterlimit:10;" x1="275.333" y1="184.186" x2="253" y2="166.853"/>
			
				<line style="fill:none;stroke:#FFFFFF;stroke-linecap:round;stroke-linejoin:round;stroke-miterlimit:10;" x1="260.333" y1="172.519" x2="246.333" y2="171.186"/>
			<path style="fill:none;stroke:#FFFFFF;stroke-linecap:round;stroke-linejoin:round;stroke-miterlimit:10;" d="M276.667,157.186
				c0,0-6.333-10-11-12.667c-4.667-2.667-9.667-2-13.667,0.667"/>
			
				<line style="fill:none;stroke:#FFFFFF;stroke-linecap:round;stroke-linejoin:round;stroke-miterlimit:10;" x1="298.333" y1="160.186" x2="299.333" y2="184.853"/>
		</g>
		<path style="fill:none;" d="M274.418,197.827c0,0-3.251-0.563-11.178,3.15c-7.927,3.713-14.723,8.941-14.723,8.941"/>
	</g>
</g>
</svg>
