<?xml version="1.0" encoding="utf-8"?>
<!-- Generator: Adobe Illustrator 27.5.0, SVG Export Plug-In . SVG Version: 6.00 Build 0)  -->
<svg version="1.1" id="Слой_1__x28_копия_x29_"
	 xmlns="http://www.w3.org/2000/svg" xmlns:xlink="http://www.w3.org/1999/xlink" x="0px" y="0px" viewBox="0 0 2000 2000"
	 style="enable-background:new 0 0 2000 2000;" xml:space="preserve">
<rect style="fill:#FFFFFF;" width="2000" height="2000"/>
<ellipse transform="matrix(0.9584 -0.2855 0.2855 0.9584 -211.963 352.5837)" style="fill:#F7AF4D;" cx="1103.21" cy="903.222" rx="127.245" ry="127.246"/>
<path style="fill:#5A8DBF;" d="M991.944,746.431v19.637h9.52c4.461,0,8.046,3.027,8.046,6.772v74.445
	c0,3.705-3.585,6.731-8.046,6.731h-9.52v673.832c0,20.752-15.215,37.521-33.976,37.521H470.747c-18.76,0-33.976-16.77-33.976-37.521
	V518.196c0-20.712,15.216-37.521,33.976-37.521h487.221c18.761,0,33.976,16.809,33.976,37.521v75.481h6.732
	c5.975,0,10.834,5.258,10.834,11.75v129.254c0,6.493-4.859,11.75-10.834,11.75H991.944z"/>
<path style="fill:#9FC1E6;" d="M956.298,1520.652H472.416c-6.831,0-12.37-5.538-12.37-12.37V546.562
	c0-6.832,5.538-12.37,12.37-12.37h483.882c6.832,0,12.37,5.539,12.37,12.37v961.721
	C968.669,1515.114,963.13,1520.652,956.298,1520.652z"/>
<path style="fill:#B16516;" d="M1140.843,942.896c-3.437,8.614-10.394,14.393-20.866,17.347c-9.638,2.64-19.998,2.395-31.09-0.735
	l-5.553,13.924l-15.042-5.998l5.553-13.923c-10.668-5.547-18.644-12.683-23.922-21.4c-5.288-8.717-6.282-17.212-2.981-25.49
	l0.803-2.013l16.201,6.461c-2.676,6.708-2.032,13.381,1.941,20.023c3.963,6.636,10.504,11.771,19.606,15.399
	c8.946,3.567,17.043,4.337,24.298,2.301c7.248-2.032,12.101-6.126,14.554-12.278c2.942-7.383,1.536-14.614-4.219-21.709
	c-3.342-4.182-9.186-9.04-17.529-14.571c-10.854-7.309-18.52-13.865-23.003-19.673c-7.071-9.168-8.713-18.506-4.922-28.012
	c3.078-7.718,8.849-13,17.317-15.843c8.466-2.848,17.934-2.828,28.413,0.052l5.553-13.923l15.041,5.998l-5.552,13.923
	c10.751,5.327,18.461,12.224,23.13,20.698c4.668,8.47,5.396,16.732,2.185,24.784l-16.201-6.461
	c2.497-6.261,1.859-12.284-1.916-18.066c-3.771-5.782-9.743-10.306-17.92-13.566c-7.718-3.077-14.701-3.722-20.954-1.937
	c-6.261,1.782-10.587,5.691-12.996,11.732c-2.408,6.039-1.33,11.848,3.242,17.43c3.007,3.664,8.552,8.141,16.633,13.439
	c11.055,7.259,19.171,14.252,24.357,20.99C1142.996,922.241,1144.944,932.607,1140.843,942.896z"/>
<path style="fill:#9BD3D5;" d="M407.216,1581.143c0,0-10.038-1.872-25.094-4.262l-110.652-18.722
	c-9.918-1.514-20.155-3.385-20.155-3.385s-1.115-29.516,12.746-47.042c2.111-2.669,4.103-4.063,6.094-4.66l-0.319,1.274
	c0.797,14.38,23.063,23.859,30.471,19.638c22.346-12.707,33.299-11.393,33.22-11.353c0,0,36.087,26.768,55.645,27.086
	C419.086,1540.235,407.216,1581.143,407.216,1581.143z"/>
<path style="fill:#F5AE9E;" d="M333.527,1512.632c0.08-0.04-10.874-1.354-33.22,11.353c-7.409,4.222-29.674-5.258-30.471-19.638
	l2.788-10.675l59.987,11.989L333.527,1512.632z"/>
<path style="fill:#E6325C;" d="M505.999,1287.822l-0.876,220.628l-81.535,2.589l-1.514-224.292l-14.14-28.4l-6.333,29.675
	l-44.333,222.579l-86.913-17.366l50.148-225.367l4.143-142.04c-1.235-6.851-5.656-23.381-4.859-55.127
	c0.119-5.178,0.597-13.741,1.514-22.783c5.895,1.154,14.22,2.589,23.341,3.744c1.553,0.198,3.147,0.397,4.74,0.558
	c14.459,1.593,30.272,2.31,41.863-0.08c2.709-0.558,45.807-0.239,65.045-0.119c3.625,2.509,6.015,4.143,6.055,4.182
	c8.086,7.728,21.868,7.13,32.821,2.231l-0.239,3.624L505.999,1287.822z"/>
<path style="fill:#F7AF4D;" d="M1788.603,1386.563c28.31,63.281-0.04,137.531-63.321,165.841
	c-63.281,28.311-137.531-0.039-165.841-63.32c-28.311-63.282,0.039-137.531,63.32-165.842
	C1686.042,1294.932,1760.292,1323.281,1788.603,1386.563z"/>
<path style="fill:#B16516;" d="M1728.028,1438.48c3.738,8.35,3.046,17.245-2.062,26.684c-4.757,8.636-12.051,15.801-21.884,21.501
	l6.037,13.496l-14.579,6.523l-6.037-13.494c-11.257,3.734-21.791,4.478-31.589,2.224c-9.803-2.249-16.497-7.384-20.087-15.408
	l-0.875-1.952l15.707-7.027c2.909,6.508,8.075,10.635,15.504,12.387c7.422,1.753,15.548,0.655,24.374-3.292
	c8.674-3.881,14.785-9.087,18.325-15.614c3.543-6.528,3.979-12.773,1.311-18.737c-3.201-7.155-9.289-11.132-18.263-11.932
	c-5.255-0.51-12.708,0.286-22.354,2.387c-12.635,2.662-22.546,3.586-29.73,2.766c-11.35-1.298-19.087-6.555-23.21-15.77
	c-3.346-7.482-3.12-15.193,0.688-23.143c3.805-7.944,10.319-14.635,19.562-20.073l-6.037-13.498l14.579-6.522l6.041,13.497
	c11.16-3.948,21.336-4.663,30.539-2.146c9.203,2.519,15.556,7.678,19.045,15.485l-15.703,7.024
	c-2.716-6.068-7.422-9.756-14.104-11.059c-6.687-1.303-13.992-0.183-21.92,3.364c-7.479,3.348-12.738,7.846-15.769,13.498
	c-3.042,5.652-3.248,11.403-0.631,17.259c2.618,5.853,7.477,9.083,14.571,9.682c4.652,0.39,11.639-0.457,20.939-2.538
	c12.731-2.833,23.257-3.771,31.589-2.813C1714.896,1422.762,1723.567,1428.507,1728.028,1438.48z"/>
<path style="fill:#109F88;" d="M1622.718,987.492v208h-36.964v-208c0-19.08-15.495-34.534-34.534-34.534h36.964
	C1607.223,952.958,1622.718,968.413,1622.718,987.492z"/>
<path style="fill:#109F88;" d="M1585.754,1320.046h36.964v208.081c0,19.079-15.495,34.533-34.534,34.533h-36.964
	c19.039,0,34.534-15.454,34.534-34.533V1320.046z"/>
<path style="fill:#66BFB4;" d="M1622.718,1195.492v124.554h-36.964v208.081c0,19.079-15.495,34.533-34.534,34.533H970.634
	c12.507-5.536,21.31-18.999,21.31-34.813v-574.89h559.276c19.039,0,34.534,15.455,34.534,34.534v208H1622.718z"/>
<path style="fill:#2BB19E;" d="M1620.327,1224.689v-7.967h-38.385V961.96c-2.514-2.191-5.311-4.063-8.391-5.537v31.308h-38.386
	v-34.693l0.122-0.08l4.053-3.027h-12.524v37.8h-38.467v-34.693l0.122-0.08l4.094-3.027H1480v37.8h-38.386v-34.693l0.121-0.08
	l4.054-3.027h-12.565v37.8h-38.386v-34.693l0.122-0.08l4.054-3.027h-12.525v37.8h-38.467v-34.693l0.122-0.08l4.094-3.027h-12.565
	v37.8h-38.386v-34.693l0.122-0.08h-8.513v34.773h-38.386v-34.693l0.122-0.08h-8.472v34.773h-38.467v-34.693l0.122-0.08l4.094-3.027
	h-12.565v37.8h-38.385v-34.693l0.121-0.08l4.053-3.027h-12.564v37.8h-38.386v-34.693l0.121-0.08l4.054-3.027h-12.525v37.8h-38.466
	v-34.693l0.121-0.08l4.094-3.027h-12.524v37.8h-38.426v-34.693l0.121-0.08l4.054-3.027h-12.565v37.8h-17.349v7.966h17.349v37.84
	h-17.349v7.967h17.349v37.84h-17.349v7.967h17.349v37.8h-17.349v7.966h17.349v37.841h-17.349v7.966h17.349v37.84h-17.349v7.967
	h17.349v37.8h-17.349v7.967h17.349v37.84h-17.349v7.966h17.349v37.801h-17.349v7.966h17.349v37.841h-17.349v7.966h17.349v37.84
	h-17.349v7.967h17.349v37.8h-17.349v7.967h17.349v37.84h-17.349v7.967h17.349v17.445h8.391v-17.445h38.426v17.445h8.31v-17.445
	h38.466v17.445h8.351v-17.445h38.386v17.445h8.391v-17.445h38.385v17.445h8.35v-17.445h38.467v17.445h8.35v-17.445h38.386v17.445
	h8.391v-17.445h38.386v17.445h8.35v-17.445h38.467v17.445h8.35v-17.445h38.386v17.445h8.391v-17.445H1480v17.445h8.35v-17.445
	h38.467v17.445h8.35v-17.445h38.386v13.98c3.08-1.474,5.877-3.346,8.391-5.537v-8.443h6.891c1.499-2.47,2.635-5.139,3.404-7.967
	h-10.295v-37.84v-7.967v-37.8v-7.967v-37.84v-7.966v-37.841v-7.966v-37.801h38.385v-7.966h-38.385v-37.84h38.385v-7.967h-38.385
	v-37.8H1620.327z M1059.057,1537.248h-38.426v-37.84h38.426V1537.248z M1059.057,1491.441h-38.426v-37.8h38.426V1491.441z
	 M1059.057,1445.675h-38.426v-37.84h38.426V1445.675z M1059.057,1399.869h-38.426v-37.841h38.426V1399.869z M1059.057,1354.063
	h-38.426v-37.801h38.426V1354.063z M1059.057,1308.296h-38.426v-37.84h38.426V1308.296z M1059.057,1262.489h-38.426v-37.8h38.426
	V1262.489z M1059.057,1216.723h-38.426v-37.84h38.426V1216.723z M1059.057,1170.917h-38.426v-37.841h38.426V1170.917z
	 M1059.057,1125.11h-38.426v-37.8h38.426V1125.11z M1059.057,1079.344h-38.426v-37.84h38.426V1079.344z M1059.057,1033.537h-38.426
	v-37.84h38.426V1033.537z M1105.832,1537.248h-38.466v-37.84h38.466V1537.248z M1105.832,1491.441h-38.466v-37.8h38.466V1491.441z
	 M1105.832,1445.675h-38.466v-37.84h38.466V1445.675z M1105.832,1399.869h-38.466v-37.841h38.466V1399.869z M1105.832,1354.063
	h-38.466v-37.801h38.466V1354.063z M1105.832,1308.296h-38.466v-37.84h38.466V1308.296z M1105.832,1262.489h-38.466v-37.8h38.466
	V1262.489z M1105.832,1216.723h-38.466v-37.84h38.466V1216.723z M1105.832,1170.917h-38.466v-37.841h38.466V1170.917z
	 M1105.832,1125.11h-38.466v-37.8h38.466V1125.11z M1105.832,1079.344h-38.466v-37.84h38.466V1079.344z M1105.832,1033.537h-38.466
	v-37.84h38.466V1033.537z M1152.568,1537.248h-38.386v-37.84h38.386V1537.248z M1152.568,1491.441h-38.386v-37.8h38.386V1491.441z
	 M1152.568,1445.675h-38.386v-37.84h38.386V1445.675z M1152.568,1399.869h-38.386v-37.841h38.386V1399.869z M1152.568,1354.063
	h-38.386v-37.801h38.386V1354.063z M1152.568,1308.296h-38.386v-37.84h38.386V1308.296z M1152.568,1262.489h-38.386v-37.8h38.386
	V1262.489z M1152.568,1216.723h-38.386v-37.84h38.386V1216.723z M1152.568,1170.917h-38.386v-37.841h38.386V1170.917z
	 M1152.568,1125.11h-38.386v-37.8h38.386V1125.11z M1152.568,1079.344h-38.386v-37.84h38.386V1079.344z M1152.568,1033.537h-38.386
	v-37.84h38.386V1033.537z M1199.344,1537.248h-38.385v-37.84h38.385V1537.248z M1199.344,1491.441h-38.385v-37.8h38.385V1491.441z
	 M1199.344,1445.675h-38.385v-37.84h38.385V1445.675z M1199.344,1399.869h-38.385v-37.841h38.385V1399.869z M1199.344,1354.063
	h-38.385v-37.801h38.385V1354.063z M1199.344,1308.296h-38.385v-37.84h38.385V1308.296z M1199.344,1262.489h-38.385v-37.8h38.385
	V1262.489z M1199.344,1216.723h-38.385v-37.84h38.385V1216.723z M1199.344,1170.917h-38.385v-37.841h38.385V1170.917z
	 M1199.344,1125.11h-38.385v-37.8h38.385V1125.11z M1199.344,1079.344h-38.385v-37.84h38.385V1079.344z M1199.344,1033.537h-38.385
	v-37.84h38.385V1033.537z M1246.16,1537.248h-38.467v-37.84h38.467V1537.248z M1246.16,1491.441h-38.467v-37.8h38.467V1491.441z
	 M1246.16,1445.675h-38.467v-37.84h38.467V1445.675z M1246.16,1399.869h-38.467v-37.841h38.467V1399.869z M1246.16,1354.063h-38.467
	v-37.801h38.467V1354.063z M1246.16,1308.296h-38.467v-37.84h38.467V1308.296z M1246.16,1262.489h-38.467v-37.8h38.467V1262.489z
	 M1246.16,1216.723h-38.467v-37.84h38.467V1216.723z M1246.16,1170.917h-38.467v-37.841h38.467V1170.917z M1246.16,1125.11h-38.467
	v-37.8h38.467V1125.11z M1246.16,1079.344h-38.467v-37.84h38.467V1079.344z M1246.16,1033.537h-38.467v-37.84h38.467V1033.537z
	 M1292.896,1537.248h-38.386v-37.84h38.386V1537.248z M1292.896,1491.441h-38.386v-37.8h38.386V1491.441z M1292.896,1445.675
	h-38.386v-37.84h38.386V1445.675z M1292.896,1399.869h-38.386v-37.841h38.386V1399.869z M1292.896,1354.063h-38.386v-37.801h38.386
	V1354.063z M1292.896,1308.296h-38.386v-37.84h38.386V1308.296z M1292.896,1262.489h-38.386v-37.8h38.386V1262.489z
	 M1292.896,1216.723h-38.386v-37.84h38.386V1216.723z M1292.896,1170.917h-38.386v-37.841h38.386V1170.917z M1292.896,1125.11
	h-38.386v-37.8h38.386V1125.11z M1292.896,1079.344h-38.386v-37.84h38.386V1079.344z M1292.896,1033.537h-38.386v-37.84h38.386
	V1033.537z M1339.672,1537.248h-38.386v-37.84h38.386V1537.248z M1339.672,1491.441h-38.386v-37.8h38.386V1491.441z
	 M1339.672,1445.675h-38.386v-37.84h38.386V1445.675z M1339.672,1399.869h-38.386v-37.841h38.386V1399.869z M1339.672,1354.063
	h-38.386v-37.801h38.386V1354.063z M1339.672,1308.296h-38.386v-37.84h38.386V1308.296z M1339.672,1262.489h-38.386v-37.8h38.386
	V1262.489z M1339.672,1216.723h-38.386v-37.84h38.386V1216.723z M1339.672,1170.917h-38.386v-37.841h38.386V1170.917z
	 M1339.672,1125.11h-38.386v-37.8h38.386V1125.11z M1339.672,1079.344h-38.386v-37.84h38.386V1079.344z M1339.672,1033.537h-38.386
	v-37.84h38.386V1033.537z M1386.488,1537.248h-38.467v-37.84h38.467V1537.248z M1386.488,1491.441h-38.467v-37.8h38.467V1491.441z
	 M1386.488,1445.675h-38.467v-37.84h38.467V1445.675z M1386.488,1399.869h-38.467v-37.841h38.467V1399.869z M1386.488,1354.063
	h-38.467v-37.801h38.467V1354.063z M1386.488,1308.296h-38.467v-37.84h38.467V1308.296z M1386.488,1262.489h-38.467v-37.8h38.467
	V1262.489z M1386.488,1216.723h-38.467v-37.84h38.467V1216.723z M1386.488,1170.917h-38.467v-37.841h38.467V1170.917z
	 M1386.488,1125.11h-38.467v-37.8h38.467V1125.11z M1386.488,1079.344h-38.467v-37.84h38.467V1079.344z M1386.488,1033.537h-38.467
	v-37.84h38.467V1033.537z M1433.224,1537.248h-38.386v-37.84h38.386V1537.248z M1433.224,1491.441h-38.386v-37.8h38.386V1491.441z
	 M1433.224,1445.675h-38.386v-37.84h38.386V1445.675z M1433.224,1399.869h-38.386v-37.841h38.386V1399.869z M1433.224,1354.063
	h-38.386v-37.801h38.386V1354.063z M1433.224,1308.296h-38.386v-37.84h38.386V1308.296z M1433.224,1262.489h-38.386v-37.8h38.386
	V1262.489z M1433.224,1216.723h-38.386v-37.84h38.386V1216.723z M1433.224,1170.917h-38.386v-37.841h38.386V1170.917z
	 M1433.224,1125.11h-38.386v-37.8h38.386V1125.11z M1433.224,1079.344h-38.386v-37.84h38.386V1079.344z M1433.224,1033.537h-38.386
	v-37.84h38.386V1033.537z M1480,1537.248h-38.386v-37.84H1480V1537.248z M1480,1491.441h-38.386v-37.8H1480V1491.441z
	 M1480,1445.675h-38.386v-37.84H1480V1445.675z M1480,1399.869h-38.386v-37.841H1480V1399.869z M1480,1354.063h-38.386v-37.801H1480
	V1354.063z M1480,1308.296h-38.386v-37.84H1480V1308.296z M1480,1262.489h-38.386v-37.8H1480V1262.489z M1480,1216.723h-38.386
	v-37.84H1480V1216.723z M1480,1170.917h-38.386v-37.841H1480V1170.917z M1480,1125.11h-38.386v-37.8H1480V1125.11z M1480,1079.344
	h-38.386v-37.84H1480V1079.344z M1480,1033.537h-38.386v-37.84H1480V1033.537z M1526.816,1537.248h-38.467v-37.84h38.467V1537.248z
	 M1526.816,1491.441h-38.467v-37.8h38.467V1491.441z M1526.816,1445.675h-38.467v-37.84h38.467V1445.675z M1526.816,1399.869
	h-38.467v-37.841h38.467V1399.869z M1526.816,1354.063h-38.467v-37.801h38.467V1354.063z M1526.816,1308.296h-38.467v-37.84h38.467
	V1308.296z M1526.816,1262.489h-38.467v-37.8h38.467V1262.489z M1526.816,1216.723h-38.467v-37.84h38.467V1216.723z
	 M1526.816,1170.917h-38.467v-37.841h38.467V1170.917z M1526.816,1125.11h-38.467v-37.8h38.467V1125.11z M1526.816,1079.344h-38.467
	v-37.84h38.467V1079.344z M1526.816,1033.537h-38.467v-37.84h38.467V1033.537z M1573.552,1537.248h-38.386v-37.84h38.386V1537.248z
	 M1573.552,1491.441h-38.386v-37.8h38.386V1491.441z M1573.552,1445.675h-38.386v-37.84h38.386V1445.675z M1573.552,1399.869
	h-38.386v-37.841h38.386V1399.869z M1573.552,1354.063h-38.386v-37.801h38.386V1354.063z M1573.552,1308.296h-38.386v-37.84h38.386
	V1308.296z M1573.552,1262.489h-38.386v-37.8h38.386V1262.489z M1573.552,1216.723h-38.386v-37.84h38.386V1216.723z
	 M1573.552,1170.917h-38.386v-37.841h38.386V1170.917z M1573.552,1125.11h-38.386v-37.8h38.386V1125.11z M1573.552,1079.344h-38.386
	v-37.84h38.386V1079.344z M1573.552,1033.537h-38.386v-37.84h38.386V1033.537z"/>
<path style="fill:#2B2150;" d="M778.648,513.368H635.979c-1.649,0-2.987-1.338-2.987-2.987c0-1.649,1.338-2.987,2.987-2.987h142.669
	c1.649,0,2.987,1.338,2.987,2.987C781.635,512.03,780.297,513.368,778.648,513.368z"/>
<path style="fill:#4B3584;" d="M517.748,887.435c0.283,1.125-13.854,13.538-15.29,15.208c-5.628,6.547-10.644,13.622-14.862,21.158
	c-2.08,3.715-3.98,7.602-5.577,11.551c-6.477,16.018-10.668,34.17-9.878,51.542c-2.828-0.717-5.059-1.394-6.055-1.752
	c-4.302-1.474-10.396-1.514-15.096-0.12l-28.957,34.733c1.115,8.086,23.301,24.536,34.255,32.264
	c-19.238-0.12-62.336-0.438-65.045,0.119c-15.276,3.149-31.275,1.463-46.603-0.478c-9.122-1.155-17.446-2.59-23.341-3.744
	c-5.577-1.036-9.042-1.833-9.042-1.833l16.649-67.235l-30.551-19.08c0,0-8.166-11.63-8.444-20.553
	c-0.239-7.767,25.572-142.398,32.583-175.498c0.956-4.621,4.182-8.484,8.563-10.277l43.656-16.132c0,0,2.987,0.598,4.063-0.159
	c5.656,12.945,34.654,23.103,43.257,23.899c10.396,0.956,12.626-5.059,16.211-5.736c1.633-0.318,2.749-1.832,2.509-3.465
	c-0.199-1.713-0.438-4.102-0.637-6.931c9.639-1.474,20.036,0.677,28.201,6.253C483.772,761.727,509.064,854.014,517.748,887.435z"/>
<path style="fill:#F5AE9E;" d="M445.016,725.042c-1.912,0.319-3.824,0.518-5.736,0.637c0.279,9.919,0.797,21.111,1.474,26.169
	c0.239,1.633-0.876,3.147-2.509,3.465c-3.585,0.677-5.815,6.691-16.211,5.736c-8.604-0.796-37.681-10.994-43.257-23.939
	c1.354,0,10.835-28.4,12.228-30.511c0.159-0.279,0.358-0.558,0.518-0.877c-5.975-5.417-11.353-11.83-15.734-18.96
	c1.474-0.796,2.749-1.912,3.744-3.425c7.409-11.551-13.343-25.413-8.564-38.278c8.087-1.912,17.048,0.358,23.262,5.935
	c9.36-10.794,2.788-27.365-4.063-39.872c29.077,14.459,63.97,16.729,94.72,6.214c3.306,9.44,5.815,19.199,7.448,29.077
	C496.16,685.29,475.886,719.584,445.016,725.042z"/>
<path style="fill:#EE7E94;" d="M471.757,672.398c0,7.544,6.137,13.682,13.681,13.682c0.742,0,1.446-0.039,2.15-0.195
	c2.854-7.701,4.613-16.184,5.043-25.096c-2.072-1.329-4.535-2.071-7.193-2.071C477.894,658.717,471.757,664.815,471.757,672.398z"/>
<path style="fill:#2B2150;" d="M455.031,678.718c-2.138,0-4.211-0.486-5.889-1.817c-1.293-1.025-1.511-2.904-0.486-4.197
	c1.023-1.292,2.9-1.511,4.197-0.486c1.297,1.029,5.191,0.486,9.252-1.293c0.153-0.068,0.233-0.243,0.19-0.418l-6.722-28.329
	c-0.381-1.607,0.611-3.217,2.215-3.596c1.616-0.395,3.217,0.611,3.596,2.215l6.724,28.331c0.71,2.991-0.809,6.048-3.612,7.272
	C462.12,677.44,458.493,678.718,455.031,678.718z"/>
<path style="fill:#2B2150;" d="M448.098,700.259c-5.44,0-10.267-2.252-13.48-6.447c-1.003-1.309-0.754-3.186,0.555-4.188
	c1.313-1.005,3.184-0.756,4.187,0.554c3.927,5.129,10.09,4.238,12.559,3.61c4.817-1.217,7.579-3.993,7.771-5.203
	c0.261-1.632,1.795-2.742,3.421-2.479c1.63,0.26,2.74,1.791,2.479,3.421c-0.683,4.275-5.702,8.41-12.208,10.053
	C451.581,700.036,449.809,700.259,448.098,700.259z"/>
<path style="fill:#2B2150;" d="M473.492,653.004c-1.649,0-2.987-1.338-2.987-2.987v-4.971c0-1.649,1.338-2.987,2.987-2.987
	c1.649,0,2.987,1.338,2.987,2.987v4.971C476.479,651.666,475.142,653.004,473.492,653.004z"/>
<path style="fill:#2B2150;" d="M432.089,655.037c-1.649,0-2.987-1.338-2.987-2.987v-4.971c0-1.649,1.338-2.988,2.987-2.988
	c1.649,0,2.987,1.338,2.987,2.988v4.971C435.076,653.698,433.738,655.037,432.089,655.037z"/>
<path style="fill:#EE7E94;" d="M409.995,675.929c0,7.556,6.126,13.681,13.681,13.681c7.556,0,13.682-6.125,13.682-13.681
	c0-7.556-6.126-13.682-13.682-13.682C416.121,662.248,409.995,668.373,409.995,675.929z"/>
<path style="fill:#109F88;" d="M504.246,626.219c-0.319,7.329-2.31,14.937-7.01,20.195c-1.314,1.434-2.908,2.668-4.621,3.584
	c-0.04-1.195-0.159-2.39-0.279-3.584c-1.633-9.879-4.143-19.637-7.448-29.077c-14.857,5.098-30.711,7.17-46.364,6.373
	c-1.633-0.199-3.226-0.398-4.78-0.558c-16.171-1.593-32.343-5.616-45.608-15.335l3.107,3.824l0.996,1.235
	c8.803,10.475,6.015,16.649,8.604,25.691c2.43,8.524-5.417,15.973-9.679,11.432c-1.235-1.274-2.469-2.43-3.744-3.346
	c-3.585-2.668-7.369-3.784-11.392-2.828c-0.598,0.199-1.155,0.438-1.673,0.677c-1.992,0.916-3.306,2.151-4.063,3.625c0,0,0,0,0,0.04
	c-3.146,6.134,3.505,15.813,8.484,21.549c0,0,3.107,8.763,0.04,14.579c-0.04,0.04-0.08,0.08-0.08,0.119
	c-0.598,1.116-1.434,2.151-2.589,2.948c0,0-10.515,0.279-22.544-11.432c-13.105-12.706-13.742-23.7-15.335-41.624
	c-1.593-17.885,10.157-42.022,28.639-45.886c3.864-14.539,19.637-25.93,35.131-28.758c10.316-1.872,22.067-2.748,32.343-0.836
	c17.128,3.146,27.325,7.409,27.325,7.409s5.537-3.545,10.117-3.505c13.463,0.12,21.947,9.679,26.169,18.84
	c1.036,2.23,1.394,4.7,1.434,7.17c0.08,3.227-0.438,6.413-1.354,9.479C502.573,606.781,504.684,616.58,504.246,626.219z"/>
<path style="fill:#2B2150;" d="M388.132,664.263c-0.862,0-1.657-0.562-1.912-1.432c-0.718-2.449-4.684-4.938-6.018-5.615
	c-0.98-0.5-1.37-1.7-0.872-2.68c0.498-0.98,1.696-1.367,2.68-0.871c0.681,0.348,6.706,3.526,8.032,8.046
	c0.31,1.054-0.295,2.161-1.352,2.472C388.506,664.238,388.317,664.263,388.132,664.263z"/>
<path style="fill:#2B2150;" d="M446.903,614.884c-0.562,0-1.124-0.008-1.688-0.021c-2.071-0.056-4.135-0.204-6.187-0.432
	c-1.093-0.123-1.88-1.107-1.76-2.2c0.121-1.093,1.115-1.881,2.2-1.76c1.943,0.216,3.894,0.356,5.856,0.409
	c7.978,0.243,15.771-1.192,22.542-4.075c3.057-1.299,13.857-8.625,15.569-13.212c0.383-1.03,1.533-1.552,2.561-1.168
	c1.031,0.383,1.554,1.53,1.169,2.561c-2.389,6.405-14.927,14.289-17.74,15.484C462.61,613.369,454.858,614.884,446.903,614.884z"/>
<path style="fill:#2B2150;" d="M423.588,641.257c-1.104,0-2.165-0.613-2.684-1.671c-0.728-1.48-0.119-3.269,1.362-3.996
	c0.895-0.438,8.923-4.273,14.956-4.003c1.647,0.076,2.923,1.474,2.845,3.122c-0.076,1.647-1.482,2.919-3.122,2.845
	c-3.804-0.206-9.995,2.39-12.044,3.397C424.478,641.158,424.029,641.257,423.588,641.257z"/>
<path style="fill:#2B2150;" d="M479.229,640.28c-0.356,0-0.717-0.064-1.07-0.2c-2.386-0.916-6.628-1.957-8.575-1.391
	c-1.587,0.453-3.242-0.459-3.697-2.044c-0.457-1.585,0.459-3.24,2.044-3.697c4.645-1.338,11.602,1.256,12.378,1.558
	c1.539,0.595,2.303,2.322,1.711,3.861C481.564,639.553,480.43,640.28,479.229,640.28z"/>
<path style="fill:#2B2150;" d="M514.45,917.608c-0.274,0-0.552-0.037-0.828-0.117c-1.586-0.455-2.501-2.11-2.044-3.697
	c1.473-5.121,3.653-10.012,6.481-14.536c0.875-1.4,2.721-1.826,4.117-0.951c1.398,0.876,1.825,2.719,0.951,4.118
	c-2.534,4.053-4.487,8.435-5.808,13.023C516.941,916.756,515.747,917.608,514.45,917.608z"/>
<path style="fill:#F7AF4D;" d="M723.12,984.266c0,69.307-56.162,125.51-125.509,125.51c-41.744,0-78.707-20.395-101.531-51.741
	c4.939-2.311,9.201-5.497,12.029-9.162c2.908-4.182-3.027-13.861-10.635-23.222c-6.691-8.245-14.738-16.211-19.119-19.916
	c-0.677-0.518-1.234-0.955-1.712-1.313c0,0,8.962-1.235,12.507-2.47c2.549-0.877,8.046-6.533,7.927-8.325
	c-0.438-5.537-1.992-6.493-6.015-5.258c-4.899,1.474-13.145-0.04-18.92-1.474c-2.252-0.612,1.918-25.048,2.43-27.523
	c3.03-14.644,8.554-28.764,16.489-41.464c7.182-11.493,16.248-21.835,26.688-30.472c21.669-17.924,49.511-28.719,79.862-28.719
	C666.958,858.716,723.12,914.919,723.12,984.266z"/>
<g>
	<path style="fill:#B16516;" d="M646.505,1006.848c0,9.147-4.263,16.985-12.782,23.517c-7.865,5.939-17.45,9.503-28.753,10.688
		v14.785h-15.976v-14.785c-11.798-1.186-21.717-4.812-29.741-10.868c-8.029-6.056-12.043-13.478-12.043-22.269v-2.138h17.205
		c0,7.126,3.03,13.006,9.094,17.637c6.06,4.633,13.925,6.949,23.596,6.949c9.499,0,17.205-2.257,23.102-6.77
		c5.901-4.513,8.849-10.036,8.849-16.568c0-7.838-3.933-13.953-11.798-18.349c-4.59-2.612-11.716-4.928-21.382-6.949
		c-12.618-2.73-22.04-5.935-28.267-9.619c-9.83-5.817-14.746-13.776-14.746-23.872c0-8.196,3.357-15.143,10.079-20.843
		c6.717-5.701,15.399-9.145,26.054-10.334v-14.787h15.976v14.787c11.798,0.953,21.382,4.454,28.753,10.51
		c7.375,6.059,11.063,13.362,11.063,21.913h-17.204c0-6.649-2.789-11.935-8.359-15.854c-5.57-3.919-12.696-5.879-21.382-5.879
		c-8.196,0-14.832,1.96-19.908,5.879c-5.08,3.919-7.62,9.084-7.62,15.499c0,6.413,3.112,11.343,9.343,14.787
		c4.092,2.256,10.814,4.335,20.153,6.233c12.778,2.614,22.771,6.059,29.983,10.333
		C640.935,987.134,646.505,995.921,646.505,1006.848z"/>
</g>
<path style="fill:#F7AF4D;" d="M1520.919,1257.765c0,22.025-17.854,39.88-39.88,39.88c-22.025,0-39.879-17.854-39.879-39.88
	c0-22.024,17.854-39.88,39.879-39.88C1503.064,1217.885,1520.919,1235.74,1520.919,1257.765z"/>
<path style="fill:#2B2150;" d="M1481.039,1300.632c-23.636,0-42.867-19.231-42.867-42.868c0-23.636,19.231-42.865,42.867-42.865
	c23.637,0,42.868,19.229,42.868,42.865C1523.907,1281.4,1504.676,1300.632,1481.039,1300.632z M1481.039,1220.873
	c-20.343,0-36.893,16.549-36.893,36.891c0,20.344,16.55,36.894,36.893,36.894c20.344,0,36.894-16.55,36.894-36.894
	C1517.933,1237.422,1501.383,1220.873,1481.039,1220.873z"/>
<path style="fill:#2B2150;" d="M1534.846,1531.867h-16.25c-1.101,0-1.991-0.891-1.991-1.992c0-1.101,0.891-1.991,1.991-1.991h16.25
	c10.025,0,18.556-7.157,20.281-17.016c0.188-1.086,1.207-1.806,2.307-1.62c1.083,0.19,1.807,1.221,1.618,2.307
	C1556.992,1523.323,1546.813,1531.867,1534.846,1531.867z M1470.798,1531.867H1423c-1.102,0-1.992-0.891-1.992-1.992
	c0-1.101,0.891-1.991,1.992-1.991h47.798c1.1,0,1.991,0.891,1.991,1.991C1472.789,1530.977,1471.898,1531.867,1470.798,1531.867z
	 M1375.202,1531.867h-47.798c-1.102,0-1.992-0.891-1.992-1.992c0-1.101,0.891-1.991,1.992-1.991h47.798
	c1.101,0,1.991,0.891,1.991,1.991C1377.193,1530.977,1376.303,1531.867,1375.202,1531.867z M1184.01,1531.867h-47.798
	c-1.101,0-1.991-0.891-1.991-1.992c0-1.101,0.891-1.991,1.991-1.991h47.798c1.102,0,1.992,0.891,1.992,1.991
	C1186.002,1530.977,1185.111,1531.867,1184.01,1531.867z M1088.414,1531.867h-47.798c-1.101,0-1.991-0.891-1.991-1.992
	c0-1.101,0.891-1.991,1.991-1.991h47.798c1.1,0,1.991,0.891,1.991,1.991C1090.405,1530.977,1089.515,1531.867,1088.414,1531.867z
	 M992.818,1531.867h-5.948c-1.101,0-1.991-0.891-1.991-1.992c0-1.101,0.891-1.991,1.991-1.991h5.948
	c1.101,0,1.992,0.891,1.992,1.991C994.81,1530.977,993.919,1531.867,992.818,1531.867z M1557.428,1465.425
	c-1.101,0-1.992-0.891-1.992-1.991v-47.798c0-1.101,0.892-1.991,1.992-1.991s1.991,0.891,1.991,1.991v47.798
	C1559.419,1464.534,1558.528,1465.425,1557.428,1465.425z"/>
<polygon style="fill:#F7AF4D;" points="1013.731,1312.279 1013.731,1362.028 1048.584,1362.028 1048.584,1413.81 1027.673,1413.81 
	1027.673,1562.303 765.581,1562.303 765.581,1413.65 786.493,1413.65 786.493,1364.061 751.64,1364.061 751.64,1312.279 
	803.66,1312.279 803.66,1260.498 1065.792,1260.498 1065.792,1312.279 "/>
<path style="fill:#E6325C;" d="M1223.525,1173.545c-0.359,0.399-7.09,37.96-7.09,37.96c-0.598,2.947-3.387,4.939-6.413,4.501h-0.08
	c-3.027-0.438-5.139-3.187-4.819-6.214l3.027-30.152c-5.06,2.271-9.76,5.338-13.583,9.68c-6.492,7.368-10.196,18.242-18.442,22.743
	c-3.903,2.151-8.284,2.51-12.547,2.669c-13.543,0.518-27.085-1.036-40.15-4.581c-1.792-0.518-3.704-1.115-4.938-2.629
	c-1.275-1.553-1.594-3.823-1.832-5.935c-1.036-8.205-1.713-17.725,3.544-23.819c6.175-7.13,16.57-5.099,24.855-8.563
	c13.941-5.775,18.602-24.696,24.815-39.792c0.079-0.199,0.159-0.438,0.278-0.638l-0.478,3.983
	c-1.832,14.061,10.993,21.947,30.112,10.795c8.205-4.74,16.371-16.371,18.243-25.652l0.438-2.15
	c4.859,3.903,8.604,9.878,10.276,16.41c3.106,12.069,0.637,25.293-3.267,37.362
	C1224.999,1170.956,1224.48,1172.47,1223.525,1173.545z"/>
<path style="fill:#F5AE9E;" d="M1213.806,1052.298c5.815,1.036,11.632,1.952,17.486,2.788c-0.598,2.031-6.333,28.281-6.333,28.281
	l-6.931,34.533c-1.872,9.281-10.038,20.912-18.243,25.652c-19.119,11.152-31.944,3.266-30.112-10.795l10.077-86.475
	C1193.492,1049.55,1210.818,1051.74,1213.806,1052.298z"/>
<path style="fill:#E6325C;" d="M1348.357,1184.897h-0.08c-2.867,1.035-6.015-0.398-7.17-3.227l-11.271-28.121
	c-3.426,4.342-6.214,9.201-7.568,14.817c-2.311,9.56-0.558,20.912-5.775,28.759c-2.47,3.664-6.174,6.054-9.879,8.165
	c-11.79,6.731-24.496,11.631-37.681,14.539c-1.832,0.398-3.783,0.757-5.616-0.04c-1.832-0.797-3.146-2.629-4.381-4.382
	c-4.7-6.771-9.719-14.937-7.887-22.743c2.15-9.201,12.307-12.229,18.043-19.12c9.64-11.59,5.02-30.511,3.546-46.762
	c0-0.199-0.04-0.398-0.04-0.598l1.395,3.665c4.898,13.264,19.915,14.339,31.705-4.422c5.02-8.006,6.892-22.106,4.223-31.188
	l-0.638-2.151c6.134,1.235,12.269,4.819,16.77,9.839c8.364,9.24,12.268,22.106,14.419,34.573c0.278,1.514,0.039,5.019,0.159,4.501
	s11.313,36.884,11.313,36.884C1352.818,1180.795,1351.225,1183.901,1348.357,1184.897z"/>
<path style="fill:#F5AE9E;" d="M1305.697,1125.429c-11.79,18.761-26.807,17.686-31.705,4.422l-27.923-72.892
	c2.629,0.318,5.258,0.597,7.887,0.836c15.614,1.474,31.069,2.15,45.887,1.832l10.077,34.614
	C1312.589,1103.322,1310.717,1117.423,1305.697,1125.429z"/>
<path style="fill:#4B3584;" d="M1492.229,835.295c-4.7-9.44-8.764-18.641-11.552-28.838c3.426-0.518,6.931-0.797,10.157-2.151
	c9.52-3.904,15.415-14.379,13.742-25.493c0,0-18.323-120.73-18.362-121.048c-1.554-10.197-1.155-24.975-6.413-34.056
	c-8.684-15.017-34.176-19.796-49.829-25.811c0.637,1.792,1.115,2.749,1.115,2.749c3.823,6.931-12.707,19.358-25.373,23.66
	c-42.819,14.538-34.414-18.96-34.414-18.96l1.633-8.524c-7.409,0.836-12.428,1.633-12.428,1.633v0.199
	c-6.453,0.558-17.646,3.027-21.07,13.662c-7.25,22.425-32.583,43.576-28.52,77.951l-14.937,42.46
	c9.52-3.943,21.549-5.059,31.229-3.146l38.836,13.304l-8.764,34.733l-24.779-4.744c3.823,12.268,4.943,53.817,4.943,53.817
	c-2.589,0.757-6.015,1.752-9.998,2.948l9.64,35.131h-98.583c-9.64,5.576-17.128,11.312-20.673,16.968
	c-6.333,10.197-9.878,22.943-14.061,34.135c-14.937,39.991-29.755,80.54-41.346,121.646c-2.15,7.847,46.205,13.861,51.383,14.777
	c13.304,2.351,26.688,4.223,40.15,5.497c28.799,2.708,57.039,2.708,81.854-1.036c4.461-0.677,8.843-1.474,13.065-2.39
	c6.691-1.474,13.025-3.227,19-5.337c2.47-0.996-1.832-26.887-2.151-29.436c-4.222-34.973-12.905-67.475-11.71-64.289
	c4.262,0.438,13.224,0.558,23.62,0.438c21.15-0.239,42.54-1.115,63.611-2.908c16.092-1.354,31.387-4.7,44.412-15.693
	c14.538-12.268,24.217-31.228,24.775-50.268C1510.99,869.072,1499.996,850.87,1492.229,835.295z M1341.347,803.828
	c0.04-0.199,0.04-0.398,0.04-0.597C1341.427,803.709,1341.427,803.908,1341.347,803.828z M1310.597,768.418l5.179,18.761
	c5.457,0.04,10.635-3.346,12.547-8.803l2.111-6.054L1310.597,768.418z"/>
<path style="fill:#F5AE9E;" d="M1469.564,525.923c-5.099,6.891-12.029,11.87-17.207,18.641
	c-6.651,8.723-12.945,15.535-21.748,22.226c-1.952,1.155-3.943,2.23-5.975,3.227c0,0.358,0,0.677,0.04,0.996
	c0.079,2.947,0.358,5.775,0.717,8.365c0,0.04,0,0.08,0,0.08c1.554,11.751,5.099,19.876,5.616,21.031c0.08,0.12,0.08,0.16,0.08,0.16
	c3.823,6.931-12.707,19.358-25.373,23.66c-42.819,14.538-34.414-18.96-34.414-18.96l5.615-29.396v-0.04
	c-18.561-6.692-27.324-25.373-28.877-47.997c-0.398-6.214-0.398-12.507,0.238-18.681c0.598-6.055,1.673-12.029,3.903-17.646
	c4.581-11.432,8.484-21.19,12.349-29.316c2.23,2.988,5.377,5.736,7.767,7.887c9.48,8.524,27.245,7.05,39.752,9.52
	c28.56,5.656,35.331,35.649,35.331,35.649C1458.133,499.913,1480.239,511.544,1469.564,525.923z"/>
<path style="fill:#2B2150;" d="M1381.616,533.758c-4.019,0-8.577-1.885-10.186-2.614c-1.698-1.023-2.55-2.47-2.686-4.152
	c-0.125-1.55,0.389-3.073,1.389-4.195l12.517-23.823c0.768-1.463,2.571-2.027,4.034-1.256c1.461,0.768,2.022,2.573,1.256,4.034
	l-12.723,24.216c-0.047,0.089-0.1,0.177-0.154,0.261c2.748,1.072,6.486,1.949,7.644,1.419c1.5-0.681,3.275-0.027,3.96,1.471
	c0.688,1.5,0.029,3.273-1.471,3.96C1384.135,533.563,1382.903,533.758,1381.616,533.758z"/>
<path style="fill:#F7AF4D;" d="M1512.91,677.666l22.874-1.142c3.073-7.527,3.07-16.259-0.008-23.785
	c-5.473-13.38-21.624-23.747-19.816-39.692c0.759-6.701,5.071-12.492,6.563-19.07c2.307-10.179-2.293-20.742-7.852-29.077
	c-4.062-6.09-12.76-11.568-14.201-18.964c-3.467-17.787,2.869-34.932,1.954-52.864c-0.894-17.519-5.818-35.401-16.596-49.49
	c-12.103-15.82-30.299-22.766-49.765-24.418c-27.744-2.356-41.168,9.708-43.688,9.904c-13.445,1.053-33.868,12.628-30.263,28.324
	c1.099,4.781,6.545,9.491,10.188,12.776c9.462,8.532,27.237,7.053,39.736,9.522c28.557,5.643,35.335,35.633,35.335,35.633
	c10.77-15.428,32.854-3.798,22.182,10.602c-5.095,6.875-12.015,11.886-17.181,18.652c-8.043,10.534-15.588,18.316-27.697,26.435
	c-1.287,5.6,6.394,29.625,6.394,29.625l27.624,9.062c5.418,3.597,17.051,6.964,20.121,12.697
	c4.159,7.765,10.593,56.443,10.593,56.443l11.227-0.561L1512.91,677.666z"/>
<path style="fill:#EE7E94;" d="M1393.977,532.988c-2.036,7.425,2.332,15.095,9.757,17.132c7.425,2.037,15.096-2.332,17.132-9.757
	c2.037-7.425-2.331-15.095-9.756-17.132C1403.684,521.194,1396.014,525.563,1393.977,532.988z"/>
<path style="fill:#2B2150;" d="M1451.945,530.92c-0.659,0-1.303-0.327-1.682-0.924c-0.592-0.928-0.317-2.159,0.612-2.748
	c3.522-2.239,6.677-5.434,7.181-7.276c0.292-1.06,1.381-1.678,2.448-1.395c1.061,0.292,1.685,1.387,1.395,2.449
	c-0.902,3.292-5.114,7.186-8.888,9.582C1452.681,530.819,1452.312,530.92,1451.945,530.92z"/>
<path style="fill:#2B2150;" d="M1365.474,503.35c-0.263,0-0.527-0.033-0.792-0.107c-1.593-0.436-2.528-2.079-2.091-3.67l1.144-4.168
	c0.438-1.593,2.085-2.528,3.67-2.091c1.594,0.436,2.529,2.079,2.091,3.67l-1.144,4.168
	C1367.988,502.478,1366.784,503.35,1365.474,503.35z"/>
<path style="fill:#2B2150;" d="M1406.68,518.253c-0.262,0-0.528-0.033-0.793-0.107c-1.591-0.436-2.526-2.081-2.089-3.672
	l1.054-3.839c0.436-1.593,2.087-2.526,3.672-2.089c1.592,0.436,2.527,2.081,2.089,3.672l-1.054,3.839
	C1409.194,517.384,1407.991,518.253,1406.68,518.253z"/>
<path style="fill:#EE7E94;" d="M1351.323,508.198c-0.099,1.081-0.161,2.17-0.224,3.259c-0.404,6.489-0.352,12.796,0.158,18.76
	c0.16,1.918,0.366,3.804,0.626,5.622c6.072,0.177,11.763-4.355,13.295-10.991c1.739-7.529-2.487-14.883-9.402-16.48
	C1354.271,508.021,1352.774,507.961,1351.323,508.198z"/>
<path style="fill:#F5AE9E;" d="M1366.043,742.886l-8.764,34.733l-21.867-4.302l-4.979-0.996l-19.837-3.904l-5.377-19.597h-24.975
	c1.354-7.329,7.647-12.746,15.733-16.092c9.52-3.943,21.549-5.059,31.229-3.146L1366.043,742.886z"/>
<path style="fill:#2B2150;" d="M1483.488,574.973c-0.687,0-1.354-0.354-1.724-0.99c-2.334-4.016-4.894-8.835-6.192-14.137
	c-1.82-7.451-1.006-15.26,0.033-21.917c0.171-1.085,1.167-1.819,2.275-1.661c1.087,0.169,1.83,1.189,1.661,2.275
	c-0.979,6.267-1.754,13.587-0.1,20.357c1.177,4.81,3.575,9.31,5.765,13.08c0.555,0.951,0.231,2.17-0.719,2.723
	C1484.173,574.885,1483.828,574.973,1483.488,574.973z"/>
<path style="fill:#2B2150;" d="M1390.97,551.16c-0.689,1.27-4.39,7.63-9.26,9.13c-1.66,0.51-3.57,0.78-5.54,0.78
	c-4.42,0-9.15-1.35-12.01-4.35c-2.622-2.75,1.616-6.938,4.33-4.13c2.12,2.23,7.59,3.17,11.46,1.99c0.964-0.294,1.7-1.079,2.42-1.74
	c0,0.428-6.692-0.732-7.251-0.884c-2.469-0.672-4.878-1.7-6.969-3.186c-2.04-1.45-3.73-3.28-4.9-5.27
	c-1.947-3.313,3.232-6.348,5.17-3.01c0.74,1.27,1.84,2.45,3.2,3.41c3.696,2.638,10.457,4.124,14.13,2.85
	C1389.31,545.515,1392.769,547.849,1390.97,551.16z"/>
<polygon style="fill:#8ECFD4;" points="1337.097,864.776 1415.744,842.146 1286.735,837.535 1171.283,864.776 "/>
<polygon style="fill:#C0E3E9;" points="1337.097,864.776 1171.283,864.776 1139.418,748.835 1305.231,748.835 "/>
<g>
	<path style="fill:#156C5D;" d="M1220.969,806.067c1.772,6.282,6.929,10.325,11.516,9.03c4.587-1.295,6.869-7.437,5.096-13.718
		c-1.772-6.282-6.929-10.325-11.516-9.03C1221.478,793.643,1219.196,799.785,1220.969,806.067z"/>
	<path style="fill:#2B2150;" d="M1230.732,818.325c-5.541,0-10.738-4.706-12.638-11.448c-1.029-3.641-0.945-7.398,0.237-10.578
		c1.283-3.458,3.806-5.946,6.922-6.825c0.83-0.235,1.693-0.354,2.563-0.354c5.537,0,10.735,4.707,12.638,11.448
		c1.029,3.643,0.943,7.4-0.237,10.58c-1.285,3.458-3.809,5.946-6.922,6.823C1232.466,818.206,1231.602,818.325,1230.732,818.325z
		 M1227.817,795.095c-0.321,0-0.639,0.043-0.941,0.128c-1.724,0.486-2.585,2.186-2.945,3.155c-0.732,1.972-0.764,4.479-0.087,6.877
		c1.478,5.234,5.29,7.683,7.83,6.967c1.721-0.486,2.583-2.184,2.942-3.153c0.733-1.974,0.765-4.481,0.09-6.879
		C1233.404,797.583,1230.184,795.095,1227.817,795.095z"/>
</g>
<g>
	<g>
		<g>
			<path style="fill:#E894B1;" d="M1346.979,616.568c0,5.138-4.143,9.32-9.281,9.32c-1.673,0-3.227-0.438-4.58-1.195
				c0.039-0.08,0.079-0.12,0.119-0.199c1.474-3.465,2.907-6.931,4.381-10.356c0.518-1.234,1.036-2.469,1.833-3.544
				c0.677-0.877,1.474-1.633,2.23-2.47C1344.827,609.637,1346.979,612.863,1346.979,616.568z"/>
			<path style="fill:#E894B1;" d="M1438.418,616.568c0,5.138-4.143,9.32-9.28,9.32c-3.943,0-7.25-2.39-8.644-5.815
				c0.119-0.04,0.469,0.95,0.318-0.16c4.581-2.35,8.684-5.696,11.432-9.998c0.358-0.558,0.717-1.155,0.956-1.753
				C1436.307,609.717,1438.418,612.903,1438.418,616.568z"/>
			<path style="fill:#E894B1;" d="M1479.816,623.698c-1.633,1.394-3.704,2.19-5.975,2.19c-5.139,0-9.32-4.182-9.32-9.32
				c0-1.633,0.398-3.147,1.154-4.461C1471.133,614.656,1476.67,618.281,1479.816,623.698z"/>
		</g>
		<g>
			<path style="fill:#E894B1;" d="M1365.815,640.596c0,3.326-2.696,6.022-6.022,6.022c-3.326,0-6.021-2.696-6.021-6.022
				s2.695-6.021,6.021-6.021C1363.119,634.575,1365.815,637.271,1365.815,640.596z"/>
			<path style="fill:#E894B1;" d="M1410.043,640.596c0,3.326-2.696,6.022-6.022,6.022c-3.325,0-6.021-2.696-6.021-6.022
				s2.696-6.021,6.021-6.021C1407.347,634.575,1410.043,637.271,1410.043,640.596z"/>
			<path style="fill:#E894B1;" d="M1454.27,640.596c0,3.326-2.696,6.022-6.021,6.022c-3.326,0-6.021-2.696-6.021-6.022
				s2.695-6.021,6.021-6.021C1451.573,634.575,1454.27,637.271,1454.27,640.596z"/>
		</g>
		<g>
			<path style="fill:#E894B1;" d="M1346.996,664.628c0,5.145-4.171,9.315-9.315,9.315s-9.315-4.171-9.315-9.315
				c0-5.145,4.171-9.315,9.315-9.315S1346.996,659.483,1346.996,664.628z"/>
			<path style="fill:#E894B1;" d="M1392.385,664.628c0,5.145-4.171,9.315-9.315,9.315s-9.315-4.171-9.315-9.315
				c0-5.145,4.171-9.315,9.315-9.315S1392.385,659.483,1392.385,664.628z"/>
			<path style="fill:#E894B1;" d="M1437.773,664.628c0,5.145-4.17,9.315-9.315,9.315c-5.145,0-9.315-4.171-9.315-9.315
				c0-5.145,4.171-9.315,9.315-9.315C1433.604,655.313,1437.773,659.483,1437.773,664.628z"/>
			<path style="fill:#E894B1;" d="M1483.162,664.628c0,5.145-4.17,9.315-9.314,9.315s-9.315-4.171-9.315-9.315
				c0-5.145,4.171-9.315,9.315-9.315S1483.162,659.483,1483.162,664.628z"/>
		</g>
		<g>
			<path style="fill:#E894B1;" d="M1321.589,688.66c0,3.326-2.696,6.022-6.022,6.022c-3.325,0-6.021-2.696-6.021-6.022
				c0-3.326,2.696-6.022,6.021-6.022C1318.893,682.638,1321.589,685.334,1321.589,688.66z"/>
			<path style="fill:#E894B1;" d="M1365.815,688.66c0,3.326-2.696,6.022-6.022,6.022c-3.326,0-6.021-2.696-6.021-6.022
				c0-3.326,2.695-6.022,6.021-6.022C1363.119,682.638,1365.815,685.334,1365.815,688.66z"/>
			<path style="fill:#E894B1;" d="M1410.043,688.66c0,3.326-2.696,6.022-6.022,6.022c-3.325,0-6.021-2.696-6.021-6.022
				c0-3.326,2.696-6.022,6.021-6.022C1407.347,682.638,1410.043,685.334,1410.043,688.66z"/>
			<path style="fill:#E894B1;" d="M1454.27,688.66c0,3.326-2.696,6.022-6.021,6.022c-3.326,0-6.021-2.696-6.021-6.022
				c0-3.326,2.695-6.022,6.021-6.022C1451.573,682.638,1454.27,685.334,1454.27,688.66z"/>
		</g>
		<g>
			<circle style="fill:#E894B1;" cx="1337.681" cy="712.691" r="9.315"/>
			<circle style="fill:#E894B1;" cx="1383.069" cy="712.691" r="9.315"/>
			<circle style="fill:#E894B1;" cx="1428.458" cy="712.691" r="9.315"/>
			<path style="fill:#E894B1;" d="M1483.162,712.691c0,5.144-4.17,9.315-9.314,9.315s-9.315-4.171-9.315-9.315
				c0-5.145,4.171-9.315,9.315-9.315S1483.162,707.546,1483.162,712.691z"/>
		</g>
		<g>
			<path style="fill:#E894B1;" d="M1365.818,736.74c0,1.115-0.318,2.151-0.876,3.027c-0.358-0.12-0.757-0.16-1.115-0.239
				c-3.545-0.517-6.532-3.186-9.958-3.784c0.478-2.868,2.907-5.059,5.935-5.059C1363.109,730.685,1365.818,733.394,1365.818,736.74z
				"/>
			<path style="fill:#E894B1;" d="M1410.043,736.723c0,3.326-2.696,6.022-6.022,6.022c-3.325,0-6.021-2.696-6.021-6.022
				c0-3.326,2.696-6.022,6.021-6.022C1407.347,730.701,1410.043,733.397,1410.043,736.723z"/>
			<path style="fill:#E894B1;" d="M1454.27,736.723c0,3.326-2.696,6.022-6.021,6.022c-3.326,0-6.021-2.696-6.021-6.022
				c0-3.326,2.695-6.022,6.021-6.022C1451.573,730.701,1454.27,733.397,1454.27,736.723z"/>
			<path style="fill:#E894B1;" d="M1498.497,736.723c0,3.326-2.696,6.022-6.022,6.022c-3.325,0-6.021-2.696-6.021-6.022
				c0-3.326,2.696-6.022,6.021-6.022C1495.801,730.701,1498.497,733.397,1498.497,736.723z"/>
		</g>
		<g>
			<path style="fill:#E894B1;" d="M1392.385,760.754c0,5.145-4.171,9.315-9.315,9.315s-9.315-4.17-9.315-9.315
				c0-5.144,4.171-9.315,9.315-9.315S1392.385,755.61,1392.385,760.754z"/>
			<path style="fill:#E894B1;" d="M1437.773,760.754c0,5.145-4.17,9.315-9.315,9.315c-5.145,0-9.315-4.17-9.315-9.315
				c0-5.144,4.171-9.315,9.315-9.315C1433.604,751.44,1437.773,755.61,1437.773,760.754z"/>
			<path style="fill:#E894B1;" d="M1483.162,760.754c0,5.145-4.17,9.315-9.314,9.315s-9.315-4.17-9.315-9.315
				c0-5.144,4.171-9.315,9.315-9.315S1483.162,755.61,1483.162,760.754z"/>
		</g>
		<g>
			<path style="fill:#E894B1;" d="M1365.815,784.786c0,3.326-2.696,6.022-6.022,6.022c-3.326,0-6.021-2.696-6.021-6.022
				c0-3.326,2.695-6.021,6.021-6.021C1363.119,778.765,1365.815,781.46,1365.815,784.786z"/>
			<path style="fill:#E894B1;" d="M1410.043,784.786c0,3.326-2.696,6.022-6.022,6.022c-3.325,0-6.021-2.696-6.021-6.022
				c0-3.326,2.696-6.021,6.021-6.021C1407.347,778.765,1410.043,781.46,1410.043,784.786z"/>
			<path style="fill:#E894B1;" d="M1454.27,784.786c0,3.326-2.696,6.022-6.021,6.022c-3.326,0-6.021-2.696-6.021-6.022
				c0-3.326,2.695-6.021,6.021-6.021C1451.573,778.765,1454.27,781.46,1454.27,784.786z"/>
			<path style="fill:#E894B1;" d="M1498.497,784.786c0,3.326-2.696,6.022-6.022,6.022c-3.325,0-6.021-2.696-6.021-6.022
				c0-3.326,2.696-6.021,6.021-6.021C1495.801,778.765,1498.497,781.46,1498.497,784.786z"/>
		</g>
		<g>
			<path style="fill:#E894B1;" d="M1344.011,808.226c0,3.465-1.912,6.493-4.74,8.046v-0.239c-0.25-4.875-0.688-8.407-1.036-15.495
				c-0.018-0.36-0.079-0.717-0.158-1.035C1341.541,800.857,1344.011,804.243,1344.011,808.226z"/>
			<path style="fill:#E894B1;" d="M1392.385,808.818c0,5.145-4.171,9.315-9.315,9.315s-9.315-4.171-9.315-9.315
				c0-5.145,4.171-9.315,9.315-9.315S1392.385,803.673,1392.385,808.818z"/>
			<path style="fill:#E894B1;" d="M1437.773,808.818c0,5.145-4.17,9.315-9.315,9.315c-5.145,0-9.315-4.171-9.315-9.315
				c0-5.145,4.171-9.315,9.315-9.315C1433.604,799.503,1437.773,803.673,1437.773,808.818z"/>
			<path style="fill:#E894B1;" d="M1475.674,805.25c-0.079,4.102,0.557,8.246,1.832,12.149c-1.115,0.438-2.35,0.717-3.664,0.717
				c-5.139,0-9.32-4.143-9.32-9.281c0-5.178,4.182-9.32,9.32-9.32c3.066,0,5.815,1.474,7.488,3.784
				C1479.378,803.776,1477.506,804.454,1475.674,805.25z"/>
		</g>
		<g>
			<path style="fill:#E894B1;" d="M1365.818,832.854c0,1.593-0.638,3.067-1.633,4.143l-9.002-0.319
				c-0.877-1.036-1.395-2.35-1.395-3.824c0-3.346,2.669-6.015,6.015-6.015C1363.109,826.839,1365.818,829.507,1365.818,832.854z"/>
			<path style="fill:#E894B1;" d="M1410.043,832.85c0,3.326-2.696,6.022-6.022,6.022c-3.325,0-6.021-2.696-6.021-6.022
				s2.696-6.022,6.021-6.022C1407.347,826.828,1410.043,829.524,1410.043,832.85z"/>
			<circle style="fill:#E894B1;" cx="1448.248" cy="832.85" r="6.022"/>
		</g>
		<g>
			<path style="fill:#E894B1;" d="M1392.386,856.872c0,5.139-4.182,9.321-9.32,9.321c-4.979,0-9.042-3.903-9.28-8.803l17.406-5.058
				C1391.948,853.685,1392.386,855.239,1392.386,856.872z"/>
			<path style="fill:#E894B1;" d="M1437.773,856.881c0,5.145-4.17,9.315-9.315,9.315c-5.145,0-9.315-4.17-9.315-9.315
				c0-5.145,4.171-9.315,9.315-9.315C1433.604,847.566,1437.773,851.736,1437.773,856.881z"/>
			<path style="fill:#E894B1;" d="M1483.162,856.881c0,5.145-4.17,9.315-9.314,9.315s-9.315-4.17-9.315-9.315
				c0-5.145,4.171-9.315,9.315-9.315S1483.162,851.736,1483.162,856.881z"/>
		</g>
		<g>
			<path style="fill:#E894B1;" d="M1233.135,880.913c0,3.326-2.696,6.022-6.021,6.022c-3.326,0-6.022-2.696-6.022-6.022
				c0-3.326,2.696-6.021,6.022-6.021C1230.438,874.891,1233.135,877.587,1233.135,880.913z"/>
			<path style="fill:#E894B1;" d="M1277.361,880.913c0,3.326-2.695,6.022-6.022,6.022c-3.326,0-6.021-2.696-6.021-6.022
				c0-3.326,2.695-6.021,6.021-6.021C1274.666,874.891,1277.361,877.587,1277.361,880.913z"/>
			<path style="fill:#E894B1;" d="M1321.589,880.913c0,3.326-2.696,6.022-6.022,6.022c-3.325,0-6.021-2.696-6.021-6.022
				c0-3.326,2.696-6.021,6.021-6.021C1318.893,874.891,1321.589,877.587,1321.589,880.913z"/>
			<path style="fill:#E894B1;" d="M1365.815,880.913c0,3.326-2.696,6.022-6.022,6.022c-3.326,0-6.021-2.696-6.021-6.022
				c0-3.326,2.695-6.021,6.021-6.021C1363.119,874.891,1365.815,877.587,1365.815,880.913z"/>
			<path style="fill:#E894B1;" d="M1410.043,880.913c0,3.326-2.696,6.022-6.022,6.022c-3.325,0-6.021-2.696-6.021-6.022
				c0-3.326,2.696-6.021,6.021-6.021C1407.347,874.891,1410.043,877.587,1410.043,880.913z"/>
			<path style="fill:#E894B1;" d="M1454.27,880.913c0,3.326-2.696,6.022-6.021,6.022c-3.326,0-6.021-2.696-6.021-6.022
				c0-3.326,2.695-6.021,6.021-6.021C1451.573,874.891,1454.27,877.587,1454.27,880.913z"/>
			<path style="fill:#E894B1;" d="M1498.497,880.913c0,3.326-2.696,6.022-6.022,6.022c-3.325,0-6.021-2.696-6.021-6.022
				c0-3.326,2.696-6.021,6.021-6.021C1495.801,874.891,1498.497,877.587,1498.497,880.913z"/>
		</g>
		<g>
			<path style="fill:#E894B1;" d="M1256.218,904.944c0,5.145-4.171,9.316-9.316,9.316c-5.144,0-9.315-4.17-9.315-9.316
				c0-5.144,4.171-9.315,9.315-9.315C1252.047,895.629,1256.218,899.8,1256.218,904.944z"/>
			<path style="fill:#E894B1;" d="M1301.606,904.944c0,5.145-4.171,9.316-9.315,9.316c-5.145,0-9.314-4.17-9.314-9.316
				c0-5.144,4.17-9.315,9.314-9.315C1297.435,895.629,1301.606,899.8,1301.606,904.944z"/>
			<path style="fill:#E894B1;" d="M1346.996,904.944c0,5.145-4.171,9.316-9.315,9.316s-9.315-4.17-9.315-9.316
				c0-5.144,4.171-9.315,9.315-9.315S1346.996,899.8,1346.996,904.944z"/>
			<path style="fill:#E894B1;" d="M1392.385,904.944c0,5.145-4.171,9.316-9.315,9.316s-9.315-4.17-9.315-9.316
				c0-5.144,4.171-9.315,9.315-9.315S1392.385,899.8,1392.385,904.944z"/>
			<path style="fill:#E894B1;" d="M1437.773,904.944c0,5.145-4.17,9.316-9.315,9.316c-5.145,0-9.315-4.17-9.315-9.316
				c0-5.144,4.171-9.315,9.315-9.315C1433.604,895.629,1437.773,899.8,1437.773,904.944z"/>
			<path style="fill:#E894B1;" d="M1483.162,904.944c0,5.145-4.17,9.316-9.314,9.316s-9.315-4.17-9.315-9.316
				c0-5.144,4.171-9.315,9.315-9.315S1483.162,899.8,1483.162,904.944z"/>
		</g>
		<g>
			<path style="fill:#E894B1;" d="M1233.135,928.976c0,3.326-2.696,6.022-6.021,6.022c-3.326,0-6.022-2.696-6.022-6.022
				c0-3.326,2.696-6.022,6.022-6.022C1230.438,922.954,1233.135,925.65,1233.135,928.976z"/>
			<path style="fill:#E894B1;" d="M1277.361,928.976c0,3.326-2.695,6.022-6.022,6.022c-3.326,0-6.021-2.696-6.021-6.022
				c0-3.326,2.695-6.022,6.021-6.022C1274.666,922.954,1277.361,925.65,1277.361,928.976z"/>
			<path style="fill:#E894B1;" d="M1321.589,928.976c0,3.326-2.696,6.022-6.022,6.022c-3.325,0-6.021-2.696-6.021-6.022
				c0-3.326,2.696-6.022,6.021-6.022C1318.893,922.954,1321.589,925.65,1321.589,928.976z"/>
			<path style="fill:#E894B1;" d="M1365.815,928.976c0,3.326-2.696,6.022-6.022,6.022c-3.326,0-6.021-2.696-6.021-6.022
				c0-3.326,2.695-6.022,6.021-6.022C1363.119,922.954,1365.815,925.65,1365.815,928.976z"/>
			<path style="fill:#E894B1;" d="M1410.043,928.976c0,3.326-2.696,6.022-6.022,6.022c-3.325,0-6.021-2.696-6.021-6.022
				c0-3.326,2.696-6.022,6.021-6.022C1407.347,922.954,1410.043,925.65,1410.043,928.976z"/>
			<path style="fill:#E894B1;" d="M1454.27,928.976c0,3.326-2.696,6.022-6.021,6.022c-3.326,0-6.021-2.696-6.021-6.022
				c0-3.326,2.695-6.022,6.021-6.022C1451.573,922.954,1454.27,925.65,1454.27,928.976z"/>
		</g>
		<g>
			<path style="fill:#E894B1;" d="M1210.828,953.008c0,5.144-4.17,9.315-9.314,9.315s-9.315-4.171-9.315-9.315
				c0-5.145,4.171-9.315,9.315-9.315S1210.828,947.863,1210.828,953.008z"/>
			<circle style="fill:#E894B1;" cx="1246.902" cy="953.008" r="9.315"/>
			<path style="fill:#E894B1;" d="M1301.606,953.008c0,5.144-4.171,9.315-9.315,9.315c-5.145,0-9.314-4.171-9.314-9.315
				c0-5.145,4.17-9.315,9.314-9.315C1297.435,943.692,1301.606,947.863,1301.606,953.008z"/>
			<circle style="fill:#E894B1;" cx="1337.681" cy="953.008" r="9.315"/>
			<path style="fill:#E894B1;" d="M1392.067,955.256c-6.055,0.239-12.188,0.398-17.924,0.478
				c-2.192-7.608,5.138-14.419,12.865-11.232c2.031,0.836,3.704,2.549,4.581,4.58
				C1392.466,951.233,1392.585,953.384,1392.067,955.256z"/>
			<path style="fill:#E894B1;" d="M1437.754,952.826c-6.094,0.558-12.308,0.797-18.562,1.076c-0.637-6.851,6.135-12.308,13.185-9.4
				c2.071,0.836,3.744,2.549,4.581,4.58C1437.476,950.357,1437.715,951.631,1437.754,952.826z"/>
		</g>
		<g>
			<path style="fill:#E894B1;" d="M1233.135,977.04c0,3.326-2.696,6.021-6.021,6.021c-3.326,0-6.022-2.696-6.022-6.021
				c0-3.326,2.696-6.022,6.022-6.022C1230.438,971.018,1233.135,973.714,1233.135,977.04z"/>
			<path style="fill:#E894B1;" d="M1277.361,977.04c0,3.326-2.695,6.021-6.022,6.021c-3.326,0-6.021-2.696-6.021-6.021
				c0-3.326,2.695-6.022,6.021-6.022C1274.666,971.018,1277.361,973.714,1277.361,977.04z"/>
			<path style="fill:#E894B1;" d="M1321.589,977.04c0,3.326-2.696,6.021-6.022,6.021c-3.325,0-6.021-2.696-6.021-6.021
				c0-3.326,2.696-6.022,6.021-6.022C1318.893,971.018,1321.589,973.714,1321.589,977.04z"/>
			<path style="fill:#E894B1;" d="M1188.926,977.044c0,3.306-2.708,6.015-6.054,6.015c-2.311,0-4.342-1.315-5.298-3.266
				c0.916-2.709,1.832-5.457,2.788-8.206c0.757-0.358,1.633-0.558,2.51-0.558C1186.218,971.029,1188.926,973.698,1188.926,977.044z"
				/>
		</g>
		<g>
			<path style="fill:#E894B1;" d="M1210.828,1001.071c0,5.145-4.17,9.315-9.314,9.315s-9.315-4.171-9.315-9.315
				c0-5.145,4.171-9.315,9.315-9.315S1210.828,995.926,1210.828,1001.071z"/>
			<circle style="fill:#E894B1;" cx="1246.902" cy="1001.071" r="9.315"/>
			<path style="fill:#E894B1;" d="M1301.606,1001.071c0,5.145-4.171,9.315-9.315,9.315c-5.145,0-9.314-4.171-9.314-9.315
				c0-5.145,4.17-9.315,9.314-9.315C1297.435,991.756,1301.606,995.926,1301.606,1001.071z"/>
			<circle style="fill:#E894B1;" cx="1337.681" cy="1001.071" r="9.315"/>
		</g>
		<g>
			<path style="fill:#E894B1;" d="M1233.135,1025.103c0,3.326-2.696,6.022-6.021,6.022c-3.326,0-6.022-2.696-6.022-6.022
				c0-3.325,2.696-6.021,6.022-6.021C1230.438,1019.081,1233.135,1021.777,1233.135,1025.103z"/>
			<path style="fill:#E894B1;" d="M1277.361,1025.103c0,3.326-2.695,6.022-6.022,6.022c-3.326,0-6.021-2.696-6.021-6.022
				c0-3.325,2.695-6.021,6.021-6.021C1274.666,1019.081,1277.361,1021.777,1277.361,1025.103z"/>
			<path style="fill:#E894B1;" d="M1321.589,1025.103c0,3.326-2.696,6.022-6.022,6.022c-3.325,0-6.021-2.696-6.021-6.022
				c0-3.325,2.696-6.021,6.021-6.021C1318.893,1019.081,1321.589,1021.777,1321.589,1025.103z"/>
			<path style="fill:#E894B1;" d="M1363.309,1029.98c-0.995,0.717-2.19,1.154-3.505,1.154c-3.346,0-6.015-2.708-6.015-6.014
				c0-3.347,2.669-6.055,6.015-6.055c0.876,0,1.673,0.199,2.43,0.518C1362.632,1023.01,1362.99,1026.515,1363.309,1029.98z"/>
			<path style="fill:#E894B1;" d="M1188.907,1025.103c0,3.326-2.695,6.022-6.021,6.022s-6.021-2.696-6.021-6.022
				c0-3.325,2.695-6.021,6.021-6.021S1188.907,1021.777,1188.907,1025.103z"/>
		</g>
		<g>
			<path style="fill:#E894B1;" d="M1210.834,1049.139c0,1.116-0.199,2.151-0.519,3.147c-6.094-1.075-12.148-2.231-18.123-3.506
				c0.199-4.979,4.302-8.962,9.32-8.962C1206.651,1039.818,1210.834,1044.001,1210.834,1049.139z"/>
			<path style="fill:#E894B1;" d="M1256.218,1049.135c0,5.145-4.171,9.314-9.316,9.314c-5.144,0-9.315-4.17-9.315-9.314
				c0-5.146,4.171-9.315,9.315-9.315C1252.047,1039.819,1256.218,1043.989,1256.218,1049.135z"/>
			<path style="fill:#E894B1;" d="M1301.606,1049.135c0,5.145-4.171,9.314-9.315,9.314c-5.145,0-9.314-4.17-9.314-9.314
				c0-5.146,4.17-9.315,9.314-9.315C1297.435,1039.819,1301.606,1043.989,1301.606,1049.135z"/>
			<path style="fill:#E894B1;" d="M1346.979,1049.139c0,1.952-0.598,3.744-1.594,5.219c-4.222,0.916-8.604,1.712-13.064,2.39
				c-2.391-1.673-3.943-4.461-3.943-7.608c0-5.138,4.143-9.32,9.32-9.32C1342.836,1039.818,1346.979,1044.001,1346.979,1049.139z"/>
		</g>
	</g>
</g>
<path style="fill:#2B2150;" d="M1439.854,855.292c-0.313,0-0.631-0.074-0.926-0.229c-13.504-7.119-33.505-10.615-47.339-10.925
	c-1.099-0.025-1.971-0.937-1.947-2.036c0.027-1.099,0.747-1.904,2.036-1.947c13.253,0.297,34.067,3.456,49.107,11.383
	c0.972,0.514,1.346,1.717,0.832,2.692C1441.261,854.904,1440.57,855.292,1439.854,855.292z"/>
<path style="fill:#2B2150;" d="M1383.806,722.213c-0.013,0-0.024,0-0.038,0c-5.277-0.105-10.446-0.671-15.369-1.686
	c-3.592-0.739-6.023-0.905-9.386-1.134l-2.869-0.204c-2.944-0.224-7.264,0.076-11.449,0.37c-4.108,0.29-7.973,0.552-10.956,0.403
	c-1.097-0.061-1.941-0.998-1.883-2.097c0.061-1.101,0.988-1.941,2.097-1.883c2.709,0.154,6.653-0.13,10.464-0.397
	c4.329-0.299,8.809-0.607,12.033-0.367l2.834,0.202c3.388,0.229,6.062,0.412,9.919,1.206c4.685,0.967,9.611,1.505,14.643,1.604
	c1.101,0.022,1.975,0.932,1.953,2.031C1385.776,721.348,1384.888,722.213,1383.806,722.213z"/>
<g>
	<path style="fill:#6756A0;" d="M381.141,747.096c1.633,1.554,3.106,3.306,4.461,5.099h-46.205c3.187-2.19,6.731-3.864,10.436-5.099
		H381.141z"/>
	<path style="fill:#6756A0;" d="M467.815,752.194H447.54c-0.438-1.713-0.876-3.425-1.354-5.099h15.335
		C463.792,748.57,465.902,750.283,467.815,752.194z"/>
	<path style="fill:#6756A0;" d="M397.034,769.76c1.036,1.673,2.111,3.386,3.147,5.058h-76.078c0.518-1.752,1.155-3.426,1.872-5.058
		H397.034z"/>
	<path style="fill:#6756A0;" d="M482.114,774.819h-29.077c-0.398-1.673-0.757-3.386-1.155-5.058h27.922
		C480.64,771.433,481.397,773.106,482.114,774.819z"/>
	<path style="fill:#6756A0;" d="M410.178,792.384c0.757,1.673,1.474,3.386,2.031,5.099h-93.803c0.358-1.712,0.717-3.425,1.115-5.099
		H410.178z"/>
	<path style="fill:#6756A0;" d="M490.837,797.483h-32.702c-0.359-1.712-0.757-3.386-1.116-5.099h32.025
		C489.682,794.058,490.28,795.771,490.837,797.483z"/>
	<path style="fill:#6756A0;" d="M416.591,815.009c0.558,1.752,1.195,3.426,1.992,5.099H313.467c0.358-1.713,0.717-3.386,1.075-5.099
		H416.591z"/>
	<path style="fill:#6756A0;" d="M497.927,820.107h-35.012c-0.358-1.713-0.677-3.386-0.996-5.099h34.494
		C496.932,816.682,497.41,818.394,497.927,820.107z"/>
	<path style="fill:#6756A0;" d="M427.704,837.673c0.836,1.673,1.593,3.386,2.271,5.099H308.926c0.319-1.713,0.637-3.425,0.996-5.099
		H427.704z"/>
	<path style="fill:#6756A0;" d="M504.579,842.771h-37.72c-0.239-1.713-0.518-3.386-0.797-5.099h37.003
		C503.583,839.386,504.062,841.099,504.579,842.771z"/>
	<path style="fill:#6756A0;" d="M435.432,860.297c0.398,1.673,0.757,3.386,1.036,5.099H304.545c0.08-0.478,0.199-0.956,0.279-1.434
		c0.239-1.235,0.478-2.43,0.717-3.664H435.432z"/>
	<path style="fill:#6756A0;" d="M511.868,865.396h-41.823c-0.279-1.673-0.558-3.386-0.757-5.099h40.827
		C510.673,862.01,511.231,863.723,511.868,865.396z"/>
	<path style="fill:#6756A0;" d="M438.936,882.962c0.159,1.712,0.319,3.385,0.439,5.098H300.203c0.279-1.713,0.638-3.386,0.956-5.098
		H438.936z"/>
	<path style="fill:#6756A0;" d="M519.436,888.06h-44.213c-0.319-1.713-0.757-3.386-1.235-5.098h44.651
		C519.277,884.674,519.715,886.427,519.436,888.06z"/>
	<path style="fill:#6756A0;" d="M440.371,905.586c0.08,1.713,0.159,3.386,0.239,5.099H295.822c0.318-1.713,0.677-3.386,0.996-5.099
		H440.371z"/>
	<path style="fill:#6756A0;" d="M497.21,905.586c-1.752,1.593-3.386,3.306-4.939,5.099h-15.495c0-1.713,0-3.426-0.04-5.099H497.21z"
		/>
	<path style="fill:#6756A0;" d="M441.486,928.25c0.12,1.712,0.199,3.385,0.358,5.098H292.038c0.08-1.713,0.239-3.426,0.518-5.098
		H441.486z"/>
	<path style="fill:#6756A0;" d="M481.397,928.25c-0.677,1.672-1.314,3.385-1.832,5.098h-0.438c-0.518-1.673-0.916-3.386-1.234-5.098
		H481.397z"/>
	<path style="fill:#6756A0;" d="M444.633,955.973H301c-1.474-1.593-2.789-3.306-3.943-5.098h146.7
		C443.995,952.587,444.274,954.3,444.633,955.973z"/>
	<path style="fill:#6756A0;" d="M451.205,978.597H335.693c-3.107-1.713-6.214-3.425-9.321-5.098h122.602
		C449.572,975.252,450.209,977.044,451.205,978.597z"/>
	<path style="fill:#6756A0;" d="M442.322,996.163c-0.438,0.797-0.876,1.554-1.394,2.271c-0.677,0.996-1.474,1.952-2.31,2.828
		H324.381c0.518-1.713,1.076-3.426,1.713-5.099H442.322z"/>
	<path style="fill:#6756A0;" d="M423.681,1023.886H318.087c0.359-1.713,0.797-3.426,1.235-5.099H423.92
		C423.482,1020.46,423.362,1022.173,423.681,1023.886z"/>
	<path style="fill:#6756A0;" d="M451.643,1046.55H322.867c-3.027-0.637-5.935-1.593-8.643-3.066
		c0.119-0.678,0.199-1.354,0.358-2.032h131.644C448.178,1042.965,450.01,1044.678,451.643,1046.55z"/>
</g>
<path style="fill:#EE7B9D;" d="M478.707,936.793c0.832-6.115-0.235-12.31-1.23-18.4c-9.506-58.185-12.878-118.179-34.427-173.056
	c-3.087,6.125-7.423,15.711-31.514,9.228c-9.096-2.448-34.752-14.562-34.752-14.562c18.443,21.045,54.507,95.036,58.843,124.246
	c7.467,50.295,6.611,66.179,13.369,116.574c7.204,3.621,14.54,4.619,22.04,2.385c0.696-11.425,1.408-22.95,4.471-33.979
	C476.653,945.1,478.129,941.038,478.707,936.793z"/>
<path style="fill:#F5AE9E;" d="M422.04,1019.756c1.474,10.757,40.127,36.258,40.31,36.433c12.039,11.476,36.604,4.599,45.748-7.327
	c5.853-8.382-24.157-39.209-31.438-44.43c0,0,8.945-1.235,12.478-2.475c2.551-0.896,8.051-6.525,7.92-8.333
	c-0.405-5.532-1.991-6.469-5.978-5.271c-7.296,2.194-21.935-2.174-24.975-3.213c-4.337-1.47-10.4-1.528-15.109-0.111
	L422.04,1019.756z"/>
<path style="fill:#2B2150;" d="M1238.684,1043.525l-2.169-0.792l-0.22-1.268c-0.018-0.098-0.027-0.195-0.029-0.29
	c-0.338-2.453-3.071-20.698-7.746-46.493c-4.141-22.845-6.121-36.984-7.566-54.033c-0.093-1.095,0.72-2.06,1.816-2.151
	c1.092-0.112,2.061,0.72,2.151,1.817c1.434,16.909,3.401,30.949,7.52,53.656c5.573,30.771,7.225,41.899,7.497,46.089
	c0.139,0.216,0.237,0.463,0.282,0.732l-0.245,0.043c0,0.016,0.002,0.031,0.002,0.047l0.253-0.035l-0.253,0.049
	c0.037,1.509-0.188,1.7-0.41,1.887L1238.684,1043.525z"/>
<path style="fill:#2B2150;" d="M1222.021,930.549c-1.037,0-1.912-0.803-1.986-1.852c-0.32-4.59-0.638-9.499-0.974-14.88
	c-0.068-1.097,0.766-2.044,1.862-2.112c1.092-0.05,2.043,0.763,2.112,1.863c0.337,5.37,0.654,10.271,0.975,14.85
	c0.076,1.099-0.751,2.05-1.848,2.125C1222.114,930.547,1222.068,930.549,1222.021,930.549z"/>
<path style="fill:#2B2150;" d="M1375.691,488.045c-0.521,0-1.05-0.136-1.53-0.422c-2.209-1.32-4.688-1.937-7.363-1.83
	c-1.704,0.144-3.038-1.218-3.104-2.867c-0.063-1.649,1.22-3.038,2.867-3.104c3.787-0.149,7.488,0.772,10.666,2.67
	c1.416,0.846,1.879,2.68,1.032,4.098C1377.699,487.526,1376.707,488.045,1375.691,488.045z"/>
<path style="fill:#2B2150;" d="M1417.995,508.142c-0.871,0-1.734-0.379-2.323-1.108c-1.91-2.361-4.548-4.52-7.633-6.243
	c-1.438-0.805-1.954-2.625-1.15-4.067c0.81-1.439,2.622-1.953,4.068-1.149c3.794,2.122,6.943,4.714,9.358,7.702
	c1.039,1.284,0.839,3.165-0.443,4.201C1419.318,507.924,1418.654,508.142,1417.995,508.142z"/>
<rect x="1131.799" y="1318.597" transform="matrix(0.7506 -0.6608 0.6608 0.7506 -669.1569 1126.6129)" style="fill:#F7AF4D;" width="51.781" height="262.099"/>
<path style="fill:#9BD3D5;" d="M589.724,1567.918c0,0-10.197,0.279-25.413,1.195l-112.086,5.218
	c-9.998,0.598-20.434,0.956-20.434,0.956s-7.329-28.599,2.43-48.674c1.474-3.067,3.146-4.859,4.979-5.855l-0.04,1.354
	c3.864,13.861,27.604,18.401,33.977,12.706c16.132-14.459,26.448-17.526,29.276-18.084c0.478-0.079,0.717-0.119,0.757-0.119
	c0,0,40.947,18.521,60.105,14.658C592.632,1525.418,589.724,1567.918,589.724,1567.918z"/>
<path style="fill:#F5AE9E;" d="M503.17,1516.615c-0.279,0-11.233,1.314-30.033,18.203c-6.373,5.695-30.113,1.155-33.977-12.706
	l0.478-11.591l60.664-1.912L503.17,1516.615z"/>
<path style="fill:#2B2150;" d="M1787.421,1560.629h-75.561c4.979-1.514,9.839-3.346,14.658-5.496
	c64.687-28.958,93.764-105.116,64.806-169.803c-20.672-46.205-66.757-76.038-117.383-76.038c-16.57,0-32.782,3.187-48.236,9.439
	V987.492c0-20.673-16.85-37.601-37.521-37.601h-121.726c6.214-2.39,12.148-5.815,17.646-10.476
	c15.335-12.985,25.253-33.06,25.851-52.458c0.479-16.331-7.966-32.622-15.455-47.001c-5.129-9.878-8.964-20.067-12.228-30.71
	c3.292-0.506,6.573-0.914,9.679-2.191c11.033-4.54,17.446-16.331,15.574-28.719l-14.658-96.671c0,0,7.885-0.396,7.927-0.398
	c3.768-0.19,3.568-6.065-0.318-5.975l-8.484,0.438c-0.797-5.895-2.629-18.92-4.74-30.949c-1.912-10.635-3.983-20.434-5.815-23.779
	c-2.508-4.737-8.913-7.763-14.568-10.431c-10.799-5.095-22.112-8.597-33.429-12.313c-2.111-6.731-4.023-14.021-5.099-19.318
	c-0.518-2.669-0.836-4.819-0.836-6.213c0.079-0.04,0.159-0.12,0.239-0.16c12.268-8.484,19.716-16.649,27.005-26.169
	c2.391-3.147,14.459-14.977,17.207-18.681c6.992-9.424,1.753-21.454-9.957-22.625c-4.859-0.438-9.52,1.115-13.344,4.342
	c-3.426-9.281-13.104-28.161-36.048-32.662c-3.784-0.757-7.887-1.155-12.228-1.554c-8.744-0.802-18.576-1.356-25.855-7.112
	c-7.32-5.787-13.112-14.341-6.728-23.04c5.576-7.648,16.969-12.388,24.815-13.025c1.155-0.08,2.23-0.677,4.182-1.752
	c5.378-2.987,17.925-9.918,39.035-8.165c21.151,1.832,37.203,9.639,47.639,23.262c11.989,15.693,15.296,34.693,15.973,47.838
	c0.398,7.408-0.558,14.857-1.434,22.106c-1.274,10.077-2.55,20.513-0.479,31.188c1.115,5.577,13.344,18.044,14.658,20.036
	c4.581,6.891,9.6,17.127,7.409,26.767c-0.598,2.629-6.135,15.216-6.612,19.398c-1.274,11.272,5.218,19.677,11.432,27.842
	c3.466,4.501,6.731,8.763,8.604,13.304c2.55,6.254,2.788,13.383,0.638,19.757l-19.159,0.996c0.518-7.488-1.713-15.694-6.135-22.067
	c-1.712-2.43-12.308-13.343-13.622-17.446c-2.788-8.643-0.836-18.163,1.076-27.404c0.318-1.673,0.677-3.385,0.995-5.058
	c1.274-6.571-1.433-12.824-3.942-17.523c-1.201-2.251-4.758-0.443-3.506,1.87c2.311,4.381,4.541,9.56,3.545,14.897
	c-0.318,1.673-0.677,3.346-0.996,5.019c-2.031,9.719-4.103,19.796-0.956,29.436c1.594,4.979,12.627,16.331,14.101,18.482
	c4.262,6.134,6.254,14.419,5.258,21.39c-1.172,2.01,0.436,4.549,2.748,4.421l22.863-1.115c1.155-0.08,2.191-0.797,2.629-1.873
	c3.386-8.245,3.386-17.765,0-26.05c-2.19-5.297-5.854-10.077-9.36-14.658c-5.815-7.568-11.271-14.698-10.276-23.54
	c0.398-3.266,5.775-15.534,6.532-18.761c2.111-9.4-0.677-19.956-8.284-31.387c-1.634-2.47-13.025-14.061-13.742-17.884
	c-1.912-9.719-0.757-19.239,0.518-29.276c0.916-7.528,1.872-15.255,1.474-23.182c-0.717-13.981-4.302-34.255-17.207-51.144
	c-11.512-15.017-28.958-23.62-51.9-25.572c-22.903-1.952-36.565,5.616-42.381,8.843c-0.956,0.558-1.673,0.956-1.793,1.076
	c-9.399,0.717-22.425,6.253-29.156,15.414c-3.784,5.138-5.099,10.874-3.784,16.53c0.358,1.553,1.035,3.027,1.912,4.461
	c-3.744,7.967-7.488,17.327-11.711,27.962c-2.031,5.138-3.346,10.994-4.103,18.442c-0.598,6.055-0.677,12.507-0.239,19.199
	c1.713,25.054,11.751,42.46,28.48,49.63l-3.147,16.371c-5.815,0.717-9.759,1.315-10.436,1.434
	c-5.815,0.04-22.225,1.554-26.847,15.853c-2.311,7.17-6.691,14.379-11.312,22.027c-10.437,17.287-22.027,36.406-16.331,63.292
	l-11.87,33.777c-7.528,3.385-13.423,8.484-15.693,15.335c0,0-138.216,0-138.495,0c-1.832,0-3.386,1.872-2.867,3.784l8.284,30.192
	c-13.423-4.581-27.403-6.891-41.584-6.891c-34.773,0-66.957,13.503-90.736,36.685v-36.765c0-5.377-4.939-9.759-11.033-9.759h-6.532
	v-13.662h3.744c7.648,0,13.822-6.612,13.822-14.738V605.427c0-8.126-6.174-14.738-13.822-14.738h-3.744v-72.494
	c0-22.345-16.57-40.508-36.964-40.508H470.747c-20.394,0-36.963,18.163-36.963,40.508v37.521
	c-25.015-4.222-59.986,3.107-69.268,30.192c-0.518,1.514-4.023,1.912-5.297,2.39c-2.788,0.996-5.138,2.708-7.369,4.661
	c-15.574,13.622-17.805,34.414-15.336,53.773c1.593,12.268,6.015,22.624,14.977,31.347c10.516,10.197,20.115,11.95,23.461,12.228
	c0,0.2,7.966,11.472,12.826,16.132c-0.757,1.752-11.352,28.798-11.512,28.997c-0.04,0.04-0.04,0.12-0.08,0.16
	c-8.922,3.027-29.914,11.073-32.264,11.83c-6.612,2.071-11.432,3.704-13.742,5.377c-4.82,3.585-8.444,8.723-10.237,14.498
	c-0.199,0.319-31.268,150.643-31.268,150.643c-5.218,19.159-0.637,37.721,12.029,48.435c0.12,0.12,0.279,0.239,0.478,0.358
	l24.616,13.822c-0.677,7.01-4.422,19.199-8.086,31.028c-4.262,13.901-8.325,27.006-8.444,34.455
	c-0.04,1.314,0.836,2.549,2.111,2.907c2.231,0.677,4.661,1.274,7.25,1.793c-4.342,29.714-1.952,63.89,3.027,75.6l-4.143,141.124
	l-50.068,225.128c-0.199,0.797-0.04,1.594,0.398,2.271c0.279,0.438,0.638,0.757,1.076,0.996l-1.274,4.979
	c-2.111,0.956-4.063,2.629-5.935,5.019c-14.339,18.203-13.423,47.759-13.383,49.033c0.04,1.394,1.075,2.549,2.469,2.828
	c0,0,8.285,1.514,17.128,2.907H200.45c-1.633,0-2.987,1.314-2.987,2.987c0,1.634,1.354,2.987,2.987,2.987h102.925
	c0,0,103.642,17.526,103.841,17.526c1.274,0,2.47-0.876,2.868-2.151c0.159-0.558,2.032-7.249,2.39-15.375h14.698
	c0.717,5.417,1.633,9.042,1.752,9.44c0.319,1.314,1.514,2.23,2.868,2.23h0.119c0,0,157.773-7.369,157.893-7.369
	c1.474-0.039,2.669-2.867,2.868-4.302c0,0,1193.241,0,1194.747,0C1791.256,1566.604,1791.321,1560.629,1787.421,1560.629z
	 M1486.055,836.61c0.996,1.992,2.071,4.023,3.147,6.094c7.13,13.742,15.216,29.276,14.777,44.054
	c-0.558,17.765-9.64,36.167-23.74,48.077c-16.65,14.101-37.401,15.017-59.349,15.973c-3.903,0.199-57.955,2.35-68.272,1.673
	l-2.868-0.318c-1.194-3.107-2.35-6.055-3.465-8.803c-3.585-9.081-6.452-16.25-6.891-21.309c-0.334-3.846-6.345-3.323-5.976,0.557
	c0.559,5.935,3.546,13.463,7.329,22.983c3.824,9.639,8.604,21.588,12.149,35.49c3.664,18.203,7.887,43.417,8.483,65.802
	c-56.242,18.88-142.438,7.249-199.556-8.563c4.58-16.45,15.893-50.347,27.165-82.372c0.677-1.992,24.416-67.037,27.882-72.653
	c1.832-2.908,16.609-14.698,16.689-15.534c0,0,104.08-0.04,104.359-0.12c0,0,78.536-22.587,78.667-22.624
	c3.131-0.901,2.602-5.764-0.717-5.855l-83.527-2.987l-1.593-5.736c3.664-1.514,7.448-2.748,11.272-3.784
	c1.593-0.398,2.549-2.031,2.15-3.625c-0.398-1.593-2.071-2.549-3.625-2.151c-0.093,0.023-1.563-12.08-3.089-23.981
	c-1.096-8.539-2.22-16.973-2.886-20.75l141.442,33.22C1478.965,818.964,1483.068,830.635,1486.055,836.61z M1313.505,1096.631
	c3.784,1.553,7.408,4.063,10.355,7.289c5.577,6.174,9.6,14.737,12.269,26.09c-9.559,6.134-15.813,13.939-19.756,24.493
	c-0.892,2.388,2.786,3.793,3.743,1.397c3.426-9.241,8.843-16.172,16.889-21.668c0.394,1.808,1.117,4.187,0.718,6.054
	c-0.239,1.115-1.354,2.111-2.51,3.227c-5.497,5.059-13.145,13.104-15.813,24.178c-0.916,3.744-1.234,7.647-1.554,11.432
	c-0.478,6.174-0.955,12.029-3.863,16.331c-2.15,3.266-5.695,5.457-8.843,7.249c-11.551,6.572-23.938,11.352-36.884,14.22
	c-1.354,0.279-2.868,0.519-3.744,0.159c-0.876-0.397-1.792-1.514-2.51-2.589c9.319-2.07,25.925-8.521,30.668-11.23
	c2.248-1.284,0.278-4.75-1.988-3.428c-5.139,2.908-23.382,9.719-31.148,11.113c-3.944-5.975-6.892-12.069-5.577-17.605
	c1.115-4.7,4.939-7.528,9.36-10.795c2.788-2.11,5.736-4.262,8.086-7.09c1.793-2.15,3.147-4.501,4.143-7.01
	c0.119,0.079,0.279,0.079,0.398,0.079c6.214-0.478,12.666,1.793,17.287,5.975c1.489,1.349,2.837,2.917,4.499,4.063
	c5.256,3.621,10.812,1.429,13.266-4.182c1.434-3.306,1.633-6.651,0.598-9.479c-1.155-3.187-3.824-5.377-6.254-7.09
	c-7.567-5.378-18.123-8.963-27.443-9.44c-0.159-2.987-0.479-5.975-0.837-9.002c2.629,2.15,5.815,3.306,9.281,3.306
	c7.767,0,15.534-5.576,21.907-15.653C1313.066,1119.295,1315.218,1106.35,1313.505,1096.631z M1339.275,1147.854
	c0.16-0.16,0.319-0.279,0.479-0.479l9.32,31.388c0.398,1.354-0.318,2.828-1.792,3.346c-1.354,0.438-2.868-0.239-3.386-1.554
	l-10.636-26.408C1334.974,1152.076,1336.966,1149.965,1339.275,1147.854z M1276.819,1164.504c0.956-3.824,1.275-7.887,1.195-12.109
	c8.444,0.519,18.243,3.864,25.015,8.644c1.951,1.395,4.022,3.107,4.86,5.261c1.135,3.065-0.32,9.157-3.983,10.074
	c-3.164,0.792-6.017-2.999-8.007-4.819C1290.801,1166.894,1283.711,1164.305,1276.819,1164.504z M1303.188,1123.836
	c-5.139,8.165-11.272,12.865-16.849,12.865c-4.223,0-7.688-2.868-9.56-7.927l-26.129-68.191c13.184,1.274,26.488,1.991,39.513,1.991
	c2.47,0,4.939-0.039,7.409-0.079l9.479,32.582C1309.481,1103.441,1307.729,1116.626,1303.188,1123.836z M1334.018,842.226
	l62.895,2.23l-57.716,16.61L1334.018,842.226z M1329.597,782.598c0.678,4.362,1.629,9.873,2.552,15.544
	c1.462,8.983,2.853,18.368,2.975,24.229c-1.633,0.558-4.292,1.613-5.925,2.29l-9.599-34.932
	C1323.741,788.772,1327.326,786.183,1329.597,782.598z M1317.966,783.873l-3.187-11.631l11.711,2.31l-0.996,2.828
	C1324.299,780.766,1321.352,783.196,1317.966,783.873z M1360.904,775.429l7.369-29.117l8.006,1.354
	c-1.554,6.213-5.139,20.513-7.847,29.635L1360.904,775.429z M1428.22,601.563c0.08,0.239,0.199,0.478,0.318,0.677
	c0.119,0.279,0.239,0.876-0.199,2.031c-2.11,5.417-13.582,13.822-23.58,17.208c-14.379,4.859-24.297,4.66-28.52-0.717
	c-4.262-5.456-2.071-14.578-2.031-14.857l4.979-26.09c0.04,0,0.04,0,0.08,0c3.903,1.076,8.165,1.593,12.627,1.593
	c9.52,0,19.876-2.509,29.794-6.851c0.119,1.274,0.318,2.669,0.558,4.183c0,0.08,0.04,0.159,0.04,0.239
	C1423.799,587.503,1427.304,598.656,1428.22,601.563z M1351.025,527.716c-0.438-6.333-0.357-12.467,0.239-18.203
	c0.678-6.851,1.872-12.229,3.704-16.809c3.864-9.639,7.21-17.924,10.396-24.974c1.474,1.553,3.027,2.947,4.422,4.182l0.518,0.478
	c7.448,6.692,19.159,7.807,29.515,8.763c4.183,0.398,8.126,0.796,11.631,1.474c26.249,5.178,32.742,32.224,33.021,33.379
	c0.239,1.115,1.155,2.031,2.351,2.23c1.115,0.239,2.31-0.239,2.987-1.195c2.947-4.222,7.209-6.413,11.631-5.975
	c3.386,0.319,6.293,2.191,7.448,4.74c1.075,2.47,0.479,5.338-1.753,8.325c-2.469,3.346-5.377,6.214-8.483,9.241
	c-2.948,2.908-6.015,5.935-8.644,9.4c-6.055,7.927-12.229,14.857-21.43,21.788c-11.75,6.731-24.895,10.874-36.685,10.874
	c-3.943,0-7.647-0.438-11.034-1.394C1357.239,567.587,1352.021,542.254,1351.025,527.716z M1326.888,636.536
	c4.82-7.966,9.36-15.454,11.91-23.302c3.425-10.635,16.331-11.75,21.708-11.75c0.199,0,5.537-0.757,8.724-1.195l-0.837,4.341
	c-0.119,0.478-2.908,12.029,3.146,19.796c3.386,4.342,8.684,6.533,15.813,6.533c5.337,0,11.87-1.275,19.318-3.824
	c10.675-3.625,24.178-12.826,27.244-20.712c0.199-0.558,0.359-1.075,0.479-1.553l5.019,1.633
	c-3.704,6.852-14.26,16.65-27.643,23.063c-10.078,4.78-25.055,9.241-39.274,3.266c-5.775-2.429-9.24-6.492-12.028-14.058
	c-0.887-2.408-4.622-1.086-3.745,1.352c3.187,8.644,7.409,13.503,14.22,16.371c4.979,2.111,10.437,3.146,16.212,3.146
	c8.325,0,17.287-2.191,26.328-6.493c13.265-6.333,25.493-16.928,29.715-25.373c3.286,0,17.721,6.641,21.108,8.204
	c8.523,3.934,13.734,7.593,15.178,17.288l22.146,145.983c1.435,9.639-3.465,18.799-11.948,22.305
	c-2.533,1.047-8.43,2.754-11.233,2.191l-106.151-25.493c2.788-9.36,6.413-23.899,7.887-29.914l71.697,12.109
	c-0.04-0.04-0.08-0.04-0.12-0.08c0.08,0.04,0.12,0.04,0.201,0.081c2.213,1.106,4.804,1.324,6.969,2.509
	c6.771,3.704,10.077,7.09,13.226,11.353c2.184,3.12,7.066-0.525,4.778-3.546c-3.505-4.78-7.408-8.842-15.137-13.025
	c-2-1.135-4.333-1.23-6.332-2.23c0,0-0.398-0.159,0,0c0,0-14.539-88.063-14.579-88.306c-0.606-3.674-6.549-2.873-5.894,0.956
	l14.18,85.757l-82.372-13.901l-38.995-13.383c-1.673-0.318-3.386-0.558-5.178-0.717c-1.792-4.7-3.625-9.121-5.497-13.264
	C1301.476,678.558,1314.979,656.212,1326.888,636.536z M1308.287,706.759c0.916,2.708,2.07,5.537,3.385,8.405
	c1.514,3.306,3.027,6.851,4.462,10.555c-5.139,0.079-10.396,0.836-15.296,2.19L1308.287,706.759z M1317.408,731.653
	c1.035,0,2.071,0.04,3.067,0.08c2.071,0.12,4.063,0.358,5.975,0.717l36.008,12.388l-7.369,29.316l-42.063-8.325l-4.899-17.805
	c-0.358-1.274-1.553-2.191-2.907-2.191h-20.872C1289.008,736.593,1303.984,731.653,1317.408,731.653z M1143.344,751.808h159.605
	l30.232,109.976h-159.605L1143.344,751.808z M1012.497,847.285v-28.998c22.943-24.695,55.445-39.314,90.736-39.314
	c14.897,0,29.556,2.669,43.576,7.966l21.589,78.628c0.358,1.314,1.553,2.191,2.867,2.191h53.813
	c-4.302,3.266-10.953,8.644-13.264,12.388c-3.943,6.373-15.256,36.267-26.847,69.008H994.932v-92.15h6.532
	C1007.558,857.004,1012.497,852.662,1012.497,847.285z M1001.464,769.055c2.748,0,5.059,1.713,5.059,3.784v74.445
	c0,2.032-2.311,3.744-5.059,3.744h-6.532v-81.974H1001.464z M375.013,683.88c-4,1.472-13.759-5.032-15.951-6.735
	c-10.547-8.193-15.908-21.618-17.494-34.879c-1.189-9.953-0.465-20.297,3.409-29.542c3.874-9.245,11.119-17.294,20.461-20.928
	c2.567-0.998,3.682-2.371,4.874-4.965c6.876-14.953,23.283-23.8,39.632-25.688c16.349-1.888,32.779,2.115,48.535,6.872
	c3.492,1.054,5.342,0.388,8.646-1.109c4.851-2.199,10.658-1.011,15.325,1.555c7.844,4.313,13.485,12.692,13.845,21.637
	c0.51,12.686-9.408,24.025-21.185,28.771c-11.776,4.745-24.99,4.146-37.575,2.469c-15.971-2.129-32.045-6.009-45.699-14.563
	c-2.125-1.331-5.606-2.398-6.542-0.073c-0.615,1.531,0.67,3.104,1.783,4.322c4.347,4.761,7.471,10.609,9.108,16.84
	c1.559,5.932,2.961,13.074,0.316,18.916c-0.306,0.675-0.725,1.388-1.432,1.61c-1.087,0.34-2.097-0.634-2.876-1.465
	c-3.549-3.788-8.512-6.499-13.702-6.386c-5.189,0.113-10.414,3.513-11.738,8.532c-1.542,5.84,2.168,11.627,5.505,16.661
	c3.336,5.033,6.581,11.297,4.155,16.826C376.123,683.226,375.638,683.65,375.013,683.88z M498.151,605.746
	c2.31,6.413,3.426,13.423,3.107,20.354c-0.239,5.417-1.514,12.945-6.174,18.163c-0.199-1.792-0.438-3.584-0.757-5.377
	c-1.354-7.887-3.027-15.096-5.019-21.628C492.934,613.911,495.921,609.968,498.151,605.746z M380.091,687.719
	c-0.16-0.199,0.398-2.549,0.677-3.465c1.713-5.497,1.593-11.511-0.12-17.008c-4.023-4.66-6.731-9.161-7.727-12.666
	c-0.518-1.673-0.637-3.107-0.318-4.262c0.199-0.597,0.677-2.43,4.142-3.584c2.509-0.598,6.493-0.717,12.229,5.337
	c2.43,2.549,5.935,3.027,9.161,1.195c4.182-2.39,7.528-8.643,5.577-15.534c-0.757-2.589-0.996-4.899-1.275-7.369
	c-0.438-3.943-0.876-7.966-3.346-12.746c9.639,4.381,20.991,7.209,34.335,8.524c2.032,0.199,4.143,0.438,6.254,0.677
	c13.822,1.633,29.476,3.425,42.182-3.983c0.797-0.478,1.593-0.956,2.35-1.513c1.673,5.616,3.067,11.83,4.222,18.601
	c1.195,6.891,1.593,13.861,1.234,20.712c-0.438,8.484-2.071,16.61-4.899,24.217c-7.528,20.514-22.226,34.057-40.27,37.203
	c-2.351,0.438-4.82,0.637-7.329,0.637C415.859,722.691,393.793,708.193,380.091,687.719z M474.93,1006.851
	c9.958,7.169,34.215,35.33,30.79,40.189c-4.819,6.294-14.817,11.193-24.337,11.95c-7.01,0.557-13.065-1.235-16.968-4.939
	c-0.04-0.04-4.501-3.146-6.174-4.342c-20.434-14.3-30.949-24.576-32.941-29.276l28.002-34.295c0.08-0.08,0.16-0.199,0.2-0.279
	c3.758,1.222,7.77,1.338,11.63,2.111c0.199,0.04,17.725,5.975,26.818,3.223c1.26-0.338,2.932,0.526,2.1,2.234
	c-0.757,1.553-4.501,5.218-5.895,5.696c-2.668,0.956-9.476,2.03-11.908,2.35C473.6,1001.82,472.793,1005.312,474.93,1006.851z
	 M510.539,1050.585c6.652-9.56-16.092-33.937-27.125-44.213c2.47-0.438,5.059-1.035,6.731-1.593
	c2.828-0.996,10.157-7.409,9.878-11.392c-0.199-2.789-0.717-5.895-3.067-7.488c-2.191-1.514-4.74-0.996-6.731-0.398
	c-3.505,1.075-9.759,0.239-15.136-0.996v-0.239c0-67.594,54.968-122.562,122.522-122.562c67.555,0,122.522,54.968,122.522,122.562
	c0,67.555-54.967,122.522-122.522,122.522c-39.433,0-74.565-18.761-96.99-47.798C504.604,1056.72,508.069,1053.852,510.539,1050.585
	z M500.263,900.46c-4.262-39.394-10.755-70.622-19.279-92.927c-0.597-1.513-2.31-2.31-3.863-1.713
	c-1.514,0.598-2.311,2.311-1.713,3.864c8.803,22.903,15.335,55.685,19.517,97.428c-5.019,6.652-9.44,13.861-13.064,21.469
	c-0.279-3.426-5.855-40.389-7.847-54.928c-5.855-43.297-12.712-90.03-28.963-131.376c0,0,5.121,1.454,8.341,2.788
	c4.669,1.935,8.762,4.383,12.298,7.544c1.728,1.3,4.564,4.82,5.417,6.089c13.264,19.756,33.538,84.961,44.532,126.665
	C510.101,889.944,504.962,895.003,500.263,900.46z M468.079,874.45c1.992,14.578,4.023,29.674,6.453,44.412
	c0,0,1.952,12.029,1.235,17.526c-0.398,2.868-1.275,5.696-2.151,8.683c-0.358,1.115-0.677,2.231-0.996,3.346
	c-2.946,10.668-3.783,21.695-4.42,32.405c-0.079,1.247-8.744,0.304-9.481,0.177c-2.311-0.398-4.621-1.155-6.971-2.191
	c-2.987-22.346-4.421-37.84-5.855-52.816c-1.673-18.004-3.266-35.052-7.329-62.177c-3.187-21.668-23.302-66.758-41.107-97.986
	c6.732,3.585,16.809,7.648,27.962,7.648c4.859,0,9.958-0.757,15.056-2.669c1.036-0.398,1.554-1.554,1.155-2.589
	c-0.398-1.036-1.514-1.554-2.549-1.155c-19.557,7.369-39.553-4.222-45.806-8.444c-2.43-4.023-4.74-7.688-6.971-10.954
	c8.206,3.664,19.039,8.325,24.457,9.798c5.577,1.474,10.556,2.231,14.738,2.231c9.201,0,14.021-3.585,16.968-7.489
	C456.806,791.281,462.542,833.543,468.079,874.45z M392.478,710.702c12.945,10.954,28.44,17.725,43.895,17.964
	c0.199,7.369,0.558,15.176,0.996,20.394c-2.151,2.629-5.457,4.66-11.87,4.66c-3.664,0-8.126-0.677-13.184-2.031
	c-5.975-1.593-19.637-7.688-27.803-11.392c-0.916-0.956-1.673-1.952-2.27-2.947C383.596,734.681,391.602,712.972,392.478,710.702z
	 M304.331,961.642c-10.675-9.241-14.459-25.333-9.839-42.302l30.511-147.815c1.036-5.537,4.222-10.595,8.723-13.901
	c1.673-1.235,7.887-3.187,11.989-4.501c2.549-0.796,21.39-8.086,29.157-10.754c17.964,20.872,53.494,93.206,57.795,122.323
	c4.023,26.966,5.617,43.934,7.289,61.858c1.355,14.458,2.748,29.356,5.537,50.387l-89.183-59.548c0,0,16.792-83.919,16.888-84.401
	c0.757-3.784-5.091-5.017-5.854-1.197c0,0-16.889,84.443-16.893,84.444c-3.403,0.678-5.939,1.228-8.917,3.185
	c-2.411,1.584-1.271,5.458,1.631,5.458c0.597,0,1.154-0.159,1.671-0.516c2.318-1.603,4.84-1.894,7.53-2.391l94.242,62.934
	l-26.807,32.901l-0.319,0.398l-4.501,5.497l-84.324-47.32c-0.159-0.08-0.358-0.199-0.558-0.279L304.331,961.642z M315.404,1043.854
	c0.797-7.09,4.461-18.96,8.046-30.511c3.466-11.232,6.771-21.987,8.006-29.635c0,0,82.77,46.404,82.772,46.405
	c1.278,0.743,2.861,0.415,3.782-0.719l3.266-4.022c4.381,6.731,14.499,15.335,25.372,23.381c-10.038-0.239-22.266-0.119-35.012,0.04
	C378.418,1049.111,337.311,1049.55,315.404,1043.854z M323.41,1268.504c0.04-0.199,4.222-142.757,4.222-142.757
	c0-0.358-0.08-0.717-0.239-1.115c-0.04-0.159-0.159-0.318-0.239-0.478c-4.461-10.356-6.572-43.695-2.549-72.334
	c18.92,2.947,44.771,3.227,70.064,3.066c-7.549,10.891-21.615,17.796-35.009,15.813c-2.498-0.369-3.12,3.563-0.561,3.943
	c1.833,0.239,3.665,0.398,5.457,0.398c1.195,0,2.39-0.04,3.585-0.199l-13.423,204.018l-43.536,195.932l-32.264-6.214
	L323.41,1268.504z M310.027,1498.133c0.08-0.119,0.119-0.238,0.159-0.397l4.063-18.323l44.492,8.564l-3.824,19.119L310.027,1498.133
	z M332.532,1515.579c3.903,2.908,21.031,15.057,37.441,22.067c-1.274,1.035-2.788,1.673-3.824,2.071
	c-4.979,1.792-10.635,1.633-15.534-0.358c-3.784-1.594-22.106-14.419-30.67-21.15c6.811-2.351,10.994-2.63,12.547-2.63
	C332.532,1515.579,332.532,1515.579,332.532,1515.579z M278.042,1472.481l32.264,6.175l-4.023,18.202
	c-0.04,0.159-0.04,0.358-0.04,0.519l-32.303-6.453L278.042,1472.481z M274.815,1497.178l55.127,11.033l0.199,1.514
	c-5.218,0.478-15.534,2.708-31.308,11.67c-0.717,0.398-1.832,0.638-3.147,0.638c-8.524,0-21.908-7.768-22.824-17.406
	L274.815,1497.178z M406.499,1566.604c-0.199,4.501-0.996,8.564-1.514,11.073c-4.023-0.717-147.059-24.775-150.683-25.412
	c0-1.634,0.08-3.983,0.319-6.852l145.066,24.537c0,0,0.316,0,0.319,0c2.315,0,2.566-3.536,0.318-3.943l-123-20.792
	c0.2-3.227-0.199-6.492-1.154-9.758c-0.539-1.84-3.447-1.959-3.815,0.091c-0.128,0.712,0.093,1.434,0.278,2.133
	c0.59,2.23,0.83,4.553,0.709,6.857c-6.106-1.036-12.212-2.071-18.317-3.107c0.778-7.391,2.615-14.669,5.438-21.544
	c3.202,2.345,5.936,5.324,7.997,8.715c0.455,0.747,0.891,1.531,1.563,2.093c1.696,1.417,4.351-0.151,3.119-2.289
	c-2.708-4.7-6.453-8.922-10.954-12.229c1.195-2.35,2.589-4.58,4.222-6.612c0.398-0.478,0.757-0.916,1.076-1.274
	c3.306,11.631,18.163,19.717,28.201,19.717c2.39,0,4.461-0.478,6.094-1.394c5.257-2.987,9.878-5.179,13.782-6.771
	c7.688,6.214,28.718,21.19,33.538,23.182c5.777,2.388,12.518,2.57,18.402,0.438c2.788-0.996,4.978-2.43,6.492-4.183
	c5.417,2.031,10.675,3.386,15.136,3.426c6.134,0.119,10.555,2.031,13.423,5.935c2.43,3.267,3.545,7.608,3.864,11.989
	C406.579,1562.66,406.579,1564.692,406.499,1566.604z M431.553,1525.299c-5.537,11.352-5.895,25.054-5.059,35.33h-14.1
	c-0.398-5.496-1.752-11.113-5.019-15.534c-4.023-5.417-10.117-8.205-18.163-8.364c-16.649-0.239-47.081-21.589-52.897-25.771
	l-0.199-1.514c0,0,20.461,4.084,20.555,4.104c1.56,0.309,3.2-0.83,3.503-2.351l44.332-222.539l40.19-187.767
	c0.359-1.633-0.677-3.227-2.31-3.545c-1.593-0.358-3.186,0.678-3.545,2.271l-40.19,187.846l-39.154,196.608l-44.373-8.523
	l43.536-196.131l13.463-204.814c0-0.079,0-0.199-0.04-0.278c3.983-0.757,7.807-2.111,11.352-4.063
	c3.631-1.999,6.904-4.245,9.762-7.281c0.871-0.925,5.505-8.086,6.21-8.094c4.103-0.039,45.05-0.478,56.043,0.16
	c1.593,1.115,5.019,3.465,5.019,3.465c4.581,4.262,11.033,6.532,18.442,6.532c0.956,0,1.952-0.04,2.947-0.119
	c3.386-0.279,6.811-0.956,10.117-2.031l11.033,224.889l-0.757,199.238l-50.665,2.43c-1.115,0.079-1.952,0.995-1.912,2.111
	c0.08,1.075,0.956,1.872,1.992,1.872h0.12l50.427-2.43l-0.04,14.538l-75.64,2.43l-1.474-221.265c0-0.079,0-0.119-0.04-0.199
	c0.04-0.079,0.04-0.159,0-0.239c0-0.039-0.04-0.119-0.04-0.159c-0.159-1.752-5.975-17.247-5.975-17.247
	c-0.597-1.554-2.31-2.35-3.863-1.753c-1.554,0.598-2.311,2.311-1.753,3.864c0,0,5.417,14.34,5.577,15.335l1.633,224.73
	c0,0.836,0.319,1.593,0.917,2.15c0.558,0.558,1.274,0.837,2.15,0.837l12.826-0.398l-0.199,5.536
	C434.46,1520.519,432.868,1522.59,431.553,1525.299z M502.652,1519.723c0,0,20.872,8.922,37.203,12.706
	c-0.04,0.079-0.08,0.159-0.08,0.239c-0.199,1.273-0.996,2.588-2.271,3.903c-2.031,2.11-4.7,3.584-7.528,4.222
	c-4.62,1.036-9.52-0.119-13.781-1.234c-10.356-2.828-20.394-6.652-29.954-11.472
	C494.487,1522.312,502.533,1519.723,502.652,1519.723z M471.146,1532.588c-1.155,1.035-3.665,1.633-6.691,1.633
	c-8.883,0-19.796-4.779-22.266-12.507l0.358-8.285l55.645-1.753l1.036,2.868C494.208,1516.137,484.529,1520.559,471.146,1532.588z
	 M432.389,1561.375c-0.837-9.6-0.478-23.171,4.542-33.447c0.279-0.558,0.558-1.076,0.797-1.514
	c4.978,9.479,18.043,13.781,26.727,13.781c3.266,0,7.767-0.558,10.675-3.146c2.668-2.43,5.218-4.501,7.528-6.333
	c10.356,5.377,21.27,9.639,32.503,12.666c3.346,0.916,7.09,1.793,10.954,1.793c1.553,0,3.147-0.12,4.7-0.479
	c3.585-0.797,7.01-2.708,9.56-5.337c1.872-1.912,2.987-3.943,3.306-6.015c0-0.04,0-0.04,0-0.08c4.82,0.956,9.48,1.554,13.663,1.554
	c2.43,0,4.621-0.199,6.532-0.598c6.652-1.354,11.711-0.04,15.455,3.983c3.864,4.103,5.776,10.396,6.652,16.092l-130.807,6.134
	c-1.235-8.046-6.134-15.494-13.822-21.07c-0.916-0.638-2.151-0.438-2.788,0.478c-0.638,0.876-0.439,2.111,0.438,2.749
	c6.692,4.859,10.954,11.192,12.188,18.003C451.19,1560.589,432.429,1561.654,432.389,1561.375z M434.182,1572.221
	c-0.279-1.354-1.115-6.374-1.155-6.771l153.431-7.17c0.08,0.796,0.358,5.576,0.358,6.731
	C582.754,1565.17,437.847,1572.061,434.182,1572.221z M762.594,1415.442v145.187H592.672c-0.398-7.607-2.191-19.318-8.962-26.487
	c-5.138-5.537-12.308-7.528-20.991-5.776c-1.553,0.319-3.346,0.479-5.377,0.479c-17.566,0-45.767-11.83-51.781-14.459l-0.318-2.947
	c1.593-0.04,2.868-1.354,2.868-2.987l0.876-220.787l-10.914-222.221c23.62,28.878,59.429,47.32,99.539,47.32
	c70.86,0,128.497-57.637,128.497-128.497s-57.636-128.537-128.497-128.537c-28.838,0-55.446,9.52-76.875,25.612
	c-5.946-22.149-12.44-44.174-19.666-65.939c-5.618-16.924-12.793-32.966-19.196-49.557c-2.095-5.429-5.107-10.498-9.058-14.804
	c-4.943-5.387-10.904-9.087-17.773-11.423c-1.085-0.369-12.379-3.335-12.417-4.061c-0.119-2.35-0.199-4.78-0.279-7.169
	c1.076-0.12,2.151-0.239,3.186-0.438c19.876-3.465,36.645-18.8,44.851-41.027c3.027-8.165,4.78-16.928,5.218-25.97
	c0.199-3.106,0.199-6.213,0.079-9.32c1.395-0.916,2.669-1.992,3.784-3.227c5.895-6.572,7.488-15.614,7.767-22.066
	c0.478-9.998-1.633-19.837-5.975-28.48c0.797-3.027,1.195-6.134,1.155-9.161c-0.04-3.306-0.598-6.015-1.713-8.405
	c-2.828-6.134-11.312-20.394-28.838-20.553c-4.023,0-8.285,1.992-10.436,3.187c-2.987-1.115-10.516-3.744-21.668-6.094v-38.637
	c0-19.04,13.901-34.534,30.989-34.534h487.221c17.087,0,30.989,15.494,30.989,34.534v106.55c0,1.673,1.354,2.987,2.987,2.987
	c1.673,0,2.988-1.314,2.988-2.987v-28.081h3.744c4.342,0,7.847,3.943,7.847,8.763v129.254c0,4.86-3.505,8.763-7.847,8.763h-3.744
	v-96.791c0-1.633-1.315-2.987-2.988-2.987c-1.633,0-2.987,1.354-2.987,2.987v610.858H803.66c-1.633,0-2.987,1.314-2.987,2.987
	v48.794H751.64c-1.633,0-2.987,1.314-2.987,2.987v50.307c0,1.634,0.282,2.962,3.768,3.151h30.753v45.085h-13.908
	C764.038,1411.131,762.594,1413.81,762.594,1415.442z M806.648,1309.292v-45.807h256.157v45.807H806.648z M1010.744,1315.267v43.774
	H754.627v-43.774H1010.744z M1024.686,1560.629H768.568v-40.31h256.117V1560.629z M1024.686,1464.236H824.571
	c-1.633,0-2.987,1.354-2.987,2.987c0,1.674,1.354,2.987,2.987,2.987h200.114v44.134H768.568v-44.134h31.705
	c1.633,0,2.987-1.313,2.987-2.987c0-1.633-1.354-2.987-2.987-2.987h-31.705v-46.718h256.117V1464.236z M789.148,1410.822v-45.085
	h256.449v45.085H789.148z M1030.66,1560.629v-143.832h17.924c1.674,0,2.988-1.354,2.988-2.987v-41.026l164.504,187.846H1030.66z
	 M1225.118,1560.629l-169.244-191.948l34.374-30.272l169.245,192.228L1225.118,1560.629z M1235.554,1560.629l30.153-27.483
	c0.397-0.358,0.677-0.797,0.836-1.274h13.064c1.116,0,1.992-0.877,1.992-1.992s-0.876-1.991-1.992-1.991c0,0-14.553,0-14.578,0
	c0,0-165.993-187.299-171.114-194.384c-4.171-5.771-4.836-2.764-8.075,0.316c-7.157,6.806-27.408,24.664-34.268,30.718v-2.51
	c0-1.673-1.314-2.987-2.988-2.987h-31.865v-43.774h49.073c1.633,0,2.987-1.354,2.987-2.987v-51.781c0-1.673-1.354-2.987-2.987-2.987
	h-70.86V992.79l20.951-0.04c1.075-0.04,1.952-0.917,1.952-2.032c0-1.075-0.877-1.952-1.992-1.952l-20.911,0.04v-33.678h187.926
	c-0.08,0.199-7.848,22.764-11.353,33.2c0,0-12.717,0.04-12.825,0.04c-2.548,0.008-2.596,3.983-0.001,3.983l11.472-0.04
	c-6.213,18.681-11.471,35.012-14.061,44.372c-0.849,3.07,0.859,6.461,3.983,7.33c5.258,1.434,10.755,2.867,16.45,4.222
	c0,0-9.56,80.579-9.6,80.46c-1.035,2.549-1.991,5.178-3.026,7.807c-1.673,4.541-3.426,9.122-5.418,13.305
	c-3.099,6.714-7.523,13.641-14.578,16.648c-2.708,1.155-5.815,1.634-9.081,2.111c-6.015,0.956-12.269,1.952-16.889,7.249
	c-5.775,6.731-5.457,16.53-4.263,26.129c0.732,5.88,3.168,9.512,9.002,11.074c13.283,3.559,27.229,5.37,40.987,4.7
	c4.342-0.159,9.32-0.518,13.901-3.027c5.895-3.227,9.599-9.082,13.145-14.737c3.783-5.979,7.719-11.421,13.94-15.057
	c0,0-2.503,24.556-2.51,24.616c-1.07,10.506,15.185,13.071,17.248,2.549l7.169-36.645c-0.397,0.199,1.195-3.227,1.753-4.979
	c5.019-15.494,6.095-28.28,3.346-38.995c-1.752-6.812-5.337-12.706-9.918-16.849c0,0,6.137-30.447,6.174-30.63
	c0.76-3.767-5.091-5.019-5.855-1.195l-6.971,34.533c-1.712,8.524-9.399,19.358-16.809,23.66c-8.763,5.139-16.889,6.294-21.668,3.147
	c-3.187-2.151-4.621-6.015-3.983-10.994l9.719-83.526c14.141,3.266,29.356,6.094,45.01,8.285
	c-0.239,0.876-2.498,11.057-2.509,11.112c-0.771,3.817,5.119,4.929,5.855,1.155c0,0,2.311-10.356,2.629-11.432
	c3.545,0.438,7.09,0.876,10.675,1.234l25.652,66.838v0.239c0.238,2.867,0.597,5.815,0.995,8.803
	c1.594,13.383,3.307,27.244-3.823,35.809c-1.912,2.271-4.422,4.143-7.091,6.094c-4.898,3.625-9.997,7.409-11.591,14.26
	c-2.031,8.644,2.828,17.167,8.324,25.134c2.267,3.284,5.034,6.134,9.281,6.134c1.395,0,2.709-0.238,3.824-0.518
	c13.503-2.987,26.448-7.966,38.518-14.817c3.744-2.15,7.966-4.779,10.874-9.161c3.925-5.846,4.337-12.971,4.887-19.771
	c0.266-3.284,0.523-6.604,1.304-9.814c0.343-1.408,4.293-8.729,4.006-9.369c0,0,9.171,22.907,9.201,22.982
	c3.898,9.738,19.512,4.654,16.45-5.735c0,0-10.874-36.446-11.073-36.685c0.16-1.514-0.079-2.948-0.318-4.342
	c-2.748-16.053-7.688-27.883-15.136-36.088c-4.541-5.059-10.516-8.684-16.57-10.276l-7.966-27.364
	c21.725-0.849,43.135-3.938,63.69-11.193c-0.37-19.945-2.911-39.728-6.413-59.349c0,0,35.287-0.079,35.686-0.08
	c2.525-0.005,2.611-3.983,0.004-3.983l-36.406,0.08c-2.349-12.627-7.508-28.729-7.508-28.729c-0.04-0.2,38.139-0.468,56.74-1.663
	c3.863-0.239,28.121-1.554,28.917-1.633l112.764,0.199c17.366,0,31.547,14.141,31.547,31.547c0,0,0,53.683,0,54.01
	c0,3.849,5.975,3.859,5.975,0.002v-54.012c0-13.224-6.891-24.855-17.247-31.547h16.689c17.366,0,31.547,14.141,31.547,31.547
	v205.013h-30.989c0,0,0-126.899,0-127.459c0-3.83-5.975-3.886-5.975-0.002v127.461h-23.342v-20.911c0-1.115-0.916-1.991-1.991-1.991
	c-1.115,0-1.992,0.876-1.992,1.991v20.911c0,0-79.735,0-80.455,0c-28.186,0-53.782,19.077-61.892,46.069
	c-8.13,27.056,2.139,57.213,25.504,73.206c10.674,7.306,23.449,11.253,36.383,11.253h80.46v44.811c0,1.076,0.877,1.992,1.992,1.992
	c1.075,0,1.991-0.916,1.991-1.992v-44.811h23.342v205.094c0,17.406-14.181,32.502-31.547,32.502H1235.554z M1209.089,1172.88
	c0.927,0.067,1.939-0.857,2.249-2.129c2.5-10.243,1.719-21.262-2.201-31.05c4.886-5.16,8.666-11.361,11.016-18.067
	c5.094,6.261,7.104,14.596,7.022,22.667c-0.082,8.07-2.09,15.989-4.281,23.757c-0.318,1.131-0.66,2.296-1.414,3.196
	c-1.236,1.476-3.278,1.92-5.148,2.376c-11.195,2.733-21.626,9.238-28.123,18.757c-4.149,6.079-7.054,13.639-13.57,17.063
	c-3.52,1.85-7.62,2.187-11.595,2.312c-12.729,0.4-25.513-1.021-37.843-4.205c-4.475-1.156-5.742-4.017-5.975-8.549
	c0.063,1.216,11.238,3.839,12.606,4.191c4.665,1.201,9.42,2.055,14.212,2.551c9.133,0.944,17.62,0.233,26.663-0.754
	c2.083-0.228,4.335-2.648,1.313-3.792c-0.979-0.371-2.067-0.202-3.102-0.046c-14.816,2.243-30.145,1.036-44.427-3.499
	c-3.134-0.994-6.644-2.599-7.424-5.793c-0.864-3.536,0.651-8.477,2.798-11.278c3.3-4.307,9.16-5.562,14.53-6.34
	c5.369-0.778,11.194-1.582,15.029-5.42c2.823,2.909,5.646,5.819,8.47,8.729c2.134,2.199,4.044,2.092,6.227-0.209
	c2.784-2.935,5.568-5.868,8.353-8.802c2.559-2.696,2.409-4.949-0.232-7.509c-3.238-3.139-6.671-6.078-10.27-8.796
	c1.33-3.169,2.659-6.339,3.988-9.508c2.916,6.713,11.136,9.847,18.405,8.996s13.762-4.83,19.784-8.989
	c2.77,8.182,3.333,17.098,1.616,25.562C1207.542,1169.396,1206.974,1172.728,1209.089,1172.88z M1219.78,1178.803
	c0,0-6.269,31.981-6.293,32.104c-0.649,3.314-5.787,2.537-5.417-0.797l2.828-28.319
	C1213.407,1180.715,1219.582,1178.883,1219.78,1178.803z M1154.536,1166.376c3.027-2.908,5.457-6.493,7.608-10.476
	c3.146,2.469,7.647,6.055,10.276,8.843c-2.031,2.549-6.812,7.408-9.719,10.276
	C1160.87,1172.629,1157.922,1169.164,1154.536,1166.376z M1619.73,1198.48v118.578h-144.749c-32.343,0-58.632-26.328-58.632-58.672
	c0-28.513,19.825-53.909,48.3-58.995c3.408-0.608,6.87-0.911,10.332-0.911H1619.73z M1571.494,1560.629
	c10.356-6.651,17.247-19.278,17.247-32.502v-205.094h30.989v205.094c0,17.406-14.181,32.502-31.547,32.502H1571.494z
	 M1606.864,1560.629c3.625-2.07,6.931-4.74,9.64-7.926c6.293,3.186,12.905,5.855,19.677,7.926H1606.864z M1620.089,1547.804
	c3.545-5.736,5.616-12.468,5.616-19.677v-202.902c15.375-6.612,31.626-9.958,48.236-9.958c48.275,0,92.21,28.439,111.926,72.533
	c27.604,61.659-0.119,134.272-61.818,161.876c-15.893,7.09-32.701,10.715-49.949,10.715
	C1654.981,1560.391,1636.579,1555.929,1620.089,1547.804z"/>
<g>
	<path style="fill:#2B2150;" d="M1554.074,1125.604c-1.101,0-1.991-0.891-1.991-1.991v-47.609c0-1.101,0.891-1.991,1.991-1.991
		c1.102,0,1.992,0.891,1.992,1.991v47.609C1556.066,1124.713,1555.176,1125.604,1554.074,1125.604z M1554.074,1030.387
		c-1.101,0-1.991-0.891-1.991-1.991v-16.819c0-9.689-6.871-18.164-16.337-20.151c-1.078-0.226-1.767-1.282-1.541-2.357
		c0.224-1.078,1.278-1.76,2.357-1.541c11.302,2.373,19.504,12.486,19.504,24.049v16.819
		C1556.066,1029.496,1555.176,1030.387,1554.074,1030.387z M1060.112,992.292c-1.098,0-1.988-0.889-1.992-1.986
		c-0.004-1.101,0.887-1.994,1.986-1.997l47.606-0.132h0.007c1.097,0,1.987,0.889,1.991,1.985c0.004,1.101-0.887,1.994-1.986,1.998
		l-47.606,0.132C1060.116,992.292,1060.114,992.292,1060.112,992.292z M1440.975,991.236c-1.097,0-1.987-0.889-1.991-1.986
		c-0.004-1.101,0.887-1.994,1.985-1.998l47.607-0.132h0.006c1.097,0,1.987,0.889,1.991,1.985c0.004,1.101-0.887,1.994-1.985,1.998
		l-47.607,0.132C1440.98,991.236,1440.977,991.236,1440.975,991.236z"/>
</g>
</svg>
