<?xml version="1.0" encoding="utf-8"?>
<!-- Generator: Adobe Illustrator 27.5.0, SVG Export Plug-In . SVG Version: 6.00 Build 0)  -->
<svg version="1.1" xmlns="http://www.w3.org/2000/svg" xmlns:xlink="http://www.w3.org/1999/xlink" x="0px" y="0px"
	 viewBox="0 0 500 500" style="enable-background:new 0 0 500 500;" xml:space="preserve">
<g id="Background_Simple">
	<g>
		<path style="fill:#92E3A9;" d="M383.163,133.143c-3.35-6.492-6.862-12.887-10.857-18.98
			C326.195,43.845,202.699,5.565,141.507,78.247c-14.585,17.323-19.668,38.256-29.484,58.123
			c-22.327,45.185-64.042,72.199-90.198,114.039c-20.275,32.434-17.572,74.002-6.262,109.064
			c12.291,38.1,33.921,64.709,68.519,84.936c38.787,22.676,80.272,16.38,122.197,8.489c18.855-3.549,38.295-7.169,57.574-5.815
			c24.137,1.696,47.968,8.527,71.915,11.848c24.905,3.453,50.745,4.27,74.736-3.256c76.83-24.1,95.031-137.037,63.437-201.732
			c-11.184-22.9-30.138-40.567-47.738-58.492C407.204,176.101,395.559,157.164,383.163,133.143z"/>
		<path style="opacity:0.7;fill:#FFFFFF;" d="M383.163,133.143c-3.35-6.492-6.862-12.887-10.857-18.98
			C326.195,43.845,202.699,5.565,141.507,78.247c-14.585,17.323-19.668,38.256-29.484,58.123
			c-22.327,45.185-64.042,72.199-90.198,114.039c-20.275,32.434-17.572,74.002-6.262,109.064
			c12.291,38.1,33.921,64.709,68.519,84.936c38.787,22.676,80.272,16.38,122.197,8.489c18.855-3.549,38.295-7.169,57.574-5.815
			c24.137,1.696,47.968,8.527,71.915,11.848c24.905,3.453,50.745,4.27,74.736-3.256c76.83-24.1,95.031-137.037,63.437-201.732
			c-11.184-22.9-30.138-40.567-47.738-58.492C407.204,176.101,395.559,157.164,383.163,133.143z"/>
	</g>
</g>
<g id="Floor">
	<line style="fill:none;stroke:#263238;stroke-miterlimit:10;" x1="3.15" y1="464.552" x2="496.232" y2="464.552"/>
</g>
<g id="Money">
	<g>
		<circle style="fill:none;stroke:#263238;stroke-miterlimit:10;" cx="76.792" cy="222.597" r="32.602"/>
		<circle style="fill:none;stroke:#263238;stroke-miterlimit:10;" cx="76.792" cy="222.597" r="29.693"/>
		<g>
			<path style="fill:none;stroke:#263238;stroke-miterlimit:10;" d="M76.414,243.793v-3.908c-2.885-0.112-5.043-1.036-6.471-2.774
				c-1.428-1.736-2.2-4.328-2.311-7.774l5.925-1.008c0.056,1.401,0.203,2.57,0.441,3.508c0.238,0.939,0.595,1.639,1.072,2.101
				c0.476,0.462,1.092,0.693,1.849,0.693c0.868,0,1.463-0.28,1.786-0.84c0.322-0.56,0.483-1.204,0.483-1.933
				c0-1.429-0.33-2.626-0.988-3.593c-0.658-0.967-1.562-1.94-2.71-2.921l-3.572-3.067c-0.813-0.756-1.541-1.527-2.185-2.311
				c-0.645-0.784-1.156-1.681-1.534-2.689c-0.378-1.009-0.567-2.199-0.567-3.572c0-2.633,0.749-4.685,2.248-6.156
				c1.498-1.471,3.509-2.304,6.03-2.5v-3.74h2.017v3.74c1.513,0.084,2.752,0.427,3.719,1.029c0.966,0.603,1.702,1.359,2.206,2.269
				c0.504,0.91,0.868,1.905,1.092,2.983c0.224,1.079,0.364,2.122,0.42,3.131l-6.009,0.883c-0.028-1.036-0.112-1.954-0.252-2.752
				c-0.141-0.799-0.393-1.422-0.756-1.87c-0.364-0.448-0.925-0.658-1.681-0.63c-0.785,0.028-1.38,0.336-1.786,0.924
				c-0.407,0.588-0.609,1.247-0.609,1.975c0,1.289,0.308,2.326,0.925,3.109c0.616,0.785,1.316,1.541,2.101,2.269l3.488,3.025
				c0.924,0.84,1.778,1.751,2.563,2.731c0.784,0.981,1.414,2.066,1.891,3.257c0.476,1.191,0.714,2.557,0.714,4.097
				c0,1.485-0.301,2.836-0.903,4.055c-0.603,1.219-1.471,2.206-2.605,2.962c-1.135,0.757-2.473,1.204-4.013,1.345v3.95H76.414z"/>
		</g>
	</g>
	<g>
		<circle style="fill:none;stroke:#263238;stroke-miterlimit:10;" cx="242.551" cy="79.592" r="21.176"/>
		
			<ellipse transform="matrix(0.1611 -0.9869 0.9869 0.1611 124.9123 306.1467)" style="fill:none;stroke:#263238;stroke-miterlimit:10;" cx="242.551" cy="79.592" rx="19.287" ry="19.287"/>
		<g>
			<path style="fill:none;stroke:#263238;stroke-miterlimit:10;" d="M242.305,93.36v-2.538c-1.874-0.073-3.275-0.673-4.203-1.802
				c-0.928-1.128-1.429-2.811-1.501-5.049l3.848-0.655c0.036,0.91,0.132,1.669,0.287,2.279c0.154,0.61,0.386,1.064,0.696,1.365
				c0.309,0.3,0.71,0.45,1.201,0.45c0.564,0,0.951-0.182,1.16-0.546c0.209-0.364,0.314-0.782,0.314-1.256
				c0-0.928-0.214-1.706-0.642-2.334c-0.428-0.628-1.014-1.26-1.76-1.897l-2.32-1.992c-0.528-0.491-1.001-0.992-1.419-1.501
				c-0.419-0.509-0.751-1.092-0.996-1.747c-0.246-0.655-0.368-1.428-0.368-2.32c0-1.71,0.487-3.043,1.46-3.998
				c0.973-0.955,2.279-1.496,3.917-1.624v-2.429h1.31v2.429c0.983,0.055,1.788,0.278,2.415,0.669
				c0.628,0.392,1.105,0.883,1.433,1.474c0.328,0.591,0.564,1.238,0.71,1.938c0.146,0.701,0.236,1.378,0.273,2.034l-3.903,0.573
				c-0.018-0.673-0.073-1.269-0.163-1.788c-0.091-0.519-0.255-0.923-0.491-1.215c-0.237-0.291-0.601-0.427-1.092-0.41
				c-0.51,0.018-0.896,0.218-1.16,0.6c-0.264,0.382-0.396,0.81-0.396,1.283c0,0.837,0.2,1.511,0.601,2.02
				c0.4,0.51,0.855,1.001,1.365,1.474l2.266,1.965c0.6,0.546,1.155,1.137,1.665,1.774c0.509,0.637,0.919,1.342,1.228,2.115
				c0.309,0.774,0.464,1.661,0.464,2.661c0,0.965-0.196,1.842-0.587,2.634c-0.391,0.792-0.955,1.433-1.692,1.924
				c-0.737,0.491-1.606,0.782-2.607,0.873v2.566H242.305z"/>
		</g>
	</g>
	<g>
		<circle style="fill:none;stroke:#263238;stroke-miterlimit:10;" cx="328.188" cy="330.473" r="21.176"/>
		
			<ellipse transform="matrix(0.2279 -0.9737 0.9737 0.2279 -68.3752 574.7216)" style="fill:none;stroke:#263238;stroke-miterlimit:10;" cx="328.188" cy="330.473" rx="19.287" ry="19.287"/>
		<g>
			<path style="fill:none;stroke:#263238;stroke-miterlimit:10;" d="M327.942,344.241v-2.538c-1.874-0.073-3.275-0.673-4.203-1.802
				c-0.928-1.128-1.429-2.811-1.501-5.049l3.848-0.655c0.036,0.91,0.132,1.67,0.287,2.279c0.154,0.61,0.386,1.065,0.696,1.365
				c0.309,0.3,0.71,0.45,1.201,0.45c0.564,0,0.95-0.182,1.16-0.546c0.209-0.364,0.314-0.782,0.314-1.255
				c0-0.928-0.214-1.706-0.641-2.334c-0.428-0.628-1.014-1.26-1.76-1.897l-2.32-1.992c-0.528-0.491-1.001-0.992-1.419-1.501
				c-0.419-0.509-0.751-1.092-0.996-1.747c-0.246-0.655-0.368-1.428-0.368-2.32c0-1.71,0.486-3.043,1.46-3.999
				c0.973-0.955,2.279-1.496,3.917-1.624v-2.429h1.31v2.429c0.983,0.055,1.788,0.278,2.415,0.669
				c0.628,0.392,1.106,0.883,1.433,1.474c0.327,0.591,0.564,1.238,0.71,1.938c0.146,0.701,0.237,1.378,0.273,2.033l-3.903,0.573
				c-0.018-0.673-0.073-1.269-0.164-1.788c-0.091-0.519-0.255-0.923-0.491-1.215c-0.237-0.291-0.601-0.427-1.092-0.409
				c-0.51,0.018-0.897,0.218-1.16,0.6c-0.264,0.382-0.396,0.81-0.396,1.283c0,0.837,0.2,1.511,0.601,2.02
				c0.4,0.51,0.855,1.001,1.365,1.474l2.266,1.965c0.6,0.546,1.155,1.137,1.665,1.774c0.509,0.637,0.918,1.342,1.228,2.115
				c0.309,0.774,0.464,1.66,0.464,2.661c0,0.965-0.196,1.842-0.587,2.634c-0.392,0.792-0.955,1.433-1.692,1.924
				c-0.737,0.491-1.606,0.782-2.607,0.873v2.565H327.942z"/>
		</g>
	</g>
	<g>
		<circle style="fill:none;stroke:#263238;stroke-miterlimit:10;" cx="458.333" cy="168.014" r="21.176"/>
		
			<ellipse transform="matrix(0.7071 -0.7071 0.7071 0.7071 15.4386 373.3007)" style="fill:none;stroke:#263238;stroke-miterlimit:10;" cx="458.333" cy="168.014" rx="19.287" ry="19.287"/>
		<g>
			<path style="fill:none;stroke:#263238;stroke-miterlimit:10;" d="M458.087,181.782v-2.538c-1.874-0.073-3.275-0.673-4.203-1.802
				c-0.928-1.128-1.429-2.811-1.501-5.049l3.848-0.655c0.036,0.91,0.132,1.67,0.287,2.279c0.154,0.61,0.386,1.065,0.696,1.365
				c0.309,0.3,0.71,0.45,1.201,0.45c0.564,0,0.95-0.182,1.16-0.546c0.209-0.364,0.314-0.782,0.314-1.255
				c0-0.928-0.214-1.706-0.642-2.334c-0.428-0.628-1.014-1.26-1.76-1.897l-2.32-1.992c-0.528-0.491-1.001-0.992-1.419-1.501
				c-0.419-0.509-0.751-1.092-0.996-1.747c-0.246-0.655-0.368-1.428-0.368-2.32c0-1.71,0.487-3.043,1.46-3.999
				c0.973-0.955,2.279-1.496,3.917-1.624v-2.429h1.31v2.429c0.983,0.055,1.788,0.278,2.416,0.669
				c0.628,0.391,1.105,0.883,1.433,1.474c0.328,0.591,0.564,1.238,0.71,1.938c0.146,0.701,0.237,1.378,0.273,2.033l-3.903,0.573
				c-0.018-0.673-0.073-1.269-0.163-1.788c-0.091-0.519-0.255-0.923-0.491-1.215c-0.237-0.291-0.601-0.427-1.092-0.409
				c-0.51,0.018-0.896,0.218-1.16,0.6c-0.264,0.382-0.396,0.81-0.396,1.283c0,0.837,0.2,1.511,0.601,2.02
				c0.4,0.51,0.855,1.001,1.365,1.474l2.266,1.965c0.6,0.546,1.155,1.137,1.665,1.774c0.509,0.637,0.918,1.342,1.228,2.115
				c0.309,0.774,0.464,1.66,0.464,2.661c0,0.965-0.196,1.842-0.587,2.634c-0.392,0.792-0.955,1.433-1.692,1.924
				c-0.737,0.491-1.606,0.782-2.607,0.873v2.566H458.087z"/>
		</g>
	</g>
	<g>
		<circle style="fill:none;stroke:#263238;stroke-miterlimit:10;" cx="174.658" cy="375.18" r="38.56"/>
		<circle style="fill:none;stroke:#263238;stroke-miterlimit:10;" cx="174.658" cy="375.18" r="35.119"/>
		<g>
			<path style="fill:none;stroke:#263238;stroke-miterlimit:10;" d="M174.211,400.249v-4.622c-3.413-0.133-5.964-1.225-7.654-3.28
				c-1.69-2.054-2.602-5.119-2.733-9.194l7.007-1.192c0.066,1.657,0.24,3.04,0.522,4.149c0.281,1.11,0.704,1.939,1.268,2.485
				c0.563,0.547,1.292,0.82,2.187,0.82c1.027,0,1.731-0.331,2.112-0.994c0.381-0.663,0.572-1.424,0.572-2.286
				c0-1.69-0.39-3.106-1.168-4.249c-0.779-1.143-1.847-2.294-3.205-3.454l-4.224-3.628c-0.961-0.895-1.823-1.806-2.584-2.733
				c-0.763-0.927-1.367-1.988-1.814-3.181c-0.447-1.193-0.671-2.601-0.671-4.224c0-3.114,0.886-5.541,2.659-7.281
				c1.772-1.74,4.15-2.725,7.132-2.957v-4.423H176v4.423c1.789,0.1,3.255,0.506,4.398,1.218c1.143,0.713,2.013,1.608,2.609,2.684
				c0.596,1.077,1.027,2.254,1.292,3.528c0.265,1.276,0.431,2.51,0.497,3.703l-7.107,1.044c-0.033-1.225-0.133-2.311-0.298-3.255
				c-0.166-0.944-0.465-1.681-0.895-2.211c-0.431-0.53-1.094-0.778-1.988-0.746c-0.928,0.034-1.632,0.397-2.112,1.093
				c-0.481,0.696-0.721,1.475-0.721,2.336c0,1.524,0.364,2.751,1.094,3.677c0.728,0.928,1.557,1.823,2.485,2.684l4.125,3.578
				c1.093,0.994,2.103,2.071,3.032,3.23c0.927,1.16,1.673,2.444,2.236,3.852c0.563,1.409,0.845,3.024,0.845,4.846
				c0,1.756-0.357,3.355-1.068,4.796c-0.713,1.441-1.74,2.609-3.081,3.504c-1.342,0.895-2.924,1.424-4.746,1.59v4.672H174.211z"/>
		</g>
	</g>
</g>
<g id="Clouds">
	<path style="fill:none;stroke:#263238;stroke-linecap:round;stroke-linejoin:round;stroke-miterlimit:10;" d="M195.522,121.57
		H40.042c0.61-8.07,7.34-14.42,15.56-14.42c2.28,0,4.43,0.5,6.38,1.37c0.85-4.52,2.91-8.61,5.83-11.93
		c0.41-0.48,0.85-0.95,1.31-1.39c2.7-2.64,5.98-4.68,9.64-5.89c1.23-0.42,2.51-0.74,3.82-0.95c1.07-0.19,2.17-0.3,3.29-0.33
		c0.29-0.02,0.58-0.02,0.87-0.02c1.27,0,2.52,0.09,3.74,0.28c4.11,0.61,7.9,2.22,11.11,4.58c0.51,0.36,1.02,0.76,1.5,1.18
		c0.19,0.15,0.37,0.31,0.55,0.47c4.01-14.76,17.49-25.62,33.53-25.62c19.19,0,34.74,15.56,34.74,34.75c0,2.07-0.19,4.1-0.54,6.08
		c2.47-1.63,5.42-2.58,8.59-2.58C188.182,107.15,194.912,113.5,195.522,121.57z"/>
	<path style="fill:none;stroke:#263238;stroke-linecap:round;stroke-linejoin:round;stroke-miterlimit:10;" d="M328.715,173.97
		c-0.57-7.479-6.806-13.374-14.431-13.374c-2.943,0-5.677,0.883-7.963,2.391c0.323-1.831,0.501-3.712,0.501-5.635
		c0-17.795-14.425-32.22-32.22-32.22c-14.865,0-27.372,10.07-31.089,23.758c-4.145-3.752-9.641-6.039-15.673-6.039
		c-11.417,0-20.915,8.192-22.951,19.018c-1.809-0.812-3.808-1.273-5.919-1.273c-7.626,0-13.861,5.895-14.432,13.374H328.715z"/>
	<path style="fill:none;stroke:#263238;stroke-linecap:round;stroke-linejoin:round;stroke-miterlimit:10;" d="M152.289,296.081
		c-0.305-3.995-3.635-7.143-7.708-7.143c-1.572,0-3.032,0.472-4.253,1.277c0.173-0.978,0.268-1.982,0.268-3.01
		c0-9.504-7.704-17.208-17.209-17.208c-7.939,0-14.619,5.378-16.605,12.689c-2.214-2.004-5.149-3.225-8.371-3.225
		c-6.098,0-11.17,4.375-12.258,10.157c-0.966-0.434-2.034-0.68-3.161-0.68c-4.073,0-7.403,3.148-7.708,7.143H152.289z"/>
	<path style="fill:none;stroke:#263238;stroke-linecap:round;stroke-linejoin:round;stroke-miterlimit:10;" d="M445.508,64.512
		c-0.447-5.864-5.336-10.485-11.314-10.485c-2.307,0-4.451,0.692-6.243,1.874c0.253-1.435,0.393-2.91,0.393-4.418
		c0-13.95-11.309-25.259-25.259-25.259c-11.654,0-21.459,7.894-24.373,18.626c-3.249-2.942-7.558-4.734-12.287-4.734
		c-8.95,0-16.396,6.423-17.992,14.909c-1.418-0.636-2.986-0.998-4.641-0.998c-5.978,0-10.866,4.621-11.314,10.485H445.508z"/>
</g>
<g id="Characters">
	<g>
		<g>
			<g>
				<path style="fill:#263238;stroke:#263238;stroke-linecap:round;stroke-linejoin:round;stroke-miterlimit:10;" d="M446.88,256.78
					c0,0,5.312,4.517,6.301,5.212c0.989,0.695,8.14,3.744,8.14,3.744s0.359,0.831-0.558,1.619
					c-0.917,0.787-9.582,1.526-12.138,1.331c-2.556-0.194-6.48-2.339-7.135-2.731c-0.656-0.393-3.577-3.753-3.577-3.753
					l-1.426,1.236l-6.415-3.191c0,0,0.556-3.847,1.644-5.491c1.087-1.644,3.52-3.502,3.52-3.502L446.88,256.78z"/>
				<path style="fill:#263238;stroke:#263238;stroke-linecap:round;stroke-linejoin:round;stroke-miterlimit:10;" d="
					M355.163,259.438l-3.823-0.823c0,0-5.911-3.746-7.096-4.112c-1.185-0.367-2.863,0.033-4.021,2.423l-1.61,4.004l1.009,1.118
					c0,0-2.902,1.414-3.375,2.604c-0.473,1.19-3.812,4.535-4.555,8.921c-0.742,4.387,0.593,3.473,1.112,3.236
					c0.519-0.237,8.625-5.936,9.86-6.738c1.234-0.803,9.435-2.367,9.435-2.367S353.486,260.633,355.163,259.438z"/>
				<g>
					<path style="fill:#263238;stroke:#263238;stroke-linecap:round;stroke-linejoin:round;stroke-miterlimit:10;" d="
						M389.282,182.784c0,0-0.505,11.937,1.903,28.079c2.408,16.142,3.705,38.679,3.705,38.679s-1.92-0.907-1.99,0.222
						c-0.07,1.129,0.216,1.866,0.216,1.866l-37.952,7.808c0,0-2.185,1.357-2.503,5.124c-0.318,3.767-0.163,4.385-0.163,4.385
						s36.401-0.013,46.014-0.354c9.614-0.341,15.554-1.629,16.267-2.414c0.712-0.785,1.489-2.824,1.346-3.192
						c-0.143-0.368,3.315-44.612,3.389-48.243c0.074-3.63,2.533-12.254,2.533-12.254s29.677,3.432,33.177,3.387l1.89,0.284
						l-21.878,45.093c0,0,2.939,3.86,7.004,5.163c4.065,1.304,6.056,1.082,6.056,1.082s0.533-1.902,0.889-2.294
						c0.356-0.392,0.181-4.011,0.144-4.76c-0.036-0.749,26.742-40.201,30.706-46.147c3.964-5.945,4.388-10.093,3.187-11.66
						c-1.202-1.568-45.082-18.664-45.082-18.664l-5.26-4.515c0,0-12.194,8.792-19.691,11.532
						C405.691,183.73,389.282,182.784,389.282,182.784z"/>
					<g>
						<path style="fill:none;stroke:#FFFFFF;stroke-linecap:round;stroke-linejoin:round;stroke-miterlimit:10;" d="
							M422.758,201.704c0,0,4.881-10.242,5.244-10.51"/>
						<path style="fill:none;stroke:#FFFFFF;stroke-linecap:round;stroke-linejoin:round;stroke-miterlimit:10;" d="
							M418.942,196.879c-0.661,0.719-1.315,1.427-1.944,2.103"/>
						<path style="fill:none;stroke:#FFFFFF;stroke-linecap:round;stroke-linejoin:round;stroke-miterlimit:10;" d="
							M427.921,186.946c0,0-3.473,3.901-7.216,8.007"/>
						<path style="fill:none;stroke:#FFFFFF;stroke-linecap:round;stroke-linejoin:round;stroke-miterlimit:10;" d="
							M399.205,187.963c0,0,3.705,4.198,2.144,5.524c-1.562,1.326-8.565,3.917-8.565,3.917"/>
						<path style="fill:none;stroke:#FFFFFF;stroke-linecap:round;stroke-linejoin:round;stroke-miterlimit:10;" d="
							M392.407,187.042c0,0-0.448,11.403-0.069,16.637c0.139,1.919,0.589,5.607,1.128,9.621"/>
						<path style="fill:none;stroke:#FFFFFF;stroke-linecap:round;stroke-linejoin:round;stroke-miterlimit:10;" d="M458.348,205.85
							c0,0,5.496-0.141,11.181-1.542"/>
						<path style="fill:none;stroke:#FFFFFF;stroke-linecap:round;stroke-linejoin:round;stroke-miterlimit:10;" d="M476.669,201.96
							c0,0-4.934,3.991-11.13,5.167"/>
					</g>
				</g>
			</g>
			<g>
				<path style="fill:#FFFFFF;stroke:#263238;stroke-linecap:round;stroke-linejoin:round;stroke-miterlimit:10;" d="
					M369.681,118.73c0,0-15.577,17.881-15.957,19.325c-0.381,1.444-10.251,19.748-13.689,25.175
					c-3.438,5.427-26.916,47.441-26.916,47.441l5.431,5.963l33.747-44.25l17.207-21.491l5.937,3.859l11.996,22.04
					c0,0,1.062,6.716,1.888,7.294c0.826,0.578,19.565-0.835,24.786-3.064c5.221-2.228,18.189-10.738,18.767-11.564
					c0.578-0.826,0.645-2.25,0.28-3.016c-0.365-0.766-2.234-2.854-2.234-2.854l-11.127-40.817l31.222,0.289l9.371-11.33
					c0,0-30.916-5.358-35.25-6.5c-4.333-1.142-10.111-2.665-15.169-2.813c-5.058-0.149-22.439,1.913-22.439,1.913L369.681,118.73z"
					/>
				<path style="fill:none;stroke:#263238;stroke-linecap:round;stroke-linejoin:round;stroke-miterlimit:10;" d="M417.922,164.95
					c1.863,0.18,3.646,0.294,5.289,0.32"/>
				<path style="fill:none;stroke:#263238;stroke-linecap:round;stroke-linejoin:round;stroke-miterlimit:10;" d="M387.952,159.22
					c0,0,14.7,3.883,27.253,5.431"/>
				<path style="fill:none;stroke:#263238;stroke-linecap:round;stroke-linejoin:round;stroke-miterlimit:10;" d="M411.11,166.731
					c0,0,11.475,1.669,18.151,1.46"/>
				<path style="fill:none;stroke:#263238;stroke-linecap:round;stroke-linejoin:round;stroke-miterlimit:10;" d="M339.494,172.917
					c-1.108,0.693-2.104,1.289-2.945,1.754"/>
				<path style="fill:none;stroke:#263238;stroke-linecap:round;stroke-linejoin:round;stroke-miterlimit:10;" d="M365.588,154.694
					c0,0-13.905,10.26-23.353,16.462"/>
				<path style="fill:none;stroke:#263238;stroke-linecap:round;stroke-linejoin:round;stroke-miterlimit:10;" d="M345.816,172.406
					c0,0-11.533,5.561-12.563,5.767"/>
				
					<line style="fill:none;stroke:#263238;stroke-linecap:round;stroke-linejoin:round;stroke-miterlimit:10;" x1="318.504" y1="201.749" x2="325.967" y2="205.141"/>
				
					<line style="fill:none;stroke:#263238;stroke-linecap:round;stroke-linejoin:round;stroke-miterlimit:10;" x1="316.256" y1="205.188" x2="323.646" y2="209.529"/>
				<polyline style="fill:none;stroke:#263238;stroke-linecap:round;stroke-linejoin:round;stroke-miterlimit:10;" points="
					359.324,147.095 369.503,150.892 353.558,149.636 				"/>
				
					<line style="fill:none;stroke:#263238;stroke-linecap:round;stroke-linejoin:round;stroke-miterlimit:10;" x1="354.986" y1="145.477" x2="356.658" y2="146.101"/>
				<polyline style="fill:none;stroke:#263238;stroke-linecap:round;stroke-linejoin:round;stroke-miterlimit:10;" points="
					416.654,113.386 419.797,122.772 419.639,107.093 				"/>
			</g>
			<g>
				<g>
					<polygon style="fill:#92E3A9;stroke:#263238;stroke-linecap:round;stroke-linejoin:round;stroke-miterlimit:10;" points="
						384.654,125.314 391.456,131.149 393.838,119.395 387.498,115.882 					"/>
					<path style="fill:#92E3A9;stroke:#263238;stroke-linecap:round;stroke-linejoin:round;stroke-miterlimit:10;" d="
						M391.456,131.149c0,0-12.037,15.195-11.126,17.175c0.911,1.98,0.531,8.275,0.531,8.275l-17.112,23.528l-1.359,10.591
						l10.457-3.179c0,0,10.877-22.971,12.6-25.434c1.723-2.462,2.606-5.811,2.047-7.186c-0.559-1.375-1.041-4.009-1.277-5.248
						c-0.236-1.239,4.752-6.576,5.05-9.26C391.565,137.726,391.456,131.149,391.456,131.149z"/>
				</g>
				<path style="fill:#FFFFFF;stroke:#263238;stroke-linecap:round;stroke-linejoin:round;stroke-miterlimit:10;" d="
					M374.001,115.921c0,0,1.026,5.01,1.484,5.545c0.457,0.535,8.679,10.018,8.679,10.018l3.651-7.879l1.394-2.701l11.273,1.215
					l-3.149-9.527l-9.345-9.411l-3.089,0.198L374.001,115.921z"/>
				<g>
					<path style="fill:#FFFFFF;stroke:#263238;stroke-linecap:round;stroke-linejoin:round;stroke-miterlimit:10;" d="
						M350.381,90.366c0,0,0.645,10.055,1.712,11.452c1.067,1.397,3.279,2.884,3.279,2.884s-0.039,7.005,0.793,7.277
						c0.832,0.272,3.61,0.42,3.61,0.42s4.846,4.648,5.603,6.689c0.758,2.041,1.123,2.853,2.996,2.733
						c1.873-0.12,6.211-4.16,6.211-4.16l13.232,5.942c0,0,1.45-0.198,1.394-2.701c-0.056-2.504-4.011-18.548-4.011-18.548
						s-3.746-16.058-6.366-19.442c-2.62-3.384-11.177-6.492-16.098-5.027c-4.921,1.465-10.427,6.833-12.063,9.027
						C349.036,89.107,347.534,89.804,350.381,90.366z"/>
					<path style="fill:#263238;stroke:#263238;stroke-linecap:round;stroke-linejoin:round;stroke-miterlimit:10;" d="
						M358.538,89.02c-0.86,2.876-2.371,5.376,0.042,5.535c2.413,0.159,4.39,0.032,4.39,0.032l2.868,3.995
						c0,0,3.114,9.04,2.169,9.215c-4.21,0.777-6.719,4.181-7.648,5.177c1.307,1.301,4.423,4.51,5.019,6.115
						c0.758,2.041,1.123,2.853,2.996,2.733c1.873-0.12,6.211-4.16,6.211-4.16s3.529-5.241,3.416-7.01
						c-0.113-1.769-7.641-11.629-8.775-13.019c-1.134-1.39-1.009-4.323,1.163-4.672c2.172-0.348,3.983,1.834,4.469,4.519
						c0.486,2.685,0.599,4.454,0.599,4.454s6.562-0.317,7.485-0.585c0.655-0.19,1.384-0.749,1.756-1.061
						c-1.108-4.447-3.827-14.745-5.865-17.377c-2.62-3.384-11.177-6.492-16.098-5.027c-4.921,1.465-10.427,6.833-12.063,9.027
						c-1.635,2.194-3.137,2.891-0.291,3.453c0,0,4.023-3.902,7.064-5.35C360.487,83.566,359.398,86.144,358.538,89.02z"/>
					<path style="fill:#263238;" d="M358.616,103.642c0.435,0.617,0.546,1.287,0.249,1.496c-0.297,0.209-0.89-0.121-1.325-0.738
						c-0.435-0.617-0.546-1.287-0.249-1.496C357.588,102.694,358.181,103.025,358.616,103.642z"/>
					<path style="fill:none;stroke:#263238;stroke-linecap:round;stroke-linejoin:round;stroke-miterlimit:10;" d="M354.681,102.463
						c0,0-0.175-2.727,2.667-2.707"/>
					<path style="fill:none;stroke:#FFFFFF;stroke-linecap:round;stroke-linejoin:round;stroke-miterlimit:10;" d="M364.576,114.406
						c0,0,1.111-0.071,2.666-2.707"/>
				</g>
			</g>
			<g>
				<path style="fill:#FFFFFF;stroke:#263238;stroke-linecap:round;stroke-linejoin:round;stroke-miterlimit:10;" d="
					M452.148,111.156c0,0-2.935,0.977-3.974,1.991c-1.039,1.013-22.922,18.427-22.922,18.427l6.223,3.545
					c0,0,24.435-12.055,28.065-14.497c3.63-2.442,7.717-7.595,6.891-8.173c-0.826-0.578-11.15-1.651-11.15-1.651"/>
				<path style="fill:#FFFFFF;stroke:#263238;stroke-linecap:round;stroke-linejoin:round;stroke-miterlimit:10;" d="
					M411.296,137.833c0,0-2.596,3.795-2.556,4.424c0.04,0.628,3.592,4.345,4.398,4.609c0.806,0.264,1.749,0.203,1.323-1.505
					c-0.425-1.708-0.733-4.055-0.733-4.055L411.296,137.833z"/>
				<g>
					<path style="fill:#FFFFFF;stroke:#263238;stroke-linecap:round;stroke-linejoin:round;stroke-miterlimit:10;" d="
						M425.252,131.573l-3.543,1.332c0,0-11.237-0.541-11.333,0.411c-0.097,0.953,0.554,8.642,1.37,9.063
						c0.816,0.421,10.568-0.047,11.039-0.077c0.471-0.03,1.845-0.749,1.845-0.749l0.538-1.454c0,0,2.661-0.328,3.868-1.195
						c1.207-0.866,2.439-3.785,2.439-3.785L425.252,131.573z"/>
					
						<line style="fill:none;stroke:#263238;stroke-linecap:round;stroke-linejoin:round;stroke-miterlimit:10;" x1="413.412" y1="134.146" x2="414.048" y2="142.368"/>
					
						<line style="fill:none;stroke:#263238;stroke-linecap:round;stroke-linejoin:round;stroke-miterlimit:10;" x1="416.769" y1="133.93" x2="417.419" y2="142.369"/>
					
						<line style="fill:none;stroke:#263238;stroke-linecap:round;stroke-linejoin:round;stroke-miterlimit:10;" x1="420.384" y1="134.351" x2="420.451" y2="142.175"/>
				</g>
				
					<line style="fill:none;stroke:#263238;stroke-linecap:round;stroke-linejoin:round;stroke-miterlimit:10;" x1="425.168" y1="140.098" x2="423.417" y2="139.266"/>
			</g>
		</g>
		<g>
			<g>
				<path style="fill:#FFFFFF;stroke:#263238;stroke-linecap:round;stroke-linejoin:round;stroke-miterlimit:10;" d="
					M292.542,305.659c0,0,13.865,7.895,13.672,10.013c-0.193,2.118-37.935,44.482-36.972,45.445
					c0.963,0.963,10.013,9.628,10.013,9.628s5.97,2.503,5.777,3.274c-0.193,0.77-5.777,0.963-7.703,0.963
					c-1.926,0-6.74-0.193-8.088-0.578c-1.348-0.385-5.97-3.081-10.206-5.007c-4.236-1.926-5.199-3.466-4.429-4.622
					c0.77-1.155,9.436-10.591,9.436-10.591l25.418-49.297L292.542,305.659z"/>
				<path style="fill:#263238;stroke:#263238;stroke-linecap:round;stroke-linejoin:round;stroke-miterlimit:10;" d="
					M285.031,374.019c0.193-0.77-5.777-3.274-5.777-3.274s-1.299-1.244-2.965-2.841c-0.592,0.705-1.457,1.645-2.041,1.879
					c-0.963,0.385-11.554-5.585-15.983-8.473c-0.151-0.099-0.291-0.187-0.435-0.28c-1.592,1.78-2.941,3.322-3.223,3.746
					c-0.77,1.155,0.193,2.696,4.429,4.622c4.237,1.926,8.858,4.622,10.206,5.007c1.348,0.385,6.162,0.578,8.088,0.578
					C279.254,374.982,284.839,374.789,285.031,374.019z"/>
			</g>
			<g>
				<path style="fill:#FFFFFF;stroke:#263238;stroke-linecap:round;stroke-linejoin:round;stroke-miterlimit:10;" d="
					M239.201,353.415l4.814,9.243l-38.32,4.044c0,0-5.007-6.932-6.547-7.125c-1.54-0.193-4.429,2.311-6.162,3.659
					c-1.733,1.348-6.162,4.621-6.162,4.621s-10.013,5.392-9.628,6.74c0.385,1.348,30.04,0,30.04,0s48.141,0,50.837,0
					s6.355-2.118,6.547-3.081c0.193-0.963-5.392-30.425-5.392-30.425L239.201,353.415z"/>
				<path style="fill:#263238;stroke:#263238;stroke-linecap:round;stroke-linejoin:round;stroke-miterlimit:10;" d="
					M190.897,375.133l-1.186-3.425l13.632-8.072c-1.52-1.884-3.363-3.956-4.196-4.06c-1.54-0.193-4.429,2.311-6.162,3.659
					c-1.733,1.348-6.162,4.622-6.162,4.622s-10.013,5.392-9.628,6.74C177.375,375.227,183.947,375.268,190.897,375.133z"/>
			</g>
			<g>
				<path style="fill:#263238;stroke:#263238;stroke-linecap:round;stroke-linejoin:round;stroke-miterlimit:10;" d="
					M225.914,275.041c0,0-7.703,16.368-9.05,30.425c-1.348,14.057,22.337,47.949,22.337,47.949s21.182-3.274,31.581-13.48
					c10.398-10.206,21.76-34.277,21.76-34.277l-31.388-18.101l-0.149-4.452L225.914,275.041z"/>
				<path style="fill:none;stroke:#FFFFFF;stroke-linecap:round;stroke-linejoin:round;stroke-miterlimit:10;" d="M238.816,302.963
					c0,0,4.814,5.007,11.361,13.672"/>
				<path style="fill:none;stroke:#FFFFFF;stroke-linecap:round;stroke-linejoin:round;stroke-miterlimit:10;" d="M247.674,309.895
					c0,0,7.895,9.628,9.436,12.517"/>
				<path style="fill:none;stroke:#FFFFFF;stroke-linecap:round;stroke-linejoin:round;stroke-miterlimit:10;" d="M259.228,288.713
					c0,0-3.851,3.466-12.132,5.007"/>
				<path style="fill:none;stroke:#FFFFFF;stroke-linecap:round;stroke-linejoin:round;stroke-miterlimit:10;" d="M257.88,291.602
					c0,0-6.547,6.355-10.206,8.088"/>
			</g>
			<g>
				<path style="fill:#263238;stroke:#263238;stroke-linecap:round;stroke-linejoin:round;stroke-miterlimit:10;" d="
					M307.437,212.731c0,0-8.042,2.208-8.495,3.115c-0.453,0.907,0.302,11.034,0.302,11.034l-16.022,18.893l-20.707-4.686
					l-0.756,17.684c0,0,17.835,8.918,18.742,8.767c0.907-0.151,4.534-3.174,4.534-3.174l22.672-40.205l3.93-12.092L307.437,212.731z
					"/>
				<g>
					<g>
						<g>
							<path style="fill:#263238;stroke:#263238;stroke-linecap:round;stroke-linejoin:round;stroke-miterlimit:10;" d="
								M259.8,188.918c0,0,2.231-0.093,3.572,1.66c1.34,1.752,1.958,4.742,1.958,5.154c0,0.412-0.206,3.814-0.206,3.814
								l-7.834,0.206L259.8,188.918z"/>
							<path style="fill:#FFFFFF;stroke:#263238;stroke-linecap:round;stroke-linejoin:round;stroke-miterlimit:10;" d="
								M261.667,196.696c0,0,4.978,1.4,6.844,3.266c1.867,1.867,3.422,6.533,3.889,7.155c0.467,0.622,5.911,2.489,5.755,3.266
								c-0.155,0.778-2.333,3.889-2.333,4.355s0.155,8.4,0.311,8.866c0.156,0.467-0.622,1.244-1.711,1.711
								c-1.089,0.467-7.777,0.933-7.777,0.933l-2.8,7.466l-17.733-7.777l1.555-3.422c0,0-9.333-7.622-1.244-15.088
								C254.511,199.962,259.8,196.54,261.667,196.696z"/>
							<path style="fill:#263238;stroke:#263238;stroke-linecap:round;stroke-linejoin:round;stroke-miterlimit:10;" d="
								M237.37,200.777c0,0-7.415-3.91-12.674-4.449c-5.258-0.539-7.011,3.371-7.011,3.371l9.438-1.079
								c0,0-5.932,2.292-10.651,5.663c-4.719,3.371-9.842,14.022-9.842,14.022s-5.123-2.966-11.46,0.809
								c-6.337,3.775-5.797,15.909-5.258,16.988c0.539,1.079-3.371,1.483-4.988,4.18c-1.618,2.696,2.292,8.359,2.697,8.359
								c0.404,0,3.91,0.27,6.337-2.697c2.427-2.966-0.405-8.224-0.405-8.224s5.663-1.348,10.651-4.854
								c4.989-3.506,6.876-8.629,6.876-8.629s12.539,2.831,17.662-2.157c5.123-4.988,4.989-15.1,4.989-15.1l3.101-2.292
								L237.37,200.777z"/>
							<path style="fill:#263238;stroke:#263238;stroke-linecap:round;stroke-linejoin:round;stroke-miterlimit:10;" d="
								M259.8,188.918c0,0,1.867,8.4,1.089,12.911c-0.778,4.511-1.4,5.755-1.4,5.755s1.711,1.555,0.933,3.111
								c-0.778,1.555-2.489,1.555-2.489,1.555s1.244,3.422-0.311,7.311c-1.555,3.889-5.911,5.289-7.622,4.822
								c-1.711-0.467-5.755-1.4-8.866-4.978c-3.111-3.578-7.155-7.466-5.444-14.466c1.711-7,14.466-14.466,14.466-14.466
								S258.556,186.43,259.8,188.918z"/>
							<path style="fill:#263238;" d="M270.219,207.495c0.329,0.788,0.275,1.56-0.119,1.725c-0.394,0.164-0.98-0.342-1.309-1.13
								c-0.329-0.788-0.275-1.56,0.119-1.725C269.304,206.201,269.89,206.707,270.219,207.495z"/>
							<path style="fill:none;stroke:#263238;stroke-linecap:round;stroke-linejoin:round;stroke-miterlimit:10;" d="
								M265.639,205.937c0,0,0.309-2.783,3.196-2.371"/>
							<path style="fill:none;stroke:#263238;stroke-linecap:round;stroke-linejoin:round;stroke-miterlimit:10;" d="
								M273.577,216.349c0,0-2.062,1.443-4.329-0.515"/>
							<path style="fill:#FFFFFF;stroke:#263238;stroke-linecap:round;stroke-linejoin:round;stroke-miterlimit:10;" d="
								M260.382,213.153c0,0-4.639-4.536-6.803-1.752c-2.165,2.783,2.886,7.319,4.948,7.319c2.062,0,2.577-1.34,2.577-1.34"/>
							<polygon style="fill:#263238;stroke:#263238;stroke-linecap:round;stroke-linejoin:round;stroke-miterlimit:10;" points="
								266.644,226.25 263.062,226.245 264.918,231.296 							"/>
						</g>
						<g>
							<path style="fill:#92E3A9;stroke:#263238;stroke-linecap:round;stroke-linejoin:round;stroke-miterlimit:10;" d="
								M244.195,230.018c0,0-1.225,0.525-10.499,2.625c-9.274,2.1-20.122,5.074-21.697,6.999
								c-1.575,1.925-24.322,19.247-24.322,20.472c0,1.225,10.848,10.849,11.374,11.023c0.525,0.175,19.422-23.447,21.697-24.847
								c2.275-1.4,16.623-9.624,17.848-10.149c1.225-0.525,10.674-3.15,10.674-3.15L244.195,230.018z"/>
							
								<line style="fill:none;stroke:#263238;stroke-linecap:round;stroke-linejoin:round;stroke-miterlimit:10;" x1="188.979" y1="260.13" x2="185.153" y2="262.681"/>
							
								<line style="fill:none;stroke:#263238;stroke-linecap:round;stroke-linejoin:round;stroke-miterlimit:10;" x1="190.786" y1="261.725" x2="186.216" y2="264.807"/>
							
								<line style="fill:none;stroke:#263238;stroke-linecap:round;stroke-linejoin:round;stroke-miterlimit:10;" x1="191.636" y1="263.425" x2="188.235" y2="266.933"/>
							
								<line style="fill:none;stroke:#263238;stroke-linecap:round;stroke-linejoin:round;stroke-miterlimit:10;" x1="193.337" y1="264.913" x2="190.68" y2="268.74"/>
							
								<line style="fill:none;stroke:#263238;stroke-linecap:round;stroke-linejoin:round;stroke-miterlimit:10;" x1="195.25" y1="267.145" x2="192.806" y2="271.078"/>
							
								<line style="fill:none;stroke:#263238;stroke-linecap:round;stroke-linejoin:round;stroke-miterlimit:10;" x1="197.801" y1="269.059" x2="194.506" y2="273.31"/>
						</g>
						<path style="fill:#92E3A9;stroke:#263238;stroke-linecap:round;stroke-linejoin:round;stroke-miterlimit:10;" d="
							M245.42,223.894c0,0-2.8,6.824-2.45,7.349c0.35,0.525,15.923,6.824,18.723,8.049c2.8,1.225,4.199-0.35,4.549-1.05
							c0.35-0.7,2.1-3.5,1.225-4.724c-0.875-1.225-17.848-8.574-18.548-9.099C248.22,223.894,246.295,221.969,245.42,223.894z"/>
					</g>
					<path style="fill:#FFFFFF;stroke:#263238;stroke-linecap:round;stroke-linejoin:round;stroke-miterlimit:10;" d="
						M242.97,231.243c0,0-8.719,6.972-9.324,9.391c-0.605,2.418-5.139,27.509-5.139,27.509s-5.441,6.197-4.383,7.406
						c1.058,1.209,5.744,5.895,17.079,7.406c11.336,1.511,19.8,0.151,19.8,0.151l0.756-4.837c0,0,4.232-19.347,4.383-21.765
						c0.151-2.418-2.418-17.382-2.418-17.382L242.97,231.243z"/>
				</g>
			</g>
			<g>
				<path style="fill:#FFFFFF;stroke:#263238;stroke-linecap:round;stroke-linejoin:round;stroke-miterlimit:10;" d="
					M303.363,224.193l4.51-12.403l1.002-2.882c0,0,8.269-3.007,9.02-3.257c0.752-0.251,1.503-1.629,2.005-1.128
					c0.501,0.501,0.752,0.752,0.251,1.629c-0.501,0.877-1.128,2.13-2.004,2.631c-0.877,0.501-3.132,2.38-3.132,2.38l9.647,4.761
					l-1.128,1.754l-2.756,0.626c0,0-8.143,5.512-9.146,6.014c-1.002,0.501-1.754,1.754-1.754,1.754L303.363,224.193z"/>
				<g>
					<path style="fill:#FFFFFF;stroke:#263238;stroke-linecap:round;stroke-linejoin:round;stroke-miterlimit:10;" d="
						M241.204,243.959c0,0,3.779-4.837,6.046-6.348c2.267-1.512,42.623,7.406,42.623,7.406l13.49-20.823l6.515,1.879
						c0,0-14.563,34.966-15.167,35.57c-0.605,0.605-41.716-2.569-41.716-2.569"/>
					<path style="fill:#FFFFFF;stroke:#263238;stroke-linecap:round;stroke-linejoin:round;stroke-miterlimit:10;" d="
						M307.437,212.731l-5.823,4.561c0,0,0.679,6.502,0.679,7.57c0,1.068,1.068,1.359,1.65,0.485
						c0.582-0.873,1.164-5.532,1.164-5.532L307.437,212.731z"/>
					<path style="fill:none;stroke:#263238;stroke-linecap:round;stroke-linejoin:round;stroke-miterlimit:10;" d="M258.737,259.98
						c0,0-9.069,8.918-15.568,11.941"/>
					<path style="fill:none;stroke:#263238;stroke-linecap:round;stroke-linejoin:round;stroke-miterlimit:10;" d="M254.051,268.898
						c0,0-12.848,8.464-16.324,8.918"/>
				</g>
			</g>
		</g>
		<g>
			<path style="fill:#FFFFFF;stroke:#263238;stroke-linecap:round;stroke-linejoin:round;stroke-miterlimit:10;" d="M308.624,222.94
				c0,0,0,5.011,0.752,5.262c0.752,0.251,1.879-0.501,2.13-1.378c0.251-0.877-0.251-3.257-0.752-4.635
				C310.253,220.811,308.75,222.063,308.624,222.94z"/>
			<path style="fill:#FFFFFF;stroke:#263238;stroke-linecap:round;stroke-linejoin:round;stroke-miterlimit:10;" d="
				M311.381,221.061c0,0,0.501,5.387,1.002,5.763c0.501,0.376,1.503-0.376,1.754-1.629c0.251-1.253-0.626-3.758-1.128-4.385
				C312.508,220.184,312.007,219.934,311.381,221.061z"/>
			<path style="fill:#FFFFFF;stroke:#263238;stroke-linecap:round;stroke-linejoin:round;stroke-miterlimit:10;" d="M313.9,219.951
				c0,0,0.501,5.387,1.002,5.763c0.501,0.376,1.503-0.376,1.754-1.629c0.251-1.253-0.626-3.758-1.128-4.385
				C315.028,219.074,314.527,218.824,313.9,219.951z"/>
			<path style="fill:#FFFFFF;stroke:#263238;stroke-linecap:round;stroke-linejoin:round;stroke-miterlimit:10;" d="
				M316.812,218.708c0,0,0.389,4.182,0.778,4.474c0.389,0.292,1.167-0.292,1.362-1.264c0.194-0.973-0.486-2.918-0.875-3.404
				C317.687,218.028,317.298,217.833,316.812,218.708z"/>
		</g>
	</g>
</g>
<g id="Bars">
	<g>
		<g>
			
				<rect x="181.466" y="374.57" style="fill:#263238;stroke:#263238;stroke-linecap:round;stroke-linejoin:round;stroke-miterlimit:10;" width="136.938" height="89.982"/>
			
				<rect x="344.615" y="267.736" style="fill:#263238;stroke:#263238;stroke-linecap:round;stroke-linejoin:round;stroke-miterlimit:10;" width="136.938" height="196.816"/>
			
				<rect x="18.317" y="426.139" style="fill:#263238;stroke:#263238;stroke-linecap:round;stroke-linejoin:round;stroke-miterlimit:10;" width="136.938" height="38.413"/>
		</g>
		<g>
			
				<rect x="175.614" y="374.57" style="fill:#92E3A9;stroke:#263238;stroke-linecap:round;stroke-linejoin:round;stroke-miterlimit:10;" width="136.938" height="89.982"/>
			
				<rect x="338.763" y="267.736" style="fill:#92E3A9;stroke:#263238;stroke-linecap:round;stroke-linejoin:round;stroke-miterlimit:10;" width="136.938" height="196.816"/>
			
				<rect x="12.465" y="426.139" style="fill:#92E3A9;stroke:#263238;stroke-linecap:round;stroke-linejoin:round;stroke-miterlimit:10;" width="136.939" height="38.413"/>
		</g>
	</g>
</g>
</svg>
